Knewave Outline-Regular.ufo
<glyph name="exclam" format="1">
  <advance width="370"/>
  <unicode hex="0021"/>
  <outline>
    <contour>
      <point x="489" y="728" type="line"/>
      <point x="492" y="721"/>
      <point x="494" y="716"/>
      <point x="497" y="715" type="curve"/>
      <point x="505" y="708"/>
      <point x="511" y="705"/>
      <point x="512" y="699" type="curve"/>
      <point x="512" y="696"/>
      <point x="511" y="692"/>
      <point x="509" y="688" type="curve"/>
      <point x="506" y="683"/>
      <point x="503" y="677"/>
      <point x="498" y="670" type="curve"/>
      <point x="490" y="655"/>
      <point x="479" y="637"/>
      <point x="470" y="622" type="curve"/>
      <point x="457" y="602"/>
      <point x="444" y="581"/>
      <point x="437" y="566" type="curve" smooth="yes"/>
      <point x="381" y="454"/>
      <point x="356" y="364"/>
      <point x="333" y="291" type="curve" smooth="yes"/>
      <point x="310" y="219"/>
      <point x="296" y="162"/>
      <point x="261" y="121" type="curve"/>
      <point x="259" y="119" type="line"/>
      <point x="240" y="94"/>
      <point x="202" y="79"/>
      <point x="163" y="79" type="curve" smooth="yes"/>
      <point x="131" y="79"/>
      <point x="99" y="87"/>
      <point x="76" y="103" type="curve" smooth="yes"/>
      <point x="53" y="118"/>
      <point x="40" y="140"/>
      <point x="47" y="169" type="curve"/>
      <point x="46" y="166" type="line"/>
      <point x="51" y="219"/>
      <point x="62" y="265"/>
      <point x="74" y="307" type="curve" smooth="yes"/>
      <point x="80" y="328"/>
      <point x="87" y="348"/>
      <point x="95" y="369" type="curve" smooth="yes"/>
      <point x="110" y="409"/>
      <point x="124" y="446"/>
      <point x="136" y="478" type="curve" smooth="yes"/>
      <point x="142" y="493"/>
      <point x="148" y="510"/>
      <point x="154" y="527" type="curve" smooth="yes"/>
      <point x="163" y="551"/>
      <point x="179" y="588"/>
      <point x="200" y="627" type="curve" smooth="yes"/>
      <point x="220" y="666"/>
      <point x="244" y="707"/>
      <point x="268" y="740" type="curve" smooth="yes"/>
      <point x="292" y="773"/>
      <point x="317" y="799"/>
      <point x="338" y="807" type="curve" smooth="yes"/>
      <point x="360" y="816"/>
      <point x="383" y="821"/>
      <point x="408" y="821" type="curve" smooth="yes"/>
      <point x="457" y="821"/>
      <point x="498" y="799"/>
      <point x="498" y="752" type="curve" smooth="yes"/>
      <point x="498" y="743"/>
      <point x="495" y="730"/>
      <point x="488" y="713" type="curve"/>
    </contour>
    <contour>
      <point x="452" y="729" type="line"/>
      <point x="456" y="738"/>
      <point x="458" y="745"/>
      <point x="458" y="752" type="curve" smooth="yes"/>
      <point x="458" y="772"/>
      <point x="435" y="781"/>
      <point x="408" y="781" type="curve" smooth="yes"/>
      <point x="391" y="781"/>
      <point x="371" y="776"/>
      <point x="352" y="769" type="curve" smooth="yes"/>
      <point x="324" y="758"/>
      <point x="290" y="710"/>
      <point x="259" y="657" type="curve" smooth="yes"/>
      <point x="228" y="604"/>
      <point x="203" y="546"/>
      <point x="192" y="515" type="curve" smooth="yes"/>
      <point x="180" y="480"/>
      <point x="168" y="448"/>
      <point x="156" y="417" type="curve" smooth="yes"/>
      <point x="124" y="336"/>
      <point x="97" y="260"/>
      <point x="86" y="164" type="curve"/>
      <point x="82" y="149"/>
      <point x="91" y="138"/>
      <point x="107" y="131" type="curve"/>
      <point x="122" y="123"/>
      <point x="143" y="119"/>
      <point x="163" y="119" type="curve" smooth="yes"/>
      <point x="190" y="119"/>
      <point x="218" y="127"/>
      <point x="227" y="143" type="curve"/>
      <point x="231" y="147" type="line"/>
      <point x="259" y="182"/>
      <point x="275" y="235"/>
      <point x="295" y="303" type="curve" smooth="yes"/>
      <point x="318" y="378"/>
      <point x="345" y="472"/>
      <point x="401" y="584" type="curve"/>
      <point x="408" y="601"/>
      <point x="423" y="625"/>
      <point x="436" y="644" type="curve"/>
      <point x="445" y="659"/>
      <point x="456" y="676"/>
      <point x="467" y="697" type="curve"/>
      <point x="465" y="701" type="line"/>
      <point x="465" y="694"/>
      <point x="465" y="690"/>
      <point x="466" y="689" type="curve"/>
      <point x="462" y="694"/>
      <point x="455" y="703"/>
      <point x="451" y="714" type="curve"/>
    </contour>
    <contour>
      <point x="250" y="-38" type="line"/>
      <point x="241" y="-71"/>
      <point x="221" y="-96"/>
      <point x="194" y="-112" type="curve" smooth="yes"/>
      <point x="167" y="-129"/>
      <point x="136" y="-137"/>
      <point x="105" y="-137" type="curve" smooth="yes"/>
      <point x="46" y="-137"/>
      <point x="-7" y="-109"/>
      <point x="-22" y="-56" type="curve" smooth="yes"/>
      <point x="-29" y="-28"/>
      <point x="-21" y="-2"/>
      <point x="-7" y="18" type="curve" smooth="yes"/>
      <point x="7" y="38"/>
      <point x="28" y="53"/>
      <point x="51" y="60" type="curve" smooth="yes"/>
      <point x="75" y="67"/>
      <point x="105" y="72"/>
      <point x="136" y="72" type="curve" smooth="yes"/>
      <point x="167" y="72"/>
      <point x="197" y="67"/>
      <point x="220" y="56" type="curve" smooth="yes"/>
      <point x="243" y="44"/>
      <point x="258" y="25"/>
      <point x="258" y="-3" type="curve" smooth="yes"/>
      <point x="258" y="-14"/>
      <point x="256" y="-26"/>
      <point x="249" y="-41" type="curve"/>
    </contour>
    <contour>
      <point x="213" y="-25" type="line"/>
      <point x="216" y="-18"/>
      <point x="218" y="-11"/>
      <point x="218" y="-3" type="curve" smooth="yes"/>
      <point x="218" y="10"/>
      <point x="208" y="19"/>
      <point x="193" y="24" type="curve" smooth="yes"/>
      <point x="177" y="29"/>
      <point x="157" y="32"/>
      <point x="136" y="32" type="curve" smooth="yes"/>
      <point x="108" y="32"/>
      <point x="81" y="27"/>
      <point x="61" y="22" type="curve" smooth="yes"/>
      <point x="33" y="14"/>
      <point x="9" y="-13"/>
      <point x="16" y="-46" type="curve"/>
      <point x="25" y="-77"/>
      <point x="64" y="-97"/>
      <point x="105" y="-97" type="curve" smooth="yes"/>
      <point x="152" y="-97"/>
      <point x="200" y="-75"/>
      <point x="212" y="-28" type="curve"/>
    </contour>
  </outline>
</glyph>
<glyph name="numbersign" format="1">
  <advance width="833"/>
  <unicode hex="0023"/>
  <outline>
    <contour>
      <point x="655" y="334" type="line"/>
      <point x="662" y="332"/>
      <point x="671" y="332"/>
      <point x="682" y="333" type="curve"/>
      <point x="701" y="334"/>
      <point x="717" y="337"/>
      <point x="740" y="318" type="curve"/>
      <point x="751" y="307"/>
      <point x="754" y="294"/>
      <point x="755" y="281" type="curve"/>
      <point x="756" y="278"/>
      <point x="756" y="276"/>
      <point x="755" y="276" type="curve" smooth="yes"/>
      <point x="754" y="276"/>
      <point x="754" y="275"/>
      <point x="755" y="274" type="curve" smooth="yes"/>
      <point x="775" y="254"/>
      <point x="788" y="227"/>
      <point x="788" y="206" type="curve" smooth="yes"/>
      <point x="788" y="182"/>
      <point x="776" y="160"/>
      <point x="756" y="144" type="curve" smooth="yes"/>
      <point x="736" y="128"/>
      <point x="707" y="119"/>
      <point x="674" y="120" type="curve" smooth="yes"/>
      <point x="668" y="120"/>
      <point x="662" y="120"/>
      <point x="657" y="121" type="curve"/>
      <point x="652" y="121"/>
      <point x="646" y="121"/>
      <point x="640" y="121" type="curve" smooth="yes"/>
      <point x="633" y="121"/>
      <point x="627" y="121"/>
      <point x="621" y="121" type="curve"/>
      <point x="614" y="120"/>
      <point x="608" y="120"/>
      <point x="602" y="120" type="curve" smooth="yes"/>
      <point x="596" y="120"/>
      <point x="590" y="120"/>
      <point x="584" y="120" type="curve"/>
      <point x="578" y="119"/>
      <point x="572" y="119"/>
      <point x="567" y="119" type="curve" smooth="yes"/>
      <point x="562" y="119"/>
      <point x="556" y="119"/>
      <point x="551" y="119" type="curve" smooth="yes"/>
      <point x="545" y="119"/>
      <point x="539" y="119"/>
      <point x="534" y="120" type="curve"/>
      <point x="511" y="35" type="line"/>
      <point x="492" y="14"/>
      <point x="465" y="2"/>
      <point x="441" y="2" type="curve" smooth="yes"/>
      <point x="406" y="2"/>
      <point x="371" y="22"/>
      <point x="367" y="69" type="curve"/>
      <point x="367" y="73"/>
      <point x="367" y="76"/>
      <point x="368" y="78" type="curve"/>
      <point x="367" y="83"/>
      <point x="367" y="89"/>
      <point x="367" y="94" type="curve" smooth="yes"/>
      <point x="367" y="99"/>
      <point x="367" y="104"/>
      <point x="367" y="109" type="curve"/>
      <point x="360" y="109" type="line" smooth="yes"/>
      <point x="344" y="109"/>
      <point x="329" y="108"/>
      <point x="314" y="107" type="curve" smooth="yes"/>
      <point x="297" y="106"/>
      <point x="280" y="106"/>
      <point x="263" y="107" type="curve"/>
      <point x="260" y="107"/>
      <point x="257" y="107"/>
      <point x="256" y="107" type="curve"/>
      <point x="254" y="106"/>
      <point x="252" y="106"/>
      <point x="249" y="106" type="curve"/>
      <point x="245" y="99"/>
      <point x="241" y="92"/>
      <point x="238" y="85" type="curve" smooth="yes"/>
      <point x="227" y="61"/>
      <point x="215" y="35"/>
      <point x="208" y="-2" type="curve"/>
      <point x="188" y="-27"/>
      <point x="158" y="-41"/>
      <point x="131" y="-41" type="curve" smooth="yes"/>
      <point x="96" y="-41"/>
      <point x="70" y="-24"/>
      <point x="63" y="19" type="curve"/>
      <point x="63" y="20"/>
      <point x="63" y="22"/>
      <point x="63" y="25" type="curve" smooth="yes"/>
      <point x="63" y="27"/>
      <point x="63" y="29"/>
      <point x="64" y="30" type="curve"/>
      <point x="73" y="88" type="line"/>
      <point x="70" y="87"/>
      <point x="62" y="87"/>
      <point x="50" y="87" type="curve"/>
      <point x="11" y="84"/>
      <point x="-18" y="110"/>
      <point x="-18" y="145" type="curve" smooth="yes"/>
      <point x="-18" y="165"/>
      <point x="-4" y="192"/>
      <point x="23" y="215" type="curve" smooth="yes"/>
      <point x="36" y="226"/>
      <point x="45" y="232"/>
      <point x="54" y="236" type="curve" smooth="yes"/>
      <point x="63" y="240"/>
      <point x="73" y="242"/>
      <point x="86" y="245" type="curve"/>
      <point x="87" y="245" type="line"/>
      <point x="90" y="246"/>
      <point x="92" y="246"/>
      <point x="91" y="246" type="curve" smooth="yes"/>
      <point x="90" y="246"/>
      <point x="93" y="247"/>
      <point x="98" y="248" type="curve"/>
      <point x="101" y="265"/>
      <point x="103" y="280"/>
      <point x="105" y="293" type="curve"/>
      <point x="106" y="306"/>
      <point x="109" y="323"/>
      <point x="112" y="343" type="curve"/>
      <point x="90" y="343" type="line" smooth="yes"/>
      <point x="59" y="343"/>
      <point x="28" y="348"/>
      <point x="1" y="361" type="curve"/>
      <point x="-14" y="376"/>
      <point x="-22" y="390"/>
      <point x="-22" y="403" type="curve" smooth="yes"/>
      <point x="-22" y="420"/>
      <point x="-10" y="439"/>
      <point x="13" y="459" type="curve"/>
      <point x="49" y="478"/>
      <point x="90" y="495"/>
      <point x="146" y="510" type="curve"/>
      <point x="153" y="539" type="line"/>
      <point x="152" y="539" type="line"/>
      <point x="161" y="584"/>
      <point x="171" y="641"/>
      <point x="190" y="684" type="curve" smooth="yes"/>
      <point x="223" y="760"/>
      <point x="289" y="796"/>
      <point x="352" y="796" type="curve" smooth="yes"/>
      <point x="385" y="796"/>
      <point x="416" y="786"/>
      <point x="440" y="766" type="curve" smooth="yes"/>
      <point x="463" y="746"/>
      <point x="477" y="717"/>
      <point x="477" y="680" type="curve" smooth="yes"/>
      <point x="477" y="665"/>
      <point x="475" y="649"/>
      <point x="468" y="628" type="curve"/>
      <point x="449" y="588" type="line"/>
      <point x="468" y="594" type="line"/>
      <point x="473" y="609" type="line"/>
      <point x="478" y="622"/>
      <point x="483" y="637"/>
      <point x="486" y="668" type="curve"/>
      <point x="497" y="720"/>
      <point x="529" y="756"/>
      <point x="568" y="778" type="curve" smooth="yes"/>
      <point x="607" y="800"/>
      <point x="652" y="809"/>
      <point x="689" y="809" type="curve" smooth="yes"/>
      <point x="704" y="809"/>
      <point x="719" y="808"/>
      <point x="732" y="804" type="curve"/>
      <point x="731" y="805" type="line"/>
      <point x="767" y="797"/>
      <point x="796" y="771"/>
      <point x="796" y="734" type="curve" smooth="yes"/>
      <point x="796" y="721"/>
      <point x="792" y="707"/>
      <point x="783" y="692" type="curve"/>
      <point x="781" y="672"/>
      <point x="774" y="650"/>
      <point x="763" y="625" type="curve"/>
      <point x="778" y="621" type="line" smooth="yes"/>
      <point x="801" y="614"/>
      <point x="817" y="611"/>
      <point x="840" y="592" type="curve"/>
      <point x="843" y="589"/>
      <point x="847" y="587"/>
      <point x="850" y="585" type="curve"/>
      <point x="853" y="582"/>
      <point x="854" y="581"/>
      <point x="853" y="581" type="curve"/>
      <point x="869" y="570"/>
      <point x="880" y="562"/>
      <point x="880" y="542" type="curve" smooth="yes"/>
      <point x="880" y="534"/>
      <point x="879" y="524"/>
      <point x="874" y="512" type="curve"/>
      <point x="887" y="489"/>
      <point x="893" y="466"/>
      <point x="893" y="443" type="curve" smooth="yes"/>
      <point x="893" y="395"/>
      <point x="864" y="360"/>
      <point x="820" y="347" type="curve"/>
      <point x="819" y="347"/>
      <point x="819" y="347"/>
      <point x="818" y="347" type="curve"/>
      <point x="817" y="346"/>
      <point x="816" y="346"/>
      <point x="815" y="346" type="curve"/>
      <point x="801" y="345"/>
      <point x="788" y="345"/>
      <point x="775" y="346" type="curve"/>
      <point x="775" y="345" type="line"/>
      <point x="770" y="345"/>
      <point x="764" y="346"/>
      <point x="757" y="347" type="curve"/>
      <point x="741" y="350" type="line"/>
      <point x="630" y="357" type="line"/>
      <point x="629" y="354"/>
      <point x="627" y="351"/>
      <point x="625" y="348" type="curve" smooth="yes"/>
      <point x="623" y="345"/>
      <point x="621" y="342"/>
      <point x="620" y="339" type="curve"/>
      <point x="619" y="338" type="line"/>
      <point x="652" y="335" type="line"/>
    </contour>
    <contour>
      <point x="758" y="389" type="line"/>
      <point x="761" y="388"/>
      <point x="763" y="388"/>
      <point x="766" y="388" type="curve" smooth="yes"/>
      <point x="768" y="388"/>
      <point x="770" y="387"/>
      <point x="772" y="386" type="curve"/>
      <point x="784" y="385"/>
      <point x="798" y="385"/>
      <point x="813" y="386" type="curve"/>
      <point x="814" y="386"/>
      <point x="814" y="386"/>
      <point x="814" y="387" type="curve"/>
      <point x="814" y="387"/>
      <point x="815" y="387"/>
      <point x="816" y="387" type="curve"/>
      <point x="835" y="396"/>
      <point x="853" y="418"/>
      <point x="853" y="443" type="curve" smooth="yes"/>
      <point x="853" y="462"/>
      <point x="845" y="485"/>
      <point x="828" y="512" type="curve"/>
      <point x="833" y="521"/>
      <point x="836" y="528"/>
      <point x="838" y="533" type="curve"/>
      <point x="839" y="537"/>
      <point x="840" y="540"/>
      <point x="840" y="542" type="curve" smooth="yes"/>
      <point x="840" y="543"/>
      <point x="838" y="545"/>
      <point x="833" y="548" type="curve" smooth="yes"/>
      <point x="826" y="552"/>
      <point x="821" y="557"/>
      <point x="814" y="562" type="curve"/>
      <point x="798" y="575"/>
      <point x="787" y="579"/>
      <point x="768" y="583" type="curve"/>
      <point x="754" y="587" type="line"/>
      <point x="757" y="586" type="line"/>
      <point x="704" y="592" type="line"/>
      <point x="725" y="636"/>
      <point x="740" y="678"/>
      <point x="743" y="703" type="curve"/>
      <point x="752" y="716"/>
      <point x="756" y="726"/>
      <point x="756" y="734" type="curve" smooth="yes"/>
      <point x="756" y="749"/>
      <point x="741" y="761"/>
      <point x="722" y="765" type="curve"/>
      <point x="712" y="768"/>
      <point x="701" y="769"/>
      <point x="689" y="769" type="curve" smooth="yes"/>
      <point x="658" y="769"/>
      <point x="623" y="762"/>
      <point x="592" y="744" type="curve" smooth="yes"/>
      <point x="561" y="726"/>
      <point x="535" y="699"/>
      <point x="526" y="659" type="curve"/>
      <point x="523" y="628"/>
      <point x="518" y="610"/>
      <point x="511" y="595" type="curve"/>
      <point x="500" y="562" type="line"/>
      <point x="373" y="525" type="line"/>
      <point x="432" y="646" type="line"/>
      <point x="435" y="658"/>
      <point x="437" y="669"/>
      <point x="437" y="680" type="curve" smooth="yes"/>
      <point x="437" y="729"/>
      <point x="397" y="756"/>
      <point x="352" y="756" type="curve" smooth="yes"/>
      <point x="305" y="756"/>
      <point x="254" y="728"/>
      <point x="227" y="668" type="curve"/>
      <point x="228" y="668" type="line"/>
      <point x="209" y="621"/>
      <point x="199" y="571"/>
      <point x="191" y="531" type="curve"/>
      <point x="178" y="478" type="line"/>
      <point x="118" y="463"/>
      <point x="73" y="445"/>
      <point x="32" y="422" type="curve"/>
      <point x="35" y="425" type="line"/>
      <point x="24" y="416"/>
      <point x="18" y="408"/>
      <point x="18" y="403" type="curve" smooth="yes"/>
      <point x="18" y="400"/>
      <point x="20" y="398"/>
      <point x="23" y="395" type="curve"/>
      <point x="42" y="384"/>
      <point x="65" y="383"/>
      <point x="90" y="383" type="curve" smooth="yes"/>
      <point x="103" y="383"/>
      <point x="127" y="385"/>
      <point x="162" y="390" type="curve"/>
      <point x="158" y="367"/>
      <point x="152" y="334"/>
      <point x="147" y="301" type="curve" smooth="yes"/>
      <point x="142" y="268"/>
      <point x="137" y="235"/>
      <point x="134" y="214" type="curve"/>
      <point x="123" y="211"/>
      <point x="102" y="206"/>
      <point x="94" y="205" type="curve"/>
      <point x="73" y="201"/>
      <point x="66" y="200"/>
      <point x="49" y="185" type="curve" smooth="yes"/>
      <point x="31" y="170"/>
      <point x="22" y="156"/>
      <point x="22" y="145" type="curve" smooth="yes"/>
      <point x="22" y="134"/>
      <point x="36" y="127"/>
      <point x="48" y="127" type="curve"/>
      <point x="51" y="128"/>
      <point x="54" y="128"/>
      <point x="56" y="128" type="curve" smooth="yes"/>
      <point x="58" y="128"/>
      <point x="60" y="128"/>
      <point x="61" y="128" type="curve"/>
      <point x="60" y="128"/>
      <point x="59" y="128"/>
      <point x="59" y="129" type="curve"/>
      <point x="59" y="129"/>
      <point x="61" y="130"/>
      <point x="64" y="131" type="curve" smooth="yes"/>
      <point x="67" y="132"/>
      <point x="73" y="133"/>
      <point x="82" y="135" type="curve"/>
      <point x="91" y="136"/>
      <point x="104" y="139"/>
      <point x="121" y="142" type="curve"/>
      <point x="118" y="127"/>
      <point x="116" y="105"/>
      <point x="113" y="83" type="curve" smooth="yes"/>
      <point x="110" y="61"/>
      <point x="107" y="39"/>
      <point x="104" y="24" type="curve"/>
      <point x="104" y="22" type="line"/>
      <point x="107" y="7"/>
      <point x="116" y="-1"/>
      <point x="131" y="-1" type="curve" smooth="yes"/>
      <point x="143" y="-1"/>
      <point x="159" y="6"/>
      <point x="170" y="14" type="curve"/>
      <point x="177" y="51"/>
      <point x="190" y="78"/>
      <point x="202" y="103" type="curve"/>
      <point x="202" y="102" type="line"/>
      <point x="207" y="113"/>
      <point x="217" y="135"/>
      <point x="221" y="146" type="curve"/>
      <point x="268" y="146" type="line"/>
      <point x="283" y="145"/>
      <point x="297" y="146"/>
      <point x="312" y="147" type="curve" smooth="yes"/>
      <point x="327" y="148"/>
      <point x="344" y="149"/>
      <point x="360" y="149" type="curve" smooth="yes"/>
      <point x="371" y="149"/>
      <point x="380" y="149"/>
      <point x="407" y="146" type="curve"/>
      <point x="407" y="137"/>
      <point x="407" y="124"/>
      <point x="407" y="109" type="curve" smooth="yes"/>
      <point x="407" y="93"/>
      <point x="407" y="80"/>
      <point x="408" y="71" type="curve"/>
      <point x="408" y="72" type="line"/>
      <point x="412" y="51"/>
      <point x="426" y="42"/>
      <point x="441" y="42" type="curve" smooth="yes"/>
      <point x="454" y="42"/>
      <point x="466" y="46"/>
      <point x="475" y="54" type="curve"/>
      <point x="506" y="162" type="line"/>
      <point x="521" y="161"/>
      <point x="551" y="159"/>
      <point x="567" y="159" type="curve" smooth="yes"/>
      <point x="572" y="159"/>
      <point x="578" y="159"/>
      <point x="584" y="160" type="curve"/>
      <point x="590" y="160"/>
      <point x="596" y="160"/>
      <point x="602" y="160" type="curve" smooth="yes"/>
      <point x="608" y="160"/>
      <point x="614" y="160"/>
      <point x="621" y="161" type="curve"/>
      <point x="627" y="161"/>
      <point x="633" y="161"/>
      <point x="640" y="161" type="curve" smooth="yes"/>
      <point x="646" y="161"/>
      <point x="652" y="161"/>
      <point x="659" y="161" type="curve"/>
      <point x="666" y="160"/>
      <point x="672" y="160"/>
      <point x="678" y="160" type="curve"/>
      <point x="721" y="156"/>
      <point x="748" y="179"/>
      <point x="748" y="206" type="curve" smooth="yes"/>
      <point x="748" y="221"/>
      <point x="740" y="235"/>
      <point x="723" y="249" type="curve"/>
      <point x="719" y="256"/>
      <point x="716" y="265"/>
      <point x="715" y="276" type="curve"/>
      <point x="715" y="277" type="line"/>
      <point x="714" y="281"/>
      <point x="712" y="287"/>
      <point x="712" y="290" type="curve"/>
      <point x="705" y="293"/>
      <point x="696" y="294"/>
      <point x="685" y="293" type="curve"/>
      <point x="686" y="293" type="line"/>
      <point x="674" y="292"/>
      <point x="662" y="292"/>
      <point x="646" y="295" type="curve"/>
      <point x="648" y="295" type="line"/>
      <point x="631" y="298"/>
      <point x="593" y="299"/>
      <point x="558" y="299" type="curve"/>
      <point x="571" y="335"/>
      <point x="578" y="347"/>
      <point x="586" y="360" type="curve" smooth="yes"/>
      <point x="593" y="371"/>
      <point x="599" y="384"/>
      <point x="606" y="399" type="curve"/>
      <point x="739" y="390" type="line"/>
      <point x="740" y="392" type="line"/>
      <point x="743" y="391" type="line"/>
      <point x="743" y="392" type="line"/>
      <point x="747" y="390" type="line"/>
    </contour>
    <contour>
      <point x="317" y="404" type="line"/>
      <point x="466" y="413" type="line"/>
      <point x="449" y="354" type="line"/>
      <point x="449" y="355" type="line"/>
      <point x="427" y="279" type="line"/>
      <point x="417" y="277"/>
      <point x="404" y="275"/>
      <point x="389" y="272" type="curve" smooth="yes"/>
      <point x="374" y="269"/>
      <point x="358" y="265"/>
      <point x="342" y="262" type="curve"/>
      <point x="325" y="258"/>
      <point x="309" y="254"/>
      <point x="294" y="251" type="curve" smooth="yes"/>
      <point x="279" y="248"/>
      <point x="266" y="245"/>
      <point x="256" y="242" type="curve"/>
    </contour>
    <contour>
      <point x="320" y="299" type="line"/>
      <point x="343" y="304"/>
      <point x="369" y="310"/>
      <point x="396" y="315" type="curve"/>
      <point x="399" y="324"/>
      <point x="401" y="333"/>
      <point x="404" y="342" type="curve"/>
      <point x="407" y="350"/>
      <point x="409" y="358"/>
      <point x="412" y="367" type="curve"/>
      <point x="412" y="369" type="line"/>
      <point x="399" y="368"/>
      <point x="389" y="368"/>
      <point x="381" y="368" type="curve" smooth="yes"/>
      <point x="372" y="368"/>
      <point x="361" y="367"/>
      <point x="346" y="366" type="curve"/>
    </contour>
    <contour>
      <point x="408" y="79" type="line"/>
      <point x="409" y="76"/>
      <point x="409" y="74"/>
      <point x="408" y="72" type="curve"/>
    </contour>
  </outline>
</glyph>
<glyph name="dollar" format="1">
  <advance width="591"/>
  <unicode hex="0024"/>
  <outline>
    <contour>
      <point x="341" y="871" type="line"/>
      <point x="354" y="894"/>
      <point x="380" y="912"/>
      <point x="411" y="924" type="curve" smooth="yes"/>
      <point x="442" y="936"/>
      <point x="478" y="943"/>
      <point x="511" y="943" type="curve" smooth="yes"/>
      <point x="547" y="943"/>
      <point x="581" y="936"/>
      <point x="602" y="918" type="curve" smooth="yes"/>
      <point x="622" y="900"/>
      <point x="631" y="872"/>
      <point x="618" y="835" type="curve"/>
      <point x="612" y="829"/>
      <point x="608" y="824"/>
      <point x="607" y="819" type="curve"/>
      <point x="605" y="814"/>
      <point x="603" y="809"/>
      <point x="600" y="804" type="curve" smooth="yes"/>
      <point x="597" y="799"/>
      <point x="595" y="793"/>
      <point x="592" y="788" type="curve"/>
      <point x="589" y="782"/>
      <point x="586" y="776"/>
      <point x="583" y="770" type="curve"/>
      <point x="622" y="759"/>
      <point x="644" y="743"/>
      <point x="668" y="726" type="curve"/>
      <point x="667" y="727" type="line"/>
      <point x="677" y="720" type="line"/>
      <point x="690" y="708"/>
      <point x="699" y="698"/>
      <point x="704" y="691" type="curve"/>
      <point x="714" y="675"/>
      <point x="711" y="664"/>
      <point x="700" y="654" type="curve"/>
      <point x="694" y="649"/>
      <point x="687" y="643"/>
      <point x="680" y="638" type="curve"/>
      <point x="669" y="631"/>
      <point x="656" y="623"/>
      <point x="648" y="604" type="curve"/>
      <point x="651" y="587"/>
      <point x="654" y="562"/>
      <point x="644" y="541" type="curve" smooth="yes"/>
      <point x="634" y="520"/>
      <point x="612" y="500"/>
      <point x="567" y="492" type="curve" smooth="yes"/>
      <point x="552" y="489"/>
      <point x="536" y="488"/>
      <point x="519" y="488" type="curve" smooth="yes"/>
      <point x="485" y="487"/>
      <point x="435" y="487"/>
      <point x="393" y="479" type="curve"/>
      <point x="372" y="474"/>
      <point x="361" y="465"/>
      <point x="361" y="452" type="curve"/>
      <point x="365" y="444"/>
      <point x="387" y="428"/>
      <point x="412" y="412" type="curve" smooth="yes"/>
      <point x="441" y="392"/>
      <point x="477" y="370"/>
      <point x="505" y="340" type="curve" smooth="yes"/>
      <point x="532" y="310"/>
      <point x="552" y="273"/>
      <point x="552" y="228" type="curve" smooth="yes"/>
      <point x="552" y="216"/>
      <point x="551" y="203"/>
      <point x="547" y="188" type="curve" smooth="yes"/>
      <point x="538" y="153"/>
      <point x="518" y="113"/>
      <point x="486" y="74" type="curve" smooth="yes"/>
      <point x="454" y="35"/>
      <point x="409" y="1"/>
      <point x="349" y="-22" type="curve"/>
      <point x="349" y="-23" type="line"/>
      <point x="346" y="-26"/>
      <point x="344" y="-29"/>
      <point x="343" y="-31" type="curve"/>
      <point x="334" y="-44" type="line"/>
      <point x="322" y="-67" type="line"/>
      <point x="323" y="-66" type="line"/>
      <point x="318" y="-74"/>
      <point x="314" y="-82"/>
      <point x="310" y="-90" type="curve"/>
      <point x="305" y="-99"/>
      <point x="299" y="-108"/>
      <point x="292" y="-118" type="curve"/>
      <point x="285" y="-145"/>
      <point x="271" y="-169"/>
      <point x="251" y="-186" type="curve" smooth="yes"/>
      <point x="231" y="-203"/>
      <point x="207" y="-215"/>
      <point x="183" y="-215" type="curve" smooth="yes"/>
      <point x="156" y="-215"/>
      <point x="130" y="-201"/>
      <point x="109" y="-168" type="curve"/>
      <point x="109" y="-46" type="line"/>
      <point x="60" y="-37"/>
      <point x="24" y="-13"/>
      <point x="0" y="16" type="curve" smooth="yes"/>
      <point x="-24" y="45"/>
      <point x="-35" y="81"/>
      <point x="-35" y="114" type="curve" smooth="yes"/>
      <point x="-35" y="132"/>
      <point x="-31" y="151"/>
      <point x="-23" y="170" type="curve"/>
      <point x="5" y="210"/>
      <point x="52" y="215"/>
      <point x="103" y="215" type="curve" smooth="yes"/>
      <point x="132" y="215" type="line" smooth="yes"/>
      <point x="164" y="214"/>
      <point x="194" y="214"/>
      <point x="214" y="221" type="curve"/>
      <point x="229" y="224"/>
      <point x="242" y="227"/>
      <point x="252" y="230" type="curve"/>
      <point x="261" y="232"/>
      <point x="269" y="234"/>
      <point x="276" y="235" type="curve"/>
      <point x="261" y="240"/>
      <point x="248" y="247"/>
      <point x="236" y="254" type="curve"/>
      <point x="199" y="273"/>
      <point x="155" y="305"/>
      <point x="123" y="349" type="curve" smooth="yes"/>
      <point x="91" y="393"/>
      <point x="68" y="449"/>
      <point x="75" y="517" type="curve" smooth="yes"/>
      <point x="83" y="577"/>
      <point x="106" y="625"/>
      <point x="138" y="662" type="curve" smooth="yes"/>
      <point x="169" y="698"/>
      <point x="207" y="725"/>
      <point x="243" y="741" type="curve"/>
      <point x="258" y="747"/>
      <point x="271" y="753"/>
      <point x="284" y="758" type="curve" smooth="yes"/>
      <point x="297" y="763"/>
      <point x="309" y="768"/>
      <point x="322" y="771" type="curve"/>
      <point x="323" y="788"/>
      <point x="324" y="796"/>
      <point x="324" y="804" type="curve" smooth="yes"/>
      <point x="324" y="810"/>
      <point x="324" y="815"/>
      <point x="324" y="818" type="curve" smooth="yes"/>
      <point x="324" y="825"/>
      <point x="326" y="831"/>
      <point x="328" y="837" type="curve" smooth="yes"/>
      <point x="329" y="840"/>
      <point x="330" y="844"/>
      <point x="332" y="849" type="curve"/>
      <point x="332" y="848" type="line"/>
      <point x="339" y="867" type="line"/>
    </contour>
    <contour>
      <point x="370" y="835" type="line"/>
      <point x="363" y="820"/>
      <point x="364" y="819"/>
      <point x="364" y="804" type="curve" smooth="yes"/>
      <point x="364" y="799"/>
      <point x="364" y="790"/>
      <point x="363" y="778" type="curve" smooth="yes"/>
      <point x="362" y="765"/>
      <point x="362" y="753"/>
      <point x="361" y="740" type="curve"/>
      <point x="326" y="731"/>
      <point x="292" y="720"/>
      <point x="259" y="705" type="curve" smooth="yes"/>
      <point x="227" y="690"/>
      <point x="195" y="669"/>
      <point x="168" y="638" type="curve" smooth="yes"/>
      <point x="140" y="606"/>
      <point x="120" y="566"/>
      <point x="115" y="513" type="curve" smooth="yes"/>
      <point x="108" y="454"/>
      <point x="128" y="406"/>
      <point x="157" y="369" type="curve" smooth="yes"/>
      <point x="186" y="332"/>
      <point x="225" y="304"/>
      <point x="258" y="288" type="curve"/>
      <point x="263" y="285"/>
      <point x="269" y="282"/>
      <point x="276" y="280" type="curve"/>
      <point x="283" y="277"/>
      <point x="289" y="275"/>
      <point x="295" y="272" type="curve"/>
      <point x="294" y="272" type="line"/>
      <point x="317" y="264"/>
      <point x="336" y="258"/>
      <point x="336" y="238" type="curve" smooth="yes"/>
      <point x="336" y="229"/>
      <point x="328" y="220"/>
      <point x="312" y="212" type="curve" smooth="yes"/>
      <point x="295" y="203"/>
      <point x="266" y="194"/>
      <point x="225" y="183" type="curve"/>
      <point x="226" y="183" type="line"/>
      <point x="199" y="174"/>
      <point x="166" y="174"/>
      <point x="131" y="175" type="curve" smooth="yes"/>
      <point x="103" y="175" type="line" smooth="yes"/>
      <point x="64" y="175"/>
      <point x="29" y="171"/>
      <point x="10" y="147" type="curve"/>
      <point x="7" y="137"/>
      <point x="5" y="126"/>
      <point x="5" y="114" type="curve" smooth="yes"/>
      <point x="5" y="87"/>
      <point x="17" y="60"/>
      <point x="41" y="37" type="curve" smooth="yes"/>
      <point x="65" y="13"/>
      <point x="101" y="-5"/>
      <point x="149" y="-10" type="curve"/>
      <point x="149" y="-150" type="line"/>
      <point x="150" y="-157" type="line"/>
      <point x="160" y="-169"/>
      <point x="171" y="-175"/>
      <point x="183" y="-175" type="curve" smooth="yes"/>
      <point x="199" y="-175"/>
      <point x="216" y="-166"/>
      <point x="230" y="-153" type="curve" smooth="yes"/>
      <point x="244" y="-140"/>
      <point x="253" y="-122"/>
      <point x="257" y="-102" type="curve"/>
      <point x="269" y="-85"/>
      <point x="278" y="-67"/>
      <point x="287" y="-48" type="curve"/>
      <point x="300" y="-24" type="line"/>
      <point x="299" y="-25" type="line"/>
      <point x="302" y="-21"/>
      <point x="304" y="-17"/>
      <point x="307" y="-13" type="curve"/>
      <point x="310" y="-8"/>
      <point x="312" y="-4"/>
      <point x="315" y="-1" type="curve"/>
      <point x="323" y="11" type="line"/>
      <point x="380" y="32"/>
      <point x="424" y="64"/>
      <point x="454" y="98" type="curve" smooth="yes"/>
      <point x="484" y="132"/>
      <point x="501" y="167"/>
      <point x="509" y="198" type="curve" smooth="yes"/>
      <point x="511" y="207"/>
      <point x="512" y="217"/>
      <point x="512" y="228" type="curve" smooth="yes"/>
      <point x="512" y="263"/>
      <point x="494" y="292"/>
      <point x="470" y="316" type="curve" smooth="yes"/>
      <point x="446" y="340"/>
      <point x="415" y="361"/>
      <point x="390" y="378" type="curve" smooth="yes"/>
      <point x="355" y="402"/>
      <point x="325" y="421"/>
      <point x="321" y="445" type="curve" smooth="yes"/>
      <point x="314" y="484"/>
      <point x="330" y="503"/>
      <point x="357" y="514" type="curve" smooth="yes"/>
      <point x="384" y="525"/>
      <point x="423" y="526"/>
      <point x="466" y="526" type="curve"/>
      <point x="481" y="527"/>
      <point x="497" y="527"/>
      <point x="514" y="528" type="curve"/>
      <point x="530" y="528"/>
      <point x="546" y="529"/>
      <point x="561" y="532" type="curve"/>
      <point x="560" y="532" type="line"/>
      <point x="588" y="537"/>
      <point x="601" y="550"/>
      <point x="606" y="565" type="curve"/>
      <point x="609" y="572"/>
      <point x="610" y="580"/>
      <point x="609" y="587" type="curve" smooth="yes"/>
      <point x="608" y="594"/>
      <point x="607" y="601"/>
      <point x="606" y="606" type="curve"/>
      <point x="618" y="639"/>
      <point x="641" y="659"/>
      <point x="656" y="670" type="curve"/>
      <point x="661" y="675"/>
      <point x="660" y="680"/>
      <point x="655" y="686" type="curve"/>
      <point x="644" y="693" type="line"/>
      <point x="621" y="710"/>
      <point x="602" y="725"/>
      <point x="577" y="732" type="curve"/>
      <point x="576" y="732"/>
      <point x="574" y="732"/>
      <point x="572" y="733" type="curve"/>
      <point x="569" y="733"/>
      <point x="567" y="733"/>
      <point x="566" y="733" type="curve"/>
      <point x="502" y="743" type="line"/>
      <point x="526" y="766"/>
      <point x="540" y="781"/>
      <point x="549" y="793" type="curve"/>
      <point x="553" y="799"/>
      <point x="556" y="804"/>
      <point x="558" y="808" type="curve" smooth="yes"/>
      <point x="560" y="812"/>
      <point x="562" y="816"/>
      <point x="564" y="820" type="curve"/>
      <point x="567" y="827"/>
      <point x="570" y="833"/>
      <point x="572" y="839" type="curve"/>
      <point x="573" y="844"/>
      <point x="577" y="850"/>
      <point x="582" y="855" type="curve"/>
      <point x="591" y="888"/>
      <point x="554" y="903"/>
      <point x="511" y="903" type="curve" smooth="yes"/>
      <point x="484" y="903"/>
      <point x="455" y="898"/>
      <point x="430" y="890" type="curve"/>
      <point x="405" y="881"/>
      <point x="384" y="867"/>
      <point x="375" y="851" type="curve"/>
      <point x="377" y="854" type="line"/>
    </contour>
  </outline>
</glyph>
<glyph name="percent" format="1">
  <advance width="976"/>
  <unicode hex="0025"/>
  <outline>
    <contour>
      <point x="433" y="101"/>
      <point x="432" y="105"/>
      <point x="432" y="109" type="curve"/>
      <point x="431" y="112"/>
      <point x="431" y="116"/>
      <point x="430" y="119" type="curve"/>
      <point x="387" y="68"/>
      <point x="343" y="18"/>
      <point x="295" y="-30" type="curve"/>
      <point x="276" y="-46" type="line"/>
      <point x="273" y="-49"/>
      <point x="271" y="-53"/>
      <point x="268" y="-57" type="curve"/>
      <point x="265" y="-62"/>
      <point x="262" y="-65"/>
      <point x="259" y="-68" type="curve"/>
      <point x="231" y="-89"/>
      <point x="194" y="-103"/>
      <point x="162" y="-103" type="curve" smooth="yes"/>
      <point x="135" y="-103"/>
      <point x="109" y="-92"/>
      <point x="94" y="-71" type="curve"/>
      <point x="73" y="-63"/>
      <point x="66" y="-45"/>
      <point x="66" y="-21" type="curve" smooth="yes"/>
      <point x="66" y="-1"/>
      <point x="75" y="25"/>
      <point x="90" y="53" type="curve" smooth="yes"/>
      <point x="105" y="80"/>
      <point x="126" y="108"/>
      <point x="149" y="132" type="curve"/>
      <point x="160" y="141"/>
      <point x="164" y="147"/>
      <point x="169" y="155" type="curve"/>
      <point x="169" y="154" type="line"/>
      <point x="174" y="161"/>
      <point x="181" y="171"/>
      <point x="191" y="183" type="curve" smooth="yes"/>
      <point x="200" y="194"/>
      <point x="217" y="212"/>
      <point x="241" y="235" type="curve" smooth="yes"/>
      <point x="312" y="306" type="line"/>
      <point x="297" y="306" type="line" smooth="yes"/>
      <point x="258" y="306"/>
      <point x="220" y="317"/>
      <point x="189" y="338" type="curve"/>
      <point x="157" y="358"/>
      <point x="132" y="389"/>
      <point x="123" y="429" type="curve" smooth="yes"/>
      <point x="116" y="456"/>
      <point x="113" y="482"/>
      <point x="113" y="505" type="curve" smooth="yes"/>
      <point x="113" y="572"/>
      <point x="139" y="621"/>
      <point x="176" y="656" type="curve" smooth="yes"/>
      <point x="213" y="691"/>
      <point x="263" y="709"/>
      <point x="312" y="716" type="curve"/>
      <point x="318" y="716" type="line"/>
      <point x="319" y="717" type="line"/>
      <point x="318" y="717" type="line"/>
      <point x="350" y="730"/>
      <point x="383" y="739"/>
      <point x="416" y="739" type="curve" smooth="yes"/>
      <point x="461" y="739"/>
      <point x="515" y="715"/>
      <point x="538" y="687" type="curve"/>
      <point x="549" y="672"/>
      <point x="555" y="657"/>
      <point x="554" y="642" type="curve"/>
      <point x="561" y="633"/>
      <point x="567" y="622"/>
      <point x="572" y="611" type="curve"/>
      <point x="595" y="641" type="line"/>
      <point x="598" y="648"/>
      <point x="601" y="652"/>
      <point x="602" y="652" type="curve" smooth="yes"/>
      <point x="603" y="652"/>
      <point x="605" y="653"/>
      <point x="607" y="656" type="curve" smooth="yes"/>
      <point x="622" y="679"/>
      <point x="637" y="699"/>
      <point x="658" y="722" type="curve"/>
      <point x="657" y="724" type="line"/>
      <point x="650" y="733"/>
      <point x="645" y="746"/>
      <point x="648" y="759" type="curve"/>
      <point x="661" y="791"/>
      <point x="688" y="816"/>
      <point x="720" y="833" type="curve" smooth="yes"/>
      <point x="752" y="849"/>
      <point x="789" y="857"/>
      <point x="824" y="857" type="curve" smooth="yes"/>
      <point x="863" y="857"/>
      <point x="900" y="847"/>
      <point x="925" y="827" type="curve" smooth="yes"/>
      <point x="949" y="807"/>
      <point x="963" y="776"/>
      <point x="956" y="736" type="curve"/>
      <point x="933" y="683"/>
      <point x="898" y="631"/>
      <point x="858" y="583" type="curve" smooth="yes"/>
      <point x="818" y="534"/>
      <point x="772" y="488"/>
      <point x="732" y="448" type="curve" smooth="yes"/>
      <point x="705" y="421" type="line"/>
      <point x="752" y="418"/>
      <point x="804" y="401"/>
      <point x="864" y="357" type="curve" smooth="yes"/>
      <point x="913" y="320"/>
      <point x="932" y="271"/>
      <point x="932" y="222" type="curve" smooth="yes"/>
      <point x="932" y="183"/>
      <point x="920" y="144"/>
      <point x="901" y="109" type="curve" smooth="yes"/>
      <point x="882" y="74"/>
      <point x="857" y="43"/>
      <point x="830" y="22" type="curve" smooth="yes"/>
      <point x="783" y="-14"/>
      <point x="716" y="-27"/>
      <point x="663" y="-35" type="curve"/>
      <point x="644" y="-39"/>
      <point x="636" y="-38"/>
      <point x="625" y="-35" type="curve"/>
      <point x="624" y="-35"/>
      <point x="621" y="-35"/>
      <point x="618" y="-34" type="curve" smooth="yes"/>
      <point x="615" y="-33"/>
      <point x="612" y="-33"/>
      <point x="611" y="-33" type="curve"/>
      <point x="567" y="-25"/>
      <point x="531" y="-15"/>
      <point x="501" y="4" type="curve" smooth="yes"/>
      <point x="471" y="23"/>
      <point x="447" y="51"/>
      <point x="434" y="98" type="curve"/>
    </contour>
    <contour>
      <point x="478" y="160" type="line"/>
      <point x="473" y="144"/>
      <point x="469" y="125"/>
      <point x="472" y="110" type="curve"/>
      <point x="495" y="45"/>
      <point x="549" y="20"/>
      <point x="617" y="7" type="curve"/>
      <point x="620" y="7"/>
      <point x="623" y="7"/>
      <point x="626" y="6" type="curve" smooth="yes"/>
      <point x="629" y="5"/>
      <point x="631" y="5"/>
      <point x="633" y="5" type="curve"/>
      <point x="640" y="4"/>
      <point x="642" y="2"/>
      <point x="657" y="5" type="curve"/>
      <point x="706" y="13"/>
      <point x="767" y="23"/>
      <point x="806" y="54" type="curve"/>
      <point x="805" y="53" type="line"/>
      <point x="828" y="72"/>
      <point x="849" y="98"/>
      <point x="865" y="127" type="curve" smooth="yes"/>
      <point x="881" y="156"/>
      <point x="892" y="190"/>
      <point x="892" y="222" type="curve" smooth="yes"/>
      <point x="892" y="259"/>
      <point x="876" y="296"/>
      <point x="840" y="325" type="curve"/>
      <point x="789" y="362"/>
      <point x="738" y="381"/>
      <point x="699" y="381" type="curve" smooth="yes"/>
      <point x="684" y="381"/>
      <point x="668" y="378"/>
      <point x="649" y="371" type="curve"/>
      <point x="630" y="401" type="line"/>
      <point x="646" y="417" type="line"/>
      <point x="704" y="476" type="line" smooth="yes"/>
      <point x="745" y="517"/>
      <point x="788" y="559"/>
      <point x="825" y="604" type="curve" smooth="yes"/>
      <point x="862" y="648"/>
      <point x="895" y="697"/>
      <point x="918" y="750" type="curve"/>
      <point x="922" y="794"/>
      <point x="876" y="817"/>
      <point x="824" y="817" type="curve" smooth="yes"/>
      <point x="769" y="817"/>
      <point x="710" y="794"/>
      <point x="687" y="749" type="curve"/>
      <point x="688" y="749"/>
      <point x="690" y="748"/>
      <point x="691" y="746" type="curve"/>
      <point x="698" y="735"/>
      <point x="706" y="723"/>
      <point x="698" y="707" type="curve"/>
      <point x="674" y="682"/>
      <point x="656" y="656"/>
      <point x="639" y="632" type="curve"/>
      <point x="636" y="629"/>
      <point x="634" y="626"/>
      <point x="631" y="622" type="curve"/>
      <point x="630" y="620"/>
      <point x="628" y="618"/>
      <point x="627" y="617" type="curve"/>
      <point x="544" y="511" type="line"/>
      <point x="544" y="525"/>
      <point x="544" y="536"/>
      <point x="544" y="544" type="curve" smooth="yes"/>
      <point x="544" y="551"/>
      <point x="544" y="557"/>
      <point x="544" y="562" type="curve"/>
      <point x="543" y="566"/>
      <point x="543" y="569"/>
      <point x="543" y="570" type="curve"/>
      <point x="542" y="571"/>
      <point x="542" y="573"/>
      <point x="542" y="574" type="curve"/>
      <point x="538" y="595"/>
      <point x="527" y="612"/>
      <point x="511" y="631" type="curve"/>
      <point x="515" y="652"/>
      <point x="503" y="673"/>
      <point x="470" y="688" type="curve"/>
      <point x="452" y="695"/>
      <point x="434" y="699"/>
      <point x="416" y="699" type="curve" smooth="yes"/>
      <point x="388" y="699"/>
      <point x="358" y="690"/>
      <point x="327" y="677" type="curve"/>
      <point x="326" y="677"/>
      <point x="324" y="677"/>
      <point x="323" y="677" type="curve"/>
      <point x="321" y="676"/>
      <point x="320" y="676"/>
      <point x="319" y="676" type="curve" smooth="yes"/>
      <point x="318" y="676" type="line"/>
      <point x="278" y="669"/>
      <point x="237" y="653"/>
      <point x="206" y="625" type="curve" smooth="yes"/>
      <point x="174" y="597"/>
      <point x="153" y="557"/>
      <point x="153" y="505" type="curve" smooth="yes"/>
      <point x="153" y="482"/>
      <point x="156" y="461"/>
      <point x="161" y="438" type="curve"/>
      <point x="161" y="439" type="line"/>
      <point x="177" y="378"/>
      <point x="237" y="346"/>
      <point x="297" y="346" type="curve" smooth="yes"/>
      <point x="324" y="346"/>
      <point x="350" y="353"/>
      <point x="375" y="366" type="curve"/>
      <point x="397" y="335" type="line"/>
      <point x="269" y="207" type="line" smooth="yes"/>
      <point x="258" y="196"/>
      <point x="248" y="186"/>
      <point x="241" y="179" type="curve" smooth="yes"/>
      <point x="225" y="163"/>
      <point x="215" y="152"/>
      <point x="210" y="144" type="curve"/>
      <point x="207" y="140"/>
      <point x="205" y="136"/>
      <point x="203" y="133" type="curve" smooth="yes"/>
      <point x="196" y="122"/>
      <point x="189" y="115"/>
      <point x="173" y="100" type="curve"/>
      <point x="134" y="60"/>
      <point x="106" y="11"/>
      <point x="106" y="-21" type="curve" smooth="yes"/>
      <point x="106" y="-30"/>
      <point x="112" y="-35"/>
      <point x="123" y="-38" type="curve"/>
      <point x="132" y="-57"/>
      <point x="146" y="-63"/>
      <point x="162" y="-63" type="curve" smooth="yes"/>
      <point x="185" y="-63"/>
      <point x="213" y="-52"/>
      <point x="234" y="-37" type="curve"/>
      <point x="236" y="-34"/>
      <point x="238" y="-31"/>
      <point x="241" y="-27" type="curve"/>
      <point x="243" y="-24"/>
      <point x="245" y="-21"/>
      <point x="247" y="-19" type="curve"/>
      <point x="269" y="0" type="line"/>
      <point x="300" y="32"/>
      <point x="336" y="72"/>
      <point x="374" y="116" type="curve" smooth="yes"/>
      <point x="412" y="159"/>
      <point x="451" y="205"/>
      <point x="487" y="249" type="curve"/>
      <point x="487" y="249"/>
      <point x="487" y="246"/>
      <point x="487" y="239" type="curve" smooth="yes"/>
      <point x="487" y="232"/>
      <point x="487" y="225"/>
      <point x="487" y="218" type="curve"/>
      <point x="486" y="210"/>
      <point x="486" y="203"/>
      <point x="486" y="196" type="curve" smooth="yes"/>
      <point x="486" y="189"/>
      <point x="486" y="186"/>
      <point x="486" y="186" type="curve"/>
      <point x="481" y="172" type="line"/>
    </contour>
    <contour>
      <point x="794" y="216"/>
      <point x="798" y="189"/>
      <point x="787" y="160" type="curve" smooth="yes"/>
      <point x="775" y="131"/>
      <point x="748" y="98"/>
      <point x="718" y="77" type="curve" smooth="yes"/>
      <point x="688" y="56"/>
      <point x="654" y="46"/>
      <point x="631" y="62" type="curve"/>
      <point x="612" y="74"/>
      <point x="605" y="91"/>
      <point x="605" y="107" type="curve" smooth="yes"/>
      <point x="605" y="126"/>
      <point x="617" y="143"/>
      <point x="632" y="159" type="curve" smooth="yes"/>
      <point x="647" y="175"/>
      <point x="665" y="189"/>
      <point x="677" y="198" type="curve" smooth="yes"/>
      <point x="685" y="204" type="line"/>
      <point x="692" y="209" type="line"/>
      <point x="703" y="217" type="line"/>
      <point x="723" y="217"/>
      <point x="742" y="220"/>
      <point x="762" y="227" type="curve"/>
    </contour>
    <contour>
      <point x="420" y="560" type="line"/>
      <point x="420" y="516"/>
      <point x="402" y="482"/>
      <point x="375" y="459" type="curve" smooth="yes"/>
      <point x="348" y="435"/>
      <point x="314" y="424"/>
      <point x="279" y="424" type="curve"/>
      <point x="262" y="447"/>
      <point x="263" y="467"/>
      <point x="266" y="487" type="curve"/>
      <point x="271" y="494"/>
      <point x="275" y="502"/>
      <point x="279" y="510" type="curve" smooth="yes"/>
      <point x="287" y="526"/>
      <point x="296" y="540"/>
      <point x="310" y="547" type="curve"/>
      <point x="317" y="550"/>
      <point x="325" y="551"/>
      <point x="336" y="549" type="curve"/>
    </contour>
    <contour>
      <point x="748" y="179" type="line"/>
      <point x="748" y="180"/>
      <point x="748" y="181"/>
      <point x="749" y="181" type="curve"/>
      <point x="748" y="181" type="line"/>
      <point x="747" y="180" type="line"/>
      <point x="748" y="181" type="line"/>
      <point x="747" y="181" type="line" smooth="yes"/>
      <point x="744" y="181"/>
      <point x="740" y="180"/>
      <point x="733" y="179" type="curve" smooth="yes"/>
      <point x="726" y="178"/>
      <point x="723" y="177"/>
      <point x="716" y="177" type="curve"/>
      <point x="712" y="174" type="line"/>
      <point x="703" y="168" type="line"/>
      <point x="698" y="164" type="line" smooth="yes"/>
      <point x="693" y="160"/>
      <point x="688" y="156"/>
      <point x="682" y="151" type="curve"/>
      <point x="670" y="142"/>
      <point x="658" y="131"/>
      <point x="651" y="121" type="curve"/>
      <point x="647" y="116"/>
      <point x="645" y="111"/>
      <point x="645" y="107" type="curve" smooth="yes"/>
      <point x="645" y="99"/>
      <point x="659" y="89"/>
      <point x="672" y="93" type="curve"/>
      <point x="685" y="96"/>
      <point x="700" y="107"/>
      <point x="713" y="123" type="curve"/>
      <point x="720" y="131"/>
      <point x="726" y="139"/>
      <point x="731" y="148" type="curve"/>
      <point x="729" y="148" type="line"/>
      <point x="746" y="176" type="line"/>
      <point x="745" y="178" type="line"/>
      <point x="747" y="180" type="line"/>
      <point x="747" y="179" type="line"/>
    </contour>
    <contour>
      <point x="378" y="513"/>
      <point x="377" y="514"/>
      <point x="374" y="515" type="curve" smooth="yes"/>
      <point x="371" y="516"/>
      <point x="367" y="517"/>
      <point x="364" y="518" type="curve"/>
      <point x="360" y="519"/>
      <point x="356" y="521"/>
      <point x="353" y="522" type="curve" smooth="yes"/>
      <point x="350" y="523"/>
      <point x="348" y="523"/>
      <point x="347" y="523" type="curve"/>
      <point x="331" y="518"/>
      <point x="324" y="507"/>
      <point x="323" y="496" type="curve" smooth="yes"/>
      <point x="322" y="485"/>
      <point x="325" y="474"/>
      <point x="326" y="469" type="curve"/>
      <point x="346" y="476"/>
      <point x="370" y="498"/>
      <point x="379" y="514" type="curve"/>
    </contour>
  </outline>
</glyph>
<glyph name="ampersand" format="1">
  <advance width="712"/>
  <unicode hex="0026"/>
  <outline>
    <contour>
      <point x="643" y="20" type="line"/>
      <point x="652" y="22"/>
      <point x="659" y="23"/>
      <point x="665" y="23" type="curve" smooth="yes"/>
      <point x="708" y="23"/>
      <point x="718" y="6"/>
      <point x="708" y="-17" type="curve" smooth="yes"/>
      <point x="698" y="-41"/>
      <point x="668" y="-69"/>
      <point x="633" y="-92" type="curve" smooth="yes"/>
      <point x="597" y="-115"/>
      <point x="555" y="-130"/>
      <point x="523" y="-129" type="curve"/>
      <point x="486" y="-121"/>
      <point x="467" y="-94"/>
      <point x="451" y="-70" type="curve" smooth="yes"/>
      <point x="442" y="-56" type="line"/>
      <point x="407" y="-77"/>
      <point x="368" y="-97"/>
      <point x="328" y="-110" type="curve" smooth="yes"/>
      <point x="287" y="-123"/>
      <point x="247" y="-129"/>
      <point x="212" y="-124" type="curve" smooth="yes"/>
      <point x="140" y="-113"/>
      <point x="86" y="-94"/>
      <point x="50" y="-62" type="curve" smooth="yes"/>
      <point x="13" y="-30"/>
      <point x="-6" y="15"/>
      <point x="-6" y="78" type="curve" smooth="yes"/>
      <point x="-6" y="107"/>
      <point x="-1" y="144"/>
      <point x="9" y="187" type="curve"/>
      <point x="26" y="234"/>
      <point x="60" y="277"/>
      <point x="98" y="317" type="curve" smooth="yes"/>
      <point x="136" y="356"/>
      <point x="178" y="390"/>
      <point x="217" y="419" type="curve"/>
      <point x="214" y="439"/>
      <point x="213" y="460"/>
      <point x="213" y="480" type="curve" smooth="yes"/>
      <point x="213" y="553"/>
      <point x="234" y="618"/>
      <point x="264" y="670" type="curve" smooth="yes"/>
      <point x="294" y="721"/>
      <point x="333" y="758"/>
      <point x="372" y="781" type="curve"/>
      <point x="371" y="780" type="line"/>
      <point x="407" y="804"/>
      <point x="462" y="821"/>
      <point x="518" y="821" type="curve" smooth="yes"/>
      <point x="562" y="821"/>
      <point x="606" y="811"/>
      <point x="639" y="788" type="curve" smooth="yes"/>
      <point x="671" y="765"/>
      <point x="693" y="727"/>
      <point x="693" y="674" type="curve" smooth="yes"/>
      <point x="693" y="659"/>
      <point x="691" y="642"/>
      <point x="686" y="622" type="curve"/>
      <point x="687" y="623" type="line"/>
      <point x="679" y="590"/>
      <point x="656" y="546"/>
      <point x="621" y="501" type="curve" smooth="yes"/>
      <point x="585" y="456"/>
      <point x="538" y="407"/>
      <point x="483" y="366" type="curve"/>
      <point x="487" y="325"/>
      <point x="504" y="288"/>
      <point x="521" y="249" type="curve" smooth="yes"/>
      <point x="524" y="242" type="line"/>
      <point x="529" y="249"/>
      <point x="534" y="255"/>
      <point x="541" y="262" type="curve" smooth="yes"/>
      <point x="544" y="265"/>
      <point x="553" y="272"/>
      <point x="565" y="278" type="curve" smooth="yes"/>
      <point x="577" y="284"/>
      <point x="593" y="286"/>
      <point x="606" y="281" type="curve"/>
      <point x="606" y="281"/>
      <point x="606" y="281"/>
      <point x="607" y="282" type="curve"/>
      <point x="606" y="281" type="line"/>
      <point x="606" y="280"/>
      <point x="607" y="280"/>
      <point x="608" y="280" type="curve"/>
      <point x="606" y="280" type="line" smooth="yes"/>
      <point x="606" y="280"/>
      <point x="606" y="278"/>
      <point x="606" y="274" type="curve"/>
      <point x="610" y="297"/>
      <point x="637" y="306"/>
      <point x="664" y="306" type="curve" smooth="yes"/>
      <point x="697" y="306"/>
      <point x="729" y="292"/>
      <point x="730" y="264" type="curve" smooth="yes"/>
      <point x="731" y="245"/>
      <point x="721" y="222"/>
      <point x="709" y="203" type="curve"/>
      <point x="686" y="147"/>
      <point x="663" y="101"/>
      <point x="624" y="53" type="curve"/>
      <point x="632" y="42"/>
      <point x="637" y="33"/>
      <point x="642" y="24" type="curve"/>
      <point x="641" y="25" type="line"/>
    </contour>
    <contour>
      <point x="616" y="-14" type="line"/>
      <point x="612" y="-7"/>
      <point x="609" y="0"/>
      <point x="606" y="5" type="curve" smooth="yes"/>
      <point x="599" y="17"/>
      <point x="593" y="30"/>
      <point x="574" y="57" type="curve"/>
      <point x="588" y="71" type="line"/>
      <point x="627" y="118"/>
      <point x="650" y="165"/>
      <point x="673" y="221" type="curve"/>
      <point x="682" y="236"/>
      <point x="691" y="253"/>
      <point x="690" y="261" type="curve"/>
      <point x="690" y="262"/>
      <point x="687" y="264"/>
      <point x="682" y="265" type="curve" smooth="yes"/>
      <point x="677" y="266"/>
      <point x="671" y="266"/>
      <point x="664" y="266" type="curve" smooth="yes"/>
      <point x="646" y="266" type="line"/>
      <point x="646" y="268" type="line"/>
      <point x="643" y="260"/>
      <point x="632" y="249"/>
      <point x="621" y="245" type="curve"/>
      <point x="621" y="245"/>
      <point x="615" y="240"/>
      <point x="610" y="239" type="curve"/>
      <point x="605" y="242"/>
      <point x="600" y="243"/>
      <point x="596" y="243" type="curve" smooth="yes"/>
      <point x="587" y="243"/>
      <point x="579" y="241"/>
      <point x="574" y="238" type="curve"/>
      <point x="571" y="236"/>
      <point x="570" y="235"/>
      <point x="569" y="234" type="curve" smooth="yes"/>
      <point x="566" y="231"/>
      <point x="564" y="228"/>
      <point x="561" y="224" type="curve"/>
      <point x="558" y="219"/>
      <point x="554" y="215"/>
      <point x="551" y="211" type="curve"/>
      <point x="552" y="211" type="line"/>
      <point x="545" y="202"/>
      <point x="531" y="185"/>
      <point x="512" y="166" type="curve"/>
      <point x="484" y="235" type="line"/>
      <point x="485" y="234" type="line"/>
      <point x="465" y="279"/>
      <point x="446" y="325"/>
      <point x="443" y="385" type="curve"/>
      <point x="503" y="426"/>
      <point x="551" y="471"/>
      <point x="585" y="515" type="curve" smooth="yes"/>
      <point x="619" y="558"/>
      <point x="640" y="599"/>
      <point x="647" y="631" type="curve" smooth="yes"/>
      <point x="651" y="648"/>
      <point x="653" y="662"/>
      <point x="653" y="674" type="curve" smooth="yes"/>
      <point x="653" y="713"/>
      <point x="636" y="740"/>
      <point x="611" y="757" type="curve" smooth="yes"/>
      <point x="586" y="773"/>
      <point x="551" y="781"/>
      <point x="518" y="781" type="curve" smooth="yes"/>
      <point x="469" y="781"/>
      <point x="421" y="767"/>
      <point x="390" y="746" type="curve"/>
      <point x="357" y="727"/>
      <point x="323" y="693"/>
      <point x="297" y="648" type="curve" smooth="yes"/>
      <point x="271" y="603"/>
      <point x="253" y="545"/>
      <point x="253" y="480" type="curve" smooth="yes"/>
      <point x="253" y="459"/>
      <point x="256" y="432"/>
      <point x="261" y="400" type="curve"/>
      <point x="242" y="388" type="line"/>
      <point x="207" y="361"/>
      <point x="167" y="329"/>
      <point x="131" y="292" type="curve" smooth="yes"/>
      <point x="95" y="255"/>
      <point x="63" y="214"/>
      <point x="46" y="169" type="curve"/>
      <point x="46" y="171" type="line"/>
      <point x="38" y="137"/>
      <point x="34" y="106"/>
      <point x="34" y="78" type="curve" smooth="yes"/>
      <point x="34" y="-21"/>
      <point x="99" y="-65"/>
      <point x="218" y="-84" type="curve" smooth="yes"/>
      <point x="250" y="-88"/>
      <point x="291" y="-80"/>
      <point x="332" y="-65" type="curve" smooth="yes"/>
      <point x="372" y="-50"/>
      <point x="413" y="-28"/>
      <point x="446" y="-5" type="curve"/>
      <point x="469" y="-24"/>
      <point x="477" y="-36"/>
      <point x="485" y="-48" type="curve"/>
      <point x="496" y="-67"/>
      <point x="511" y="-85"/>
      <point x="531" y="-89" type="curve"/>
      <point x="559" y="-93"/>
      <point x="592" y="-80"/>
      <point x="618" y="-63" type="curve" smooth="yes"/>
      <point x="644" y="-46"/>
      <point x="663" y="-24"/>
      <point x="664" y="-11" type="curve"/>
      <point x="662" y="-14"/>
      <point x="654" y="-17"/>
      <point x="639" y="-22" type="curve"/>
    </contour>
    <contour>
      <point x="389" y="504"/>
      <point x="382" y="535"/>
      <point x="383" y="568" type="curve" smooth="yes"/>
      <point x="384" y="600"/>
      <point x="397" y="636"/>
      <point x="419" y="656" type="curve" smooth="yes"/>
      <point x="441" y="676"/>
      <point x="472" y="681"/>
      <point x="513" y="653" type="curve"/>
      <point x="530" y="637" type="line"/>
      <point x="527" y="600"/>
      <point x="518" y="575"/>
      <point x="498" y="555" type="curve" smooth="yes"/>
      <point x="478" y="534"/>
      <point x="449" y="517"/>
      <point x="408" y="493" type="curve"/>
    </contour>
    <contour>
      <point x="304" y="225" type="line"/>
      <point x="314" y="196"/>
      <point x="323" y="174"/>
      <point x="332" y="161" type="curve"/>
      <point x="340" y="147"/>
      <point x="347" y="136"/>
      <point x="354" y="127" type="curve"/>
      <point x="355" y="126"/>
      <point x="357" y="123"/>
      <point x="361" y="119" type="curve" smooth="yes"/>
      <point x="369" y="111"/>
      <point x="377" y="100"/>
      <point x="382" y="92" type="curve" smooth="yes"/>
      <point x="385" y="87"/>
      <point x="385" y="84"/>
      <point x="383" y="81" type="curve"/>
      <point x="382" y="81"/>
      <point x="379" y="81"/>
      <point x="375" y="80" type="curve" smooth="yes"/>
      <point x="366" y="78"/>
      <point x="354" y="75"/>
      <point x="346" y="74" type="curve"/>
      <point x="341" y="73"/>
      <point x="338" y="73"/>
      <point x="337" y="73" type="curve"/>
      <point x="326" y="72"/>
      <point x="316" y="71"/>
      <point x="305" y="71" type="curve" smooth="yes"/>
      <point x="276" y="71"/>
      <point x="254" y="77"/>
      <point x="235" y="104" type="curve"/>
      <point x="236" y="104" type="line"/>
      <point x="227" y="117"/>
      <point x="221" y="131"/>
      <point x="221" y="144" type="curve" smooth="yes"/>
      <point x="221" y="173"/>
      <point x="241" y="196"/>
      <point x="270" y="231" type="curve"/>
    </contour>
    <contour>
      <point x="488" y="587"/>
      <point x="499" y="596"/>
      <point x="502" y="605" type="curve" smooth="yes"/>
      <point x="508" y="622"/>
      <point x="495" y="632"/>
      <point x="473" y="632" type="curve" smooth="yes"/>
      <point x="451" y="632"/>
      <point x="431" y="620"/>
      <point x="424" y="592" type="curve"/>
      <point x="421" y="577"/>
      <point x="423" y="558"/>
      <point x="432" y="535" type="curve"/>
      <point x="429" y="550"/>
      <point x="436" y="559"/>
      <point x="445" y="565" type="curve"/>
      <point x="449" y="568"/>
      <point x="453" y="570"/>
      <point x="458" y="572" type="curve"/>
      <point x="463" y="573"/>
      <point x="466" y="575"/>
      <point x="469" y="577" type="curve"/>
    </contour>
    <contour>
      <point x="315" y="111" type="line"/>
      <point x="304" y="126"/>
      <point x="293" y="145"/>
      <point x="278" y="178" type="curve"/>
      <point x="267" y="163"/>
      <point x="261" y="152"/>
      <point x="261" y="144" type="curve" smooth="yes"/>
      <point x="261" y="133"/>
      <point x="271" y="118"/>
      <point x="283" y="114" type="curve" smooth="yes"/>
      <point x="289" y="112"/>
      <point x="296" y="111"/>
      <point x="305" y="111" type="curve" smooth="yes"/>
    </contour>
    <contour>
      <point x="509" y="658" type="line"/>
      <point x="528" y="643" type="line"/>
      <point x="523" y="647"/>
      <point x="518" y="650"/>
      <point x="513" y="653" type="curve"/>
    </contour>
  </outline>
</glyph>
<glyph name="quotesingle" format="1">
  <advance width="250"/>
  <unicode hex="0027"/>
  <outline>
    <contour>
      <point x="151" y="662" type="line" smooth="yes"/>
      <point x="151" y="707"/>
      <point x="167" y="740"/>
      <point x="189" y="762" type="curve" smooth="yes"/>
      <point x="211" y="784"/>
      <point x="241" y="794"/>
      <point x="270" y="794" type="curve" smooth="yes"/>
      <point x="302" y="794"/>
      <point x="333" y="780"/>
      <point x="354" y="754" type="curve" smooth="yes"/>
      <point x="375" y="728"/>
      <point x="387" y="691"/>
      <point x="382" y="646" type="curve"/>
      <point x="383" y="591"/>
      <point x="356" y="549"/>
      <point x="329" y="509" type="curve"/>
      <point x="326" y="504"/>
      <point x="322" y="499"/>
      <point x="319" y="494" type="curve" smooth="yes"/>
      <point x="316" y="489"/>
      <point x="312" y="483"/>
      <point x="309" y="478" type="curve" smooth="yes"/>
      <point x="293" y="451"/>
      <point x="261" y="433"/>
      <point x="233" y="433" type="curve" smooth="yes"/>
      <point x="196" y="433"/>
      <point x="164" y="456"/>
      <point x="164" y="516" type="curve" smooth="yes"/>
      <point x="164" y="527"/>
      <point x="163" y="539"/>
      <point x="162" y="550" type="curve"/>
      <point x="159" y="573"/>
      <point x="157" y="596"/>
      <point x="154" y="621" type="curve"/>
      <point x="153" y="634"/>
      <point x="152" y="647"/>
      <point x="151" y="661" type="curve"/>
    </contour>
    <contour>
      <point x="191" y="663" type="line"/>
      <point x="192" y="638"/>
      <point x="195" y="614"/>
      <point x="198" y="591" type="curve"/>
      <point x="199" y="578"/>
      <point x="201" y="565"/>
      <point x="202" y="554" type="curve" smooth="yes"/>
      <point x="203" y="542"/>
      <point x="204" y="529"/>
      <point x="204" y="516" type="curve" smooth="yes"/>
      <point x="204" y="485"/>
      <point x="218" y="473"/>
      <point x="233" y="473" type="curve" smooth="yes"/>
      <point x="249" y="473"/>
      <point x="267" y="483"/>
      <point x="275" y="498" type="curve"/>
      <point x="274" y="498" type="line"/>
      <point x="277" y="503"/>
      <point x="281" y="509"/>
      <point x="285" y="515" type="curve"/>
      <point x="288" y="520"/>
      <point x="292" y="526"/>
      <point x="295" y="531" type="curve"/>
      <point x="320" y="568"/>
      <point x="345" y="606"/>
      <point x="342" y="653" type="curve"/>
      <point x="347" y="686"/>
      <point x="341" y="711"/>
      <point x="327" y="728" type="curve" smooth="yes"/>
      <point x="313" y="745"/>
      <point x="291" y="754"/>
      <point x="270" y="754" type="curve" smooth="yes"/>
      <point x="250" y="754"/>
      <point x="231" y="747"/>
      <point x="216" y="732" type="curve" smooth="yes"/>
      <point x="201" y="716"/>
      <point x="191" y="693"/>
      <point x="191" y="662" type="curve"/>
    </contour>
  </outline>
</glyph>
<glyph name="parenleft" format="1">
  <advance width="342"/>
  <unicode hex="0028"/>
  <outline>
    <contour>
      <point x="-26" y="208" type="line"/>
      <point x="-11" y="353"/>
      <point x="21" y="469"/>
      <point x="61" y="559" type="curve" smooth="yes"/>
      <point x="101" y="649"/>
      <point x="149" y="713"/>
      <point x="194" y="754" type="curve" smooth="yes"/>
      <point x="239" y="795"/>
      <point x="282" y="815"/>
      <point x="313" y="815" type="curve" smooth="yes"/>
      <point x="322" y="815"/>
      <point x="330" y="814"/>
      <point x="337" y="812" type="curve"/>
      <point x="364" y="844"/>
      <point x="403" y="856"/>
      <point x="442" y="856" type="curve" smooth="yes"/>
      <point x="470" y="856"/>
      <point x="498" y="848"/>
      <point x="519" y="835" type="curve" smooth="yes"/>
      <point x="539" y="822"/>
      <point x="552" y="804"/>
      <point x="552" y="784" type="curve" smooth="yes"/>
      <point x="552" y="764"/>
      <point x="539" y="744"/>
      <point x="511" y="725" type="curve"/>
      <point x="512" y="726" type="line"/>
      <point x="423" y="662"/>
      <point x="347" y="592"/>
      <point x="291" y="501" type="curve" smooth="yes"/>
      <point x="234" y="410"/>
      <point x="196" y="300"/>
      <point x="181" y="156" type="curve" smooth="yes"/>
      <point x="180" y="147"/>
      <point x="179" y="139"/>
      <point x="179" y="132" type="curve" smooth="yes"/>
      <point x="179" y="124"/>
      <point x="179" y="116"/>
      <point x="179" y="109" type="curve" smooth="yes"/>
      <point x="179" y="37"/>
      <point x="193" y="-16"/>
      <point x="205" y="-56" type="curve" smooth="yes"/>
      <point x="213" y="-83"/>
      <point x="218" y="-103"/>
      <point x="218" y="-119" type="curve" smooth="yes"/>
      <point x="218" y="-154"/>
      <point x="200" y="-172"/>
      <point x="147" y="-176" type="curve"/>
      <point x="102" y="-176"/>
      <point x="67" y="-150"/>
      <point x="41" y="-110" type="curve" smooth="yes"/>
      <point x="15" y="-70"/>
      <point x="-3" y="-15"/>
      <point x="-13" y="42" type="curve" smooth="yes"/>
      <point x="-23" y="98"/>
      <point x="-27" y="158"/>
      <point x="-26" y="207" type="curve" smooth="yes"/>
    </contour>
    <contour>
      <point x="14" y="205" type="line"/>
      <point x="13" y="161"/>
      <point x="15" y="109"/>
      <point x="23" y="58" type="curve" smooth="yes"/>
      <point x="31" y="7"/>
      <point x="44" y="-41"/>
      <point x="64" y="-77" type="curve" smooth="yes"/>
      <point x="84" y="-113"/>
      <point x="111" y="-136"/>
      <point x="146" y="-136" type="curve"/>
      <point x="144" y="-136" type="line"/>
      <point x="157" y="-135"/>
      <point x="166" y="-133"/>
      <point x="171" y="-130" type="curve" smooth="yes"/>
      <point x="176" y="-127"/>
      <point x="178" y="-124"/>
      <point x="178" y="-119" type="curve" smooth="yes"/>
      <point x="178" y="-108"/>
      <point x="174" y="-91"/>
      <point x="167" y="-68" type="curve" smooth="yes"/>
      <point x="155" y="-25"/>
      <point x="139" y="33"/>
      <point x="139" y="109" type="curve" smooth="yes"/>
      <point x="139" y="116"/>
      <point x="139" y="125"/>
      <point x="139" y="134" type="curve" smooth="yes"/>
      <point x="139" y="143"/>
      <point x="140" y="152"/>
      <point x="141" y="160" type="curve" smooth="yes"/>
      <point x="157" y="307"/>
      <point x="197" y="424"/>
      <point x="257" y="520" type="curve" smooth="yes"/>
      <point x="316" y="616"/>
      <point x="395" y="691"/>
      <point x="488" y="758" type="curve"/>
      <point x="504" y="767"/>
      <point x="512" y="776"/>
      <point x="512" y="784" type="curve" smooth="yes"/>
      <point x="512" y="803"/>
      <point x="479" y="816"/>
      <point x="442" y="816" type="curve" smooth="yes"/>
      <point x="411" y="816"/>
      <point x="375" y="800"/>
      <point x="347" y="753" type="curve"/>
      <point x="332" y="768"/>
      <point x="321" y="775"/>
      <point x="313" y="775" type="curve" smooth="yes"/>
      <point x="273" y="775"/>
      <point x="209" y="735"/>
      <point x="150" y="643" type="curve" smooth="yes"/>
      <point x="90" y="551"/>
      <point x="35" y="408"/>
      <point x="14" y="204" type="curve"/>
    </contour>
  </outline>
</glyph>
<glyph name="parenright" format="1">
  <advance width="427"/>
  <unicode hex="0029"/>
  <outline>
    <contour>
      <point x="-95" y="-46" type="line"/>
      <point x="1" y="25"/>
      <point x="67" y="126"/>
      <point x="108" y="241" type="curve" smooth="yes"/>
      <point x="149" y="356"/>
      <point x="166" y="483"/>
      <point x="166" y="604" type="curve" smooth="yes"/>
      <point x="166" y="635"/>
      <point x="165" y="665"/>
      <point x="163" y="695" type="curve" smooth="yes"/>
      <point x="160" y="751"/>
      <point x="177" y="793"/>
      <point x="202" y="821" type="curve" smooth="yes"/>
      <point x="227" y="849"/>
      <point x="261" y="864"/>
      <point x="296" y="864" type="curve" smooth="yes"/>
      <point x="328" y="864"/>
      <point x="359" y="851"/>
      <point x="383" y="824" type="curve" smooth="yes"/>
      <point x="407" y="797"/>
      <point x="424" y="758"/>
      <point x="425" y="706" type="curve" smooth="yes"/>
      <point x="426" y="687"/>
      <point x="424" y="664"/>
      <point x="423" y="645" type="curve" smooth="yes"/>
      <point x="422" y="630"/>
      <point x="421" y="617"/>
      <point x="421" y="604" type="curve" smooth="yes"/>
      <point x="420" y="516"/>
      <point x="396" y="408"/>
      <point x="360" y="304" type="curve" smooth="yes"/>
      <point x="324" y="199"/>
      <point x="275" y="98"/>
      <point x="224" y="22" type="curve" smooth="yes"/>
      <point x="195" y="-21"/>
      <point x="158" y="-74"/>
      <point x="119" y="-115" type="curve" smooth="yes"/>
      <point x="80" y="-156"/>
      <point x="41" y="-187"/>
      <point x="8" y="-187" type="curve" smooth="yes"/>
      <point x="-2" y="-187"/>
      <point x="-12" y="-184"/>
      <point x="-21" y="-179" type="curve"/>
      <point x="-39" y="-188"/>
      <point x="-56" y="-192"/>
      <point x="-72" y="-192" type="curve" smooth="yes"/>
      <point x="-117" y="-192"/>
      <point x="-143" y="-161"/>
      <point x="-143" y="-122" type="curve" smooth="yes"/>
      <point x="-143" y="-95"/>
      <point x="-128" y="-65"/>
      <point x="-93" y="-45" type="curve"/>
    </contour>
    <contour>
      <point x="-73" y="-79" type="line"/>
      <point x="-94" y="-91"/>
      <point x="-103" y="-107"/>
      <point x="-103" y="-122" type="curve" smooth="yes"/>
      <point x="-103" y="-138"/>
      <point x="-91" y="-152"/>
      <point x="-72" y="-152" type="curve" smooth="yes"/>
      <point x="-60" y="-152"/>
      <point x="-42" y="-144"/>
      <point x="-18" y="-129" type="curve"/>
      <point x="-6" y="-141"/>
      <point x="3" y="-147"/>
      <point x="8" y="-147" type="curve" smooth="yes"/>
      <point x="32" y="-147"/>
      <point x="65" y="-118"/>
      <point x="98" y="-80" type="curve" smooth="yes"/>
      <point x="130" y="-42"/>
      <point x="164" y="5"/>
      <point x="192" y="44" type="curve" smooth="yes"/>
      <point x="243" y="116"/>
      <point x="290" y="213"/>
      <point x="324" y="313" type="curve" smooth="yes"/>
      <point x="358" y="413"/>
      <point x="380" y="516"/>
      <point x="381" y="604" type="curve" smooth="yes"/>
      <point x="381" y="617"/>
      <point x="382" y="632"/>
      <point x="383" y="647" type="curve" smooth="yes"/>
      <point x="384" y="666"/>
      <point x="385" y="689"/>
      <point x="385" y="704" type="curve" smooth="yes"/>
      <point x="385" y="744"/>
      <point x="374" y="774"/>
      <point x="358" y="794" type="curve" smooth="yes"/>
      <point x="341" y="814"/>
      <point x="319" y="824"/>
      <point x="296" y="824" type="curve" smooth="yes"/>
      <point x="273" y="824"/>
      <point x="249" y="811"/>
      <point x="232" y="789" type="curve" smooth="yes"/>
      <point x="215" y="767"/>
      <point x="203" y="734"/>
      <point x="203" y="697" type="curve"/>
      <point x="206" y="668"/>
      <point x="206" y="633"/>
      <point x="206" y="604" type="curve" smooth="yes"/>
      <point x="206" y="477"/>
      <point x="188" y="345"/>
      <point x="145" y="225" type="curve" smooth="yes"/>
      <point x="101" y="105"/>
      <point x="32" y="-3"/>
      <point x="-71" y="-78" type="curve"/>
    </contour>
  </outline>
</glyph>
<glyph name="asterisk" format="1">
  <advance width="558"/>
  <unicode hex="002A"/>
  <outline>
    <contour>
      <point x="575" y="711" type="line"/>
      <point x="590" y="712"/>
      <point x="605" y="713"/>
      <point x="621" y="713" type="curve" smooth="yes"/>
      <point x="668" y="713"/>
      <point x="718" y="706"/>
      <point x="754" y="673" type="curve" smooth="yes"/>
      <point x="787" y="642"/>
      <point x="775" y="612"/>
      <point x="746" y="588" type="curve" smooth="yes"/>
      <point x="717" y="564"/>
      <point x="671" y="545"/>
      <point x="635" y="540" type="curve"/>
      <point x="637" y="541" type="line"/>
      <point x="581" y="526"/>
      <point x="519" y="511"/>
      <point x="478" y="496" type="curve"/>
      <point x="503" y="472"/>
      <point x="533" y="443"/>
      <point x="561" y="414" type="curve" smooth="yes"/>
      <point x="589" y="385"/>
      <point x="616" y="356"/>
      <point x="636" y="332" type="curve"/>
      <point x="642" y="319"/>
      <point x="645" y="309"/>
      <point x="645" y="301" type="curve" smooth="yes"/>
      <point x="645" y="284"/>
      <point x="636" y="273"/>
      <point x="621" y="269" type="curve"/>
      <point x="613" y="266"/>
      <point x="604" y="265"/>
      <point x="594" y="265" type="curve" smooth="yes"/>
      <point x="577" y="265"/>
      <point x="562" y="267"/>
      <point x="549" y="272" type="curve"/>
      <point x="537" y="275"/>
      <point x="525" y="281"/>
      <point x="516" y="288" type="curve"/>
      <point x="515" y="289"/>
      <point x="513" y="291"/>
      <point x="511" y="292" type="curve"/>
      <point x="508" y="293"/>
      <point x="506" y="294"/>
      <point x="505" y="295" type="curve"/>
      <point x="506" y="295" type="line"/>
      <point x="493" y="302"/>
      <point x="480" y="310"/>
      <point x="467" y="319" type="curve"/>
      <point x="454" y="327"/>
      <point x="441" y="335"/>
      <point x="428" y="343" type="curve"/>
      <point x="428" y="341" type="line"/>
      <point x="427" y="334"/>
      <point x="426" y="325"/>
      <point x="426" y="316" type="curve"/>
      <point x="425" y="307"/>
      <point x="425" y="297"/>
      <point x="424" y="288" type="curve"/>
      <point x="423" y="286"/>
      <point x="422" y="283"/>
      <point x="422" y="280" type="curve"/>
      <point x="421" y="276"/>
      <point x="420" y="271"/>
      <point x="419" y="266" type="curve" smooth="yes"/>
      <point x="418" y="261"/>
      <point x="417" y="257"/>
      <point x="416" y="254" type="curve"/>
      <point x="415" y="250"/>
      <point x="412" y="244"/>
      <point x="407" y="237" type="curve"/>
      <point x="383" y="206"/>
      <point x="345" y="191"/>
      <point x="309" y="191" type="curve" smooth="yes"/>
      <point x="274" y="191"/>
      <point x="238" y="204"/>
      <point x="212" y="226" type="curve" smooth="yes"/>
      <point x="186" y="248"/>
      <point x="168" y="277"/>
      <point x="171" y="313" type="curve"/>
      <point x="174" y="333"/>
      <point x="180" y="352"/>
      <point x="187" y="371" type="curve"/>
      <point x="170" y="367" type="line"/>
      <point x="145" y="367"/>
      <point x="104" y="375"/>
      <point x="77" y="392" type="curve" smooth="yes"/>
      <point x="50" y="408"/>
      <point x="38" y="434"/>
      <point x="69" y="466" type="curve"/>
      <point x="92" y="487"/>
      <point x="118" y="503"/>
      <point x="146" y="518" type="curve"/>
      <point x="139" y="521"/>
      <point x="132" y="523"/>
      <point x="125" y="526" type="curve"/>
      <point x="118" y="528"/>
      <point x="111" y="530"/>
      <point x="106" y="533" type="curve"/>
      <point x="108" y="533" type="line"/>
      <point x="52" y="550"/>
      <point x="33" y="585"/>
      <point x="33" y="616" type="curve" smooth="yes"/>
      <point x="33" y="649"/>
      <point x="56" y="675"/>
      <point x="83" y="675" type="curve"/>
      <point x="102" y="710"/>
      <point x="138" y="725"/>
      <point x="175" y="725" type="curve" smooth="yes"/>
      <point x="203" y="725"/>
      <point x="233" y="717"/>
      <point x="258" y="704" type="curve" smooth="yes"/>
      <point x="282" y="691"/>
      <point x="289" y="683"/>
      <point x="301" y="670" type="curve"/>
      <point x="303" y="666" type="line"/>
      <point x="336" y="735"/>
      <point x="370" y="787"/>
      <point x="409" y="840" type="curve"/>
      <point x="408" y="839" type="line"/>
      <point x="425" y="864"/>
      <point x="453" y="876"/>
      <point x="478" y="876" type="curve" smooth="yes"/>
      <point x="501" y="876"/>
      <point x="522" y="867"/>
      <point x="535" y="851" type="curve" smooth="yes"/>
      <point x="548" y="835"/>
      <point x="552" y="811"/>
      <point x="540" y="780" type="curve" smooth="yes"/>
      <point x="533" y="763"/>
      <point x="526" y="749"/>
      <point x="521" y="737" type="curve"/>
      <point x="515" y="725"/>
      <point x="510" y="712"/>
      <point x="505" y="698" type="curve"/>
      <point x="514" y="701"/>
      <point x="521" y="702"/>
      <point x="527" y="703" type="curve" smooth="yes"/>
      <point x="533" y="704"/>
      <point x="540" y="705"/>
      <point x="547" y="706" type="curve"/>
      <point x="574" y="711" type="line"/>
    </contour>
    <contour>
      <point x="554" y="666" type="line" smooth="yes"/>
      <point x="538" y="663"/>
      <point x="516" y="660"/>
      <point x="505" y="656" type="curve"/>
      <point x="495" y="654" type="line"/>
      <point x="501" y="655" type="line"/>
      <point x="498" y="654"/>
      <point x="496" y="653"/>
      <point x="489" y="650" type="curve"/>
      <point x="486" y="649"/>
      <point x="481" y="646"/>
      <point x="474" y="643" type="curve" smooth="yes"/>
      <point x="467" y="640"/>
      <point x="459" y="635"/>
      <point x="448" y="630" type="curve"/>
      <point x="460" y="678"/>
      <point x="468" y="707"/>
      <point x="477" y="731" type="curve"/>
      <point x="485" y="755"/>
      <point x="493" y="773"/>
      <point x="504" y="796" type="curve"/>
      <point x="503" y="795" type="line"/>
      <point x="514" y="822"/>
      <point x="497" y="836"/>
      <point x="478" y="836" type="curve" smooth="yes"/>
      <point x="465" y="836"/>
      <point x="452" y="831"/>
      <point x="441" y="816" type="curve"/>
      <point x="420" y="785"/>
      <point x="398" y="756"/>
      <point x="377" y="718" type="curve" smooth="yes"/>
      <point x="356" y="680"/>
      <point x="332" y="635"/>
      <point x="307" y="578" type="curve"/>
      <point x="306" y="579"/>
      <point x="305" y="583"/>
      <point x="302" y="588" type="curve" smooth="yes"/>
      <point x="299" y="593"/>
      <point x="296" y="599"/>
      <point x="293" y="606" type="curve"/>
      <point x="286" y="618"/>
      <point x="280" y="631"/>
      <point x="279" y="635" type="curve"/>
      <point x="277" y="637"/>
      <point x="275" y="639"/>
      <point x="273" y="642" type="curve"/>
      <point x="271" y="644"/>
      <point x="269" y="646"/>
      <point x="268" y="647" type="curve" smooth="yes"/>
      <point x="263" y="652"/>
      <point x="254" y="660"/>
      <point x="239" y="668" type="curve"/>
      <point x="240" y="668" type="line"/>
      <point x="219" y="679"/>
      <point x="197" y="685"/>
      <point x="175" y="685" type="curve" smooth="yes"/>
      <point x="148" y="685"/>
      <point x="121" y="667"/>
      <point x="106" y="620" type="curve"/>
      <point x="90" y="631"/>
      <point x="73" y="627"/>
      <point x="73" y="616" type="curve" smooth="yes"/>
      <point x="73" y="609"/>
      <point x="77" y="601"/>
      <point x="85" y="592" type="curve" smooth="yes"/>
      <point x="93" y="583"/>
      <point x="107" y="576"/>
      <point x="128" y="569" type="curve"/>
      <point x="157" y="557"/>
      <point x="175" y="551"/>
      <point x="190" y="547" type="curve"/>
      <point x="188" y="548" type="line"/>
      <point x="263" y="531" type="line"/>
      <point x="194" y="496"/>
      <point x="126" y="464"/>
      <point x="97" y="437" type="curve"/>
      <point x="97" y="438" type="line"/>
      <point x="88" y="429"/>
      <point x="98" y="421"/>
      <point x="114" y="416" type="curve" smooth="yes"/>
      <point x="130" y="411"/>
      <point x="152" y="407"/>
      <point x="167" y="407" type="curve"/>
      <point x="244" y="426" type="line"/>
      <point x="233" y="380" type="line"/>
      <point x="222" y="357"/>
      <point x="215" y="333"/>
      <point x="211" y="308" type="curve"/>
      <point x="210" y="285"/>
      <point x="221" y="267"/>
      <point x="240" y="253" type="curve" smooth="yes"/>
      <point x="259" y="239"/>
      <point x="284" y="231"/>
      <point x="309" y="231" type="curve" smooth="yes"/>
      <point x="334" y="231"/>
      <point x="359" y="240"/>
      <point x="375" y="261" type="curve"/>
      <point x="378" y="264"/>
      <point x="379" y="267"/>
      <point x="378" y="268" type="curve" smooth="yes"/>
      <point x="377" y="269"/>
      <point x="378" y="271"/>
      <point x="379" y="276" type="curve" smooth="yes"/>
      <point x="384" y="298" type="line"/>
      <point x="385" y="306"/>
      <point x="385" y="314"/>
      <point x="386" y="322" type="curve"/>
      <point x="386" y="338"/>
      <point x="389" y="349"/>
      <point x="395" y="370" type="curve" smooth="yes"/>
      <point x="398" y="381"/>
      <point x="401" y="392"/>
      <point x="405" y="405" type="curve"/>
      <point x="447" y="379" type="line" smooth="yes"/>
      <point x="474" y="362"/>
      <point x="505" y="341"/>
      <point x="532" y="326" type="curve"/>
      <point x="538" y="321" type="line" smooth="yes"/>
      <point x="543" y="317"/>
      <point x="549" y="313"/>
      <point x="556" y="312" type="curve"/>
      <point x="568" y="308"/>
      <point x="583" y="305"/>
      <point x="594" y="305" type="curve" smooth="yes"/>
      <point x="599" y="305"/>
      <point x="602" y="307"/>
      <point x="602" y="311" type="curve"/>
      <point x="578" y="339"/>
      <point x="546" y="374"/>
      <point x="511" y="409" type="curve" smooth="yes"/>
      <point x="475" y="444"/>
      <point x="438" y="478"/>
      <point x="406" y="507" type="curve"/>
      <point x="467" y="538"/>
      <point x="555" y="560"/>
      <point x="635" y="581" type="curve"/>
      <point x="656" y="585"/>
      <point x="686" y="594"/>
      <point x="707" y="606" type="curve"/>
      <point x="728" y="617"/>
      <point x="740" y="631"/>
      <point x="727" y="643" type="curve"/>
      <point x="728" y="643" type="line"/>
      <point x="701" y="668"/>
      <point x="660" y="673"/>
      <point x="621" y="673" type="curve" smooth="yes"/>
      <point x="605" y="673"/>
      <point x="592" y="672"/>
      <point x="577" y="671" type="curve"/>
      <point x="580" y="671" type="line"/>
    </contour>
  </outline>
</glyph>
<glyph name="plus" format="1">
  <advance width="497"/>
  <unicode hex="002B"/>
  <outline>
    <contour>
      <point x="346" y="329" type="line"/>
      <point x="343" y="328"/>
      <point x="339" y="326"/>
      <point x="336" y="325" type="curve"/>
      <point x="332" y="324"/>
      <point x="328" y="321"/>
      <point x="324" y="318" type="curve"/>
      <point x="305" y="242"/>
      <point x="290" y="203"/>
      <point x="275" y="181" type="curve" smooth="yes"/>
      <point x="259" y="159"/>
      <point x="243" y="153"/>
      <point x="224" y="148" type="curve"/>
      <point x="221" y="147"/>
      <point x="217" y="146"/>
      <point x="214" y="145" type="curve" smooth="yes"/>
      <point x="211" y="144"/>
      <point x="206" y="142"/>
      <point x="201" y="139" type="curve"/>
      <point x="180" y="130"/>
      <point x="161" y="125"/>
      <point x="142" y="125" type="curve" smooth="yes"/>
      <point x="87" y="125"/>
      <point x="44" y="160"/>
      <point x="44" y="219" type="curve" smooth="yes"/>
      <point x="44" y="234"/>
      <point x="45" y="250"/>
      <point x="52" y="265" type="curve"/>
      <point x="52" y="263" type="line"/>
      <point x="56" y="282"/>
      <point x="60" y="294"/>
      <point x="65" y="307" type="curve"/>
      <point x="60" y="310"/>
      <point x="56" y="314"/>
      <point x="54" y="319" type="curve"/>
      <point x="49" y="323"/>
      <point x="44" y="329"/>
      <point x="41" y="336" type="curve"/>
      <point x="31" y="340" type="line"/>
      <point x="8" y="351"/>
      <point x="-15" y="361"/>
      <point x="-34" y="376" type="curve"/>
      <point x="-52" y="394"/>
      <point x="-61" y="411"/>
      <point x="-61" y="426" type="curve" smooth="yes"/>
      <point x="-61" y="454"/>
      <point x="-35" y="473"/>
      <point x="5" y="486" type="curve"/>
      <point x="17" y="485"/>
      <point x="27" y="485"/>
      <point x="36" y="485" type="curve" smooth="yes"/>
      <point x="44" y="485"/>
      <point x="50" y="485"/>
      <point x="55" y="485" type="curve" smooth="yes"/>
      <point x="62" y="485" type="line"/>
      <point x="122" y="476" type="line"/>
      <point x="125" y="475"/>
      <point x="127" y="475"/>
      <point x="128" y="475" type="curve"/>
      <point x="129" y="474"/>
      <point x="131" y="474"/>
      <point x="132" y="474" type="curve" smooth="yes"/>
      <point x="133" y="474"/>
      <point x="134" y="474"/>
      <point x="135" y="474" type="curve"/>
      <point x="136" y="473"/>
      <point x="139" y="473"/>
      <point x="142" y="473" type="curve"/>
      <point x="161" y="521"/>
      <point x="176" y="566"/>
      <point x="187" y="609" type="curve"/>
      <point x="184" y="620"/>
      <point x="184" y="634"/>
      <point x="187" y="651" type="curve"/>
      <point x="220" y="699"/>
      <point x="281" y="731"/>
      <point x="341" y="730" type="curve"/>
      <point x="369" y="733"/>
      <point x="399" y="730"/>
      <point x="421" y="719" type="curve" smooth="yes"/>
      <point x="443" y="708"/>
      <point x="455" y="691"/>
      <point x="450" y="663" type="curve"/>
      <point x="459" y="654"/>
      <point x="468" y="642"/>
      <point x="468" y="629" type="curve"/>
      <point x="453" y="588"/>
      <point x="431" y="554"/>
      <point x="407" y="519" type="curve"/>
      <point x="408" y="519" type="line"/>
      <point x="403" y="511"/>
      <point x="398" y="504"/>
      <point x="393" y="498" type="curve"/>
      <point x="388" y="491"/>
      <point x="384" y="484"/>
      <point x="379" y="477" type="curve"/>
      <point x="398" y="479"/>
      <point x="421" y="482"/>
      <point x="447" y="486" type="curve" smooth="yes"/>
      <point x="472" y="489"/>
      <point x="503" y="483"/>
      <point x="526" y="472" type="curve" smooth="yes"/>
      <point x="549" y="461"/>
      <point x="566" y="445"/>
      <point x="566" y="426" type="curve" smooth="yes"/>
      <point x="566" y="407"/>
      <point x="551" y="387"/>
      <point x="511" y="368" type="curve"/>
      <point x="498" y="367"/>
      <point x="482" y="364"/>
      <point x="464" y="359" type="curve" smooth="yes"/>
      <point x="445" y="354"/>
      <point x="427" y="350"/>
      <point x="408" y="345" type="curve" smooth="yes"/>
      <point x="344" y="329" type="line"/>
      <point x="343" y="329"/>
      <point x="343" y="329"/>
      <point x="343" y="329" type="curve"/>
      <point x="342" y="328"/>
      <point x="342" y="328"/>
      <point x="341" y="328" type="curve"/>
    </contour>
    <contour>
      <point x="362" y="435" type="line"/>
      <point x="355" y="434"/>
      <point x="348" y="433"/>
      <point x="343" y="433" type="curve" smooth="yes"/>
      <point x="337" y="433"/>
      <point x="331" y="433"/>
      <point x="326" y="432" type="curve"/>
      <point x="327" y="452" type="line"/>
      <point x="323" y="454" type="line"/>
      <point x="323" y="456" type="line" smooth="yes"/>
      <point x="323" y="457"/>
      <point x="324" y="458"/>
      <point x="325" y="461" type="curve"/>
      <point x="325" y="463" type="line"/>
      <point x="326" y="464" type="line"/>
      <point x="326" y="463" type="line"/>
      <point x="326" y="462" type="line"/>
      <point x="327" y="462" type="line"/>
      <point x="328" y="467" type="line"/>
      <point x="329" y="468"/>
      <point x="329" y="469"/>
      <point x="330" y="470" type="curve"/>
      <point x="330" y="470"/>
      <point x="330" y="471"/>
      <point x="330" y="473" type="curve"/>
      <point x="338" y="488"/>
      <point x="346" y="500"/>
      <point x="353" y="510" type="curve" smooth="yes"/>
      <point x="367" y="529"/>
      <point x="386" y="557"/>
      <point x="405" y="586" type="curve"/>
      <point x="414" y="601"/>
      <point x="422" y="616"/>
      <point x="427" y="631" type="curve"/>
      <point x="426" y="632"/>
      <point x="426" y="632"/>
      <point x="425" y="633" type="curve"/>
      <point x="424" y="633"/>
      <point x="423" y="634"/>
      <point x="422" y="635" type="curve" smooth="yes"/>
      <point x="415" y="642"/>
      <point x="409" y="650"/>
      <point x="406" y="657" type="curve"/>
      <point x="411" y="672"/>
      <point x="404" y="681"/>
      <point x="392" y="686" type="curve" smooth="yes"/>
      <point x="380" y="691"/>
      <point x="362" y="691"/>
      <point x="346" y="690" type="curve"/>
      <point x="298" y="693"/>
      <point x="253" y="672"/>
      <point x="226" y="637" type="curve"/>
      <point x="225" y="629"/>
      <point x="226" y="621"/>
      <point x="229" y="612" type="curve"/>
      <point x="214" y="551"/>
      <point x="193" y="491"/>
      <point x="170" y="431" type="curve"/>
      <point x="149" y="432"/>
      <point x="130" y="433"/>
      <point x="115" y="437" type="curve"/>
      <point x="92" y="440"/>
      <point x="79" y="442"/>
      <point x="70" y="445" type="curve"/>
      <point x="65" y="446"/>
      <point x="60" y="447"/>
      <point x="57" y="448" type="curve"/>
      <point x="54" y="451"/>
      <point x="52" y="453"/>
      <point x="51" y="453" type="curve" smooth="yes"/>
      <point x="50" y="453"/>
      <point x="49" y="453"/>
      <point x="47" y="452" type="curve" smooth="yes"/>
      <point x="45" y="451"/>
      <point x="42" y="449"/>
      <point x="37" y="448" type="curve" smooth="yes"/>
      <point x="32" y="447"/>
      <point x="23" y="446"/>
      <point x="11" y="446" type="curve"/>
      <point x="-10" y="439"/>
      <point x="-21" y="432"/>
      <point x="-21" y="426" type="curve" smooth="yes"/>
      <point x="-21" y="421"/>
      <point x="-17" y="415"/>
      <point x="-10" y="408" type="curve"/>
      <point x="5" y="397"/>
      <point x="26" y="386"/>
      <point x="47" y="377" type="curve"/>
      <point x="46" y="378" type="line"/>
      <point x="70" y="367" type="line"/>
      <point x="75" y="357"/>
      <point x="79" y="351"/>
      <point x="82" y="348" type="curve"/>
      <point x="88" y="338" type="line"/>
      <point x="89" y="338" type="line"/>
      <point x="87" y="340"/>
      <point x="87" y="340"/>
      <point x="90" y="339" type="curve"/>
      <point x="93" y="339"/>
      <point x="99" y="339"/>
      <point x="107" y="338" type="curve" smooth="yes"/>
      <point x="114" y="337"/>
      <point x="118" y="337"/>
      <point x="119" y="337" type="curve"/>
      <point x="106" y="300" type="line"/>
      <point x="99" y="284"/>
      <point x="94" y="268"/>
      <point x="89" y="247" type="curve"/>
      <point x="86" y="238"/>
      <point x="84" y="229"/>
      <point x="84" y="219" type="curve" smooth="yes"/>
      <point x="84" y="184"/>
      <point x="110" y="165"/>
      <point x="142" y="165" type="curve" smooth="yes"/>
      <point x="156" y="165"/>
      <point x="170" y="168"/>
      <point x="183" y="175" type="curve"/>
      <point x="194" y="180"/>
      <point x="203" y="183"/>
      <point x="214" y="186" type="curve"/>
      <point x="226" y="190"/>
      <point x="237" y="193"/>
      <point x="249" y="213" type="curve" smooth="yes"/>
      <point x="254" y="222"/>
      <point x="260" y="237"/>
      <point x="267" y="256" type="curve"/>
      <point x="273" y="275"/>
      <point x="280" y="301"/>
      <point x="288" y="334" type="curve"/>
      <point x="293" y="343" type="line"/>
      <point x="310" y="360"/>
      <point x="325" y="364"/>
      <point x="337" y="368" type="curve"/>
      <point x="338" y="368"/>
      <point x="339" y="368"/>
      <point x="340" y="369" type="curve"/>
      <point x="341" y="369"/>
      <point x="341" y="369"/>
      <point x="342" y="369" type="curve"/>
      <point x="398" y="383" type="line" smooth="yes"/>
      <point x="417" y="388"/>
      <point x="439" y="394"/>
      <point x="459" y="399" type="curve"/>
      <point x="478" y="403"/>
      <point x="495" y="407"/>
      <point x="504" y="408" type="curve"/>
      <point x="519" y="415"/>
      <point x="526" y="421"/>
      <point x="526" y="426" type="curve" smooth="yes"/>
      <point x="526" y="433"/>
      <point x="516" y="439"/>
      <point x="501" y="443" type="curve"/>
      <point x="486" y="446"/>
      <point x="468" y="447"/>
      <point x="452" y="446" type="curve"/>
      <point x="453" y="446" type="line"/>
      <point x="426" y="442"/>
      <point x="393" y="438"/>
      <point x="364" y="435" type="curve"/>
      <point x="364" y="434" type="line"/>
    </contour>
  </outline>
</glyph>
<glyph name="comma" format="1">
  <advance width="288"/>
  <unicode hex="002C"/>
  <outline>
    <contour>
      <point x="185" y="117" type="line"/>
      <point x="204" y="104"/>
      <point x="221" y="93"/>
      <point x="236" y="84" type="curve" smooth="yes"/>
      <point x="251" y="75"/>
      <point x="265" y="62"/>
      <point x="280" y="46" type="curve"/>
      <point x="279" y="32"/>
      <point x="279" y="22"/>
      <point x="281" y="15" type="curve"/>
      <point x="281" y="11"/>
      <point x="282" y="6"/>
      <point x="283" y="-1" type="curve"/>
      <point x="284" y="-4"/>
      <point x="284" y="-7"/>
      <point x="284" y="-10" type="curve"/>
      <point x="281" y="-47"/>
      <point x="254" y="-81"/>
      <point x="223" y="-108" type="curve"/>
      <point x="186" y="-151"/>
      <point x="130" y="-189"/>
      <point x="77" y="-189" type="curve" smooth="yes"/>
      <point x="50" y="-189"/>
      <point x="23" y="-180"/>
      <point x="-4" y="-157" type="curve"/>
      <point x="-9" y="-146"/>
      <point x="-12" y="-135"/>
      <point x="-12" y="-125" type="curve" smooth="yes"/>
      <point x="-12" y="-105"/>
      <point x="-3" y="-89"/>
      <point x="7" y="-73" type="curve" smooth="yes"/>
      <point x="12" y="-65"/>
      <point x="17" y="-57"/>
      <point x="22" y="-49" type="curve"/>
      <point x="21" y="-48"/>
      <point x="21" y="-46"/>
      <point x="21" y="-43" type="curve"/>
      <point x="18" y="-40" type="line"/>
      <point x="2" y="-25" type="line"/>
      <point x="1" y="-19" type="line"/>
      <point x="-8" y="0"/>
      <point x="-12" y="16"/>
      <point x="-12" y="29" type="curve" smooth="yes"/>
      <point x="-12" y="58"/>
      <point x="4" y="82"/>
      <point x="28" y="98" type="curve" smooth="yes"/>
      <point x="52" y="114"/>
      <point x="84" y="122"/>
      <point x="116" y="125" type="curve" smooth="yes"/>
      <point x="148" y="128"/>
      <point x="163" y="124"/>
      <point x="187" y="116" type="curve"/>
    </contour>
    <contour>
      <point x="225" y="45" type="line"/>
      <point x="222" y="52"/>
      <point x="217" y="57"/>
      <point x="210" y="59" type="curve"/>
      <point x="203" y="60"/>
      <point x="195" y="66"/>
      <point x="186" y="75" type="curve"/>
      <point x="185" y="75"/>
      <point x="185" y="75"/>
      <point x="184" y="76" type="curve"/>
      <point x="183" y="76"/>
      <point x="181" y="76"/>
      <point x="180" y="76" type="curve"/>
      <point x="157" y="83"/>
      <point x="146" y="88"/>
      <point x="119" y="85" type="curve"/>
      <point x="96" y="84"/>
      <point x="73" y="78"/>
      <point x="56" y="69" type="curve" smooth="yes"/>
      <point x="39" y="60"/>
      <point x="28" y="46"/>
      <point x="28" y="29" type="curve" smooth="yes"/>
      <point x="28" y="20"/>
      <point x="32" y="8"/>
      <point x="40" y="-7" type="curve"/>
      <point x="40" y="-9" type="line"/>
      <point x="47" y="-15"/>
      <point x="53" y="-19"/>
      <point x="59" y="-20" type="curve"/>
      <point x="71" y="-24"/>
      <point x="76" y="-26"/>
      <point x="73" y="-37" type="curve"/>
      <point x="71" y="-42"/>
      <point x="66" y="-52"/>
      <point x="58" y="-67" type="curve"/>
      <point x="59" y="-66" type="line"/>
      <point x="54" y="-74"/>
      <point x="48" y="-82"/>
      <point x="43" y="-90" type="curve"/>
      <point x="31" y="-106"/>
      <point x="25" y="-121"/>
      <point x="30" y="-133" type="curve"/>
      <point x="45" y="-145"/>
      <point x="60" y="-149"/>
      <point x="77" y="-149" type="curve" smooth="yes"/>
      <point x="120" y="-149"/>
      <point x="164" y="-119"/>
      <point x="195" y="-80" type="curve"/>
      <point x="220" y="-59"/>
      <point x="241" y="-33"/>
      <point x="244" y="-9" type="curve"/>
      <point x="244" y="-5"/>
      <point x="244" y="-1"/>
      <point x="243" y="2" type="curve" smooth="yes"/>
      <point x="242" y="5"/>
      <point x="242" y="8"/>
      <point x="241" y="12" type="curve"/>
      <point x="240" y="19"/>
      <point x="239" y="25"/>
      <point x="239" y="31" type="curve"/>
    </contour>
  </outline>
</glyph>
<glyph name="period" format="1">
  <advance width="235"/>
  <unicode hex="002E"/>
  <outline>
    <contour>
      <point x="45" y="-125" type="line"/>
      <point x="-2" y="-104"/>
      <point x="-19" y="-75"/>
      <point x="-19" y="-42" type="curve" smooth="yes"/>
      <point x="-19" y="-13"/>
      <point x="-2" y="18"/>
      <point x="23" y="43" type="curve" smooth="yes"/>
      <point x="48" y="67"/>
      <point x="79" y="86"/>
      <point x="110" y="91" type="curve"/>
      <point x="109" y="91" type="line"/>
      <point x="141" y="98"/>
      <point x="150" y="95"/>
      <point x="177" y="87" type="curve"/>
      <point x="179" y="86"/>
      <point x="181" y="86"/>
      <point x="183" y="86" type="curve" smooth="yes"/>
      <point x="185" y="86"/>
      <point x="186" y="86"/>
      <point x="187" y="86" type="curve"/>
      <point x="190" y="83" type="line"/>
      <point x="226" y="55"/>
      <point x="240" y="25"/>
      <point x="240" y="-3" type="curve" smooth="yes"/>
      <point x="240" y="-30"/>
      <point x="226" y="-56"/>
      <point x="206" y="-78" type="curve" smooth="yes"/>
      <point x="186" y="-100"/>
      <point x="160" y="-118"/>
      <point x="133" y="-126" type="curve" smooth="yes"/>
      <point x="104" y="-135"/>
      <point x="92" y="-136"/>
      <point x="67" y="-131" type="curve"/>
      <point x="70" y="-131" type="line"/>
      <point x="68" y="-131"/>
      <point x="66" y="-131"/>
      <point x="64" y="-130" type="curve"/>
      <point x="61" y="-129"/>
      <point x="59" y="-129"/>
      <point x="57" y="-129" type="curve" smooth="yes"/>
      <point x="56" y="-129"/>
      <point x="54" y="-129"/>
      <point x="52" y="-128" type="curve"/>
      <point x="51" y="-127"/>
      <point x="49" y="-127"/>
      <point x="47" y="-126" type="curve"/>
      <point x="45" y="-126"/>
      <point x="43" y="-125"/>
      <point x="42" y="-124" type="curve"/>
    </contour>
    <contour>
      <point x="64" y="-90" type="line"/>
      <point x="63" y="-90"/>
      <point x="63" y="-90"/>
      <point x="62" y="-89" type="curve"/>
      <point x="61" y="-89"/>
      <point x="61" y="-89"/>
      <point x="60" y="-89" type="curve" smooth="yes"/>
      <point x="57" y="-89" type="line"/>
      <point x="73" y="-91" type="line" smooth="yes"/>
      <point x="83" y="-92"/>
      <point x="91" y="-93"/>
      <point x="96" y="-93" type="curve" smooth="yes"/>
      <point x="107" y="-93"/>
      <point x="131" y="-87"/>
      <point x="150" y="-75" type="curve" smooth="yes"/>
      <point x="169" y="-63"/>
      <point x="185" y="-48"/>
      <point x="194" y="-30" type="curve"/>
      <point x="198" y="-21"/>
      <point x="200" y="-12"/>
      <point x="200" y="-3" type="curve" smooth="yes"/>
      <point x="200" y="13"/>
      <point x="193" y="28"/>
      <point x="173" y="45" type="curve"/>
      <point x="169" y="48" type="line"/>
      <point x="148" y="55"/>
      <point x="140" y="56"/>
      <point x="116" y="51" type="curve" smooth="yes"/>
      <point x="93" y="47"/>
      <point x="71" y="34"/>
      <point x="52" y="17" type="curve" smooth="yes"/>
      <point x="33" y="0"/>
      <point x="21" y="-22"/>
      <point x="21" y="-42" type="curve" smooth="yes"/>
      <point x="21" y="-61"/>
      <point x="34" y="-76"/>
      <point x="61" y="-89" type="curve"/>
    </contour>
  </outline>
</glyph>
<glyph name="slash" format="1">
  <advance width="567"/>
  <unicode hex="002F"/>
  <outline>
    <contour>
      <point x="414" y="768" type="line"/>
      <point x="416" y="771" type="line"/>
      <point x="419" y="810"/>
      <point x="455" y="847"/>
      <point x="536" y="862" type="curve"/>
      <point x="547" y="862" type="line" smooth="yes"/>
      <point x="580" y="861"/>
      <point x="611" y="858"/>
      <point x="637" y="846" type="curve" smooth="yes"/>
      <point x="663" y="833"/>
      <point x="683" y="811"/>
      <point x="696" y="771" type="curve"/>
      <point x="700" y="740"/>
      <point x="683" y="716"/>
      <point x="666" y="696" type="curve"/>
      <point x="670" y="673"/>
      <point x="665" y="648"/>
      <point x="638" y="617" type="curve"/>
      <point x="591" y="574"/>
      <point x="557" y="523"/>
      <point x="520" y="471" type="curve"/>
      <point x="521" y="472" type="line"/>
      <point x="518" y="467"/>
      <point x="514" y="463"/>
      <point x="511" y="458" type="curve"/>
      <point x="507" y="453"/>
      <point x="503" y="449"/>
      <point x="500" y="444" type="curve"/>
      <point x="439" y="359"/>
      <point x="379" y="262"/>
      <point x="319" y="166" type="curve" smooth="yes"/>
      <point x="239" y="37"/>
      <point x="159" y="-92"/>
      <point x="67" y="-205" type="curve" smooth="yes"/>
      <point x="56" y="-218"/>
      <point x="42" y="-224"/>
      <point x="25" y="-224" type="curve" smooth="yes"/>
      <point x="5" y="-224"/>
      <point x="-18" y="-213"/>
      <point x="-36" y="-195" type="curve" smooth="yes"/>
      <point x="-54" y="-177"/>
      <point x="-68" y="-153"/>
      <point x="-68" y="-122" type="curve" smooth="yes"/>
      <point x="-68" y="-101"/>
      <point x="-62" y="-77"/>
      <point x="-47" y="-54" type="curve"/>
      <point x="-48" y="-57" type="line"/>
      <point x="21" y="102"/>
      <point x="104" y="235"/>
      <point x="188" y="374" type="curve" smooth="yes"/>
      <point x="235" y="450"/>
      <point x="281" y="527"/>
      <point x="328" y="611" type="curve"/>
      <point x="327" y="610" type="line"/>
      <point x="352" y="657" type="line"/>
      <point x="369" y="692"/>
      <point x="387" y="726"/>
      <point x="407" y="757" type="curve" smooth="yes"/>
    </contour>
    <contour>
      <point x="441" y="735" type="line" smooth="yes"/>
      <point x="421" y="704"/>
      <point x="404" y="672"/>
      <point x="388" y="639" type="curve"/>
      <point x="362" y="591" type="line" smooth="yes"/>
      <point x="315" y="507"/>
      <point x="269" y="429"/>
      <point x="222" y="353" type="curve"/>
      <point x="222" y="354" type="line"/>
      <point x="138" y="215"/>
      <point x="55" y="82"/>
      <point x="-14" y="-77" type="curve"/>
      <point x="-25" y="-93"/>
      <point x="-28" y="-109"/>
      <point x="-28" y="-122" type="curve" smooth="yes"/>
      <point x="-28" y="-141"/>
      <point x="-21" y="-156"/>
      <point x="-10" y="-167" type="curve" smooth="yes"/>
      <point x="1" y="-178"/>
      <point x="13" y="-184"/>
      <point x="25" y="-184" type="curve" smooth="yes"/>
      <point x="29" y="-184"/>
      <point x="34" y="-182"/>
      <point x="37" y="-179" type="curve"/>
      <point x="121" y="-75"/>
      <point x="205" y="60"/>
      <point x="285" y="188" type="curve" smooth="yes"/>
      <point x="345" y="285"/>
      <point x="405" y="381"/>
      <point x="468" y="468" type="curve" smooth="yes"/>
      <point x="487" y="494" type="line" smooth="yes"/>
      <point x="527" y="550"/>
      <point x="565" y="603"/>
      <point x="613" y="650" type="curve"/>
      <point x="612" y="648" type="line"/>
      <point x="628" y="667"/>
      <point x="628" y="688"/>
      <point x="621" y="705" type="curve"/>
      <point x="637" y="725"/>
      <point x="659" y="749"/>
      <point x="656" y="765" type="curve"/>
      <point x="657" y="762" type="line"/>
      <point x="648" y="787"/>
      <point x="633" y="802"/>
      <point x="614" y="810" type="curve" smooth="yes"/>
      <point x="595" y="818"/>
      <point x="571" y="821"/>
      <point x="546" y="822" type="curve"/>
      <point x="547" y="822" type="line"/>
      <point x="544" y="822" type="line"/>
      <point x="513" y="816"/>
      <point x="490" y="808"/>
      <point x="476" y="797" type="curve" smooth="yes"/>
      <point x="461" y="786"/>
      <point x="455" y="774"/>
      <point x="456" y="763" type="curve"/>
      <point x="454" y="755"/>
      <point x="453" y="750"/>
      <point x="452" y="748" type="curve"/>
      <point x="451" y="745"/>
      <point x="450" y="744"/>
      <point x="450" y="744" type="curve" smooth="yes"/>
      <point x="449" y="744"/>
      <point x="449" y="745"/>
      <point x="449" y="746" type="curve" smooth="yes"/>
      <point x="449" y="747"/>
      <point x="449" y="747"/>
      <point x="448" y="746" type="curve"/>
    </contour>
  </outline>
</glyph>
<glyph name="zero" format="1">
  <advance width="600"/>
  <unicode hex="0030"/>
  <outline>
    <contour>
      <point x="144" y="681" type="line"/>
      <point x="161" y="714"/>
      <point x="198" y="749"/>
      <point x="242" y="775" type="curve" smooth="yes"/>
      <point x="285" y="801"/>
      <point x="337" y="819"/>
      <point x="386" y="819" type="curve" smooth="yes"/>
      <point x="437" y="819"/>
      <point x="491" y="791"/>
      <point x="507" y="778" type="curve"/>
      <point x="514" y="771"/>
      <point x="519" y="763"/>
      <point x="520" y="754" type="curve"/>
      <point x="529" y="756"/>
      <point x="538" y="757"/>
      <point x="547" y="757" type="curve" smooth="yes"/>
      <point x="591" y="757"/>
      <point x="621" y="734"/>
      <point x="641" y="695" type="curve" smooth="yes"/>
      <point x="661" y="656"/>
      <point x="670" y="603"/>
      <point x="670" y="543" type="curve" smooth="yes"/>
      <point x="670" y="492"/>
      <point x="663" y="436"/>
      <point x="651" y="381" type="curve" smooth="yes"/>
      <point x="638" y="326"/>
      <point x="619" y="274"/>
      <point x="598" y="231" type="curve"/>
      <point x="569" y="152"/>
      <point x="522" y="83"/>
      <point x="478" y="32" type="curve" smooth="yes"/>
      <point x="433" y="-19"/>
      <point x="390" y="-49"/>
      <point x="369" y="-52" type="curve"/>
      <point x="371" y="-52" type="line"/>
      <point x="339" y="-59" type="line"/>
      <point x="332" y="-60"/>
      <point x="326" y="-61"/>
      <point x="322" y="-62" type="curve"/>
      <point x="317" y="-63"/>
      <point x="312" y="-64"/>
      <point x="307" y="-65" type="curve"/>
      <point x="307" y="-67" type="line"/>
      <point x="273" y="-77" type="line"/>
      <point x="262" y="-97"/>
      <point x="233" y="-107"/>
      <point x="198" y="-107" type="curve" smooth="yes"/>
      <point x="173" y="-107"/>
      <point x="143" y="-102"/>
      <point x="116" y="-90" type="curve" smooth="yes"/>
      <point x="89" y="-78"/>
      <point x="65" y="-60"/>
      <point x="50" y="-36" type="curve"/>
      <point x="25" y="16"/>
      <point x="8" y="70"/>
      <point x="8" y="154" type="curve" smooth="yes"/>
      <point x="8" y="159"/>
      <point x="8" y="165"/>
      <point x="8" y="171" type="curve" smooth="yes"/>
      <point x="8" y="177"/>
      <point x="8" y="183"/>
      <point x="9" y="188" type="curve"/>
      <point x="9" y="187" type="line"/>
      <point x="14" y="295"/>
      <point x="27" y="376"/>
      <point x="48" y="452" type="curve" smooth="yes"/>
      <point x="68" y="527"/>
      <point x="100" y="596"/>
      <point x="144" y="680" type="curve"/>
    </contour>
    <contour>
      <point x="180" y="662" type="line"/>
      <point x="136" y="579"/>
      <point x="106" y="512"/>
      <point x="86" y="440" type="curve" smooth="yes"/>
      <point x="66" y="367"/>
      <point x="54" y="289"/>
      <point x="49" y="184" type="curve"/>
      <point x="48" y="179"/>
      <point x="48" y="174"/>
      <point x="48" y="169" type="curve" smooth="yes"/>
      <point x="48" y="164"/>
      <point x="48" y="159"/>
      <point x="48" y="154" type="curve" smooth="yes"/>
      <point x="48" y="78"/>
      <point x="64" y="28"/>
      <point x="87" y="-21" type="curve"/>
      <point x="86" y="-20" type="line"/>
      <point x="106" y="-52"/>
      <point x="157" y="-67"/>
      <point x="198" y="-67" type="curve" smooth="yes"/>
      <point x="221" y="-67"/>
      <point x="238" y="-61"/>
      <point x="239" y="-46" type="curve"/>
      <point x="275" y="-35" type="line"/>
      <point x="275" y="-34"/>
      <point x="275" y="-34"/>
      <point x="276" y="-33" type="curve"/>
      <point x="276" y="-33"/>
      <point x="277" y="-31"/>
      <point x="280" y="-27" type="curve"/>
      <point x="307" y="-24"/>
      <point x="316" y="-24"/>
      <point x="329" y="-21" type="curve"/>
      <point x="337" y="-18"/>
      <point x="352" y="-14"/>
      <point x="367" y="-11" type="curve"/>
      <point x="374" y="-12"/>
      <point x="385" y="-7"/>
      <point x="401" y="6" type="curve" smooth="yes"/>
      <point x="432" y="30"/>
      <point x="472" y="77"/>
      <point x="511" y="141" type="curve" smooth="yes"/>
      <point x="530" y="173"/>
      <point x="547" y="208"/>
      <point x="560" y="246" type="curve"/>
      <point x="581" y="287"/>
      <point x="599" y="337"/>
      <point x="611" y="389" type="curve" smooth="yes"/>
      <point x="623" y="440"/>
      <point x="630" y="494"/>
      <point x="630" y="543" type="curve" smooth="yes"/>
      <point x="630" y="591"/>
      <point x="624" y="635"/>
      <point x="611" y="667" type="curve" smooth="yes"/>
      <point x="598" y="698"/>
      <point x="576" y="717"/>
      <point x="547" y="717" type="curve" smooth="yes"/>
      <point x="541" y="717"/>
      <point x="534" y="718"/>
      <point x="527" y="720" type="curve"/>
      <point x="520" y="721"/>
      <point x="508" y="719"/>
      <point x="493" y="712" type="curve"/>
      <point x="488" y="723"/>
      <point x="485" y="731"/>
      <point x="482" y="739" type="curve"/>
      <point x="481" y="742"/>
      <point x="480" y="745"/>
      <point x="480" y="746" type="curve" smooth="yes"/>
      <point x="480" y="749"/>
      <point x="479" y="751"/>
      <point x="476" y="753" type="curve" smooth="yes"/>
      <point x="470" y="757"/>
      <point x="437" y="773"/>
      <point x="418" y="777" type="curve"/>
      <point x="408" y="778"/>
      <point x="397" y="779"/>
      <point x="386" y="779" type="curve" smooth="yes"/>
      <point x="343" y="779"/>
      <point x="300" y="764"/>
      <point x="263" y="741" type="curve" smooth="yes"/>
      <point x="226" y="718"/>
      <point x="196" y="689"/>
      <point x="180" y="661" type="curve"/>
    </contour>
    <contour>
      <point x="340" y="583" type="line" smooth="yes"/>
      <point x="352" y="603"/>
      <point x="369" y="630"/>
      <point x="385" y="651" type="curve"/>
      <point x="398" y="652"/>
      <point x="408" y="652"/>
      <point x="413" y="650" type="curve"/>
      <point x="418" y="647"/>
      <point x="421" y="644"/>
      <point x="422" y="641" type="curve"/>
      <point x="421" y="644"/>
      <point x="420" y="646"/>
      <point x="420" y="648" type="curve"/>
      <point x="419" y="649"/>
      <point x="418" y="651"/>
      <point x="417" y="652" type="curve"/>
      <point x="438" y="629"/>
      <point x="447" y="606"/>
      <point x="447" y="582" type="curve" smooth="yes"/>
      <point x="447" y="557"/>
      <point x="442" y="526"/>
      <point x="435" y="498" type="curve" smooth="yes"/>
      <point x="428" y="469"/>
      <point x="420" y="441"/>
      <point x="413" y="421" type="curve" smooth="yes"/>
      <point x="376" y="308"/>
      <point x="328" y="211"/>
      <point x="261" y="111" type="curve"/>
      <point x="261" y="111"/>
      <point x="259" y="111"/>
      <point x="256" y="111" type="curve" smooth="yes"/>
      <point x="253" y="111"/>
      <point x="249" y="111"/>
      <point x="246" y="111" type="curve"/>
      <point x="242" y="110"/>
      <point x="238" y="110"/>
      <point x="235" y="110" type="curve" smooth="yes"/>
      <point x="232" y="110"/>
      <point x="230" y="110"/>
      <point x="229" y="110" type="curve"/>
      <point x="228" y="127"/>
      <point x="227" y="139"/>
      <point x="227" y="146" type="curve"/>
      <point x="226" y="153"/>
      <point x="226" y="160"/>
      <point x="226" y="165" type="curve" smooth="yes"/>
      <point x="226" y="233"/>
      <point x="241" y="310"/>
      <point x="261" y="382" type="curve" smooth="yes"/>
      <point x="281" y="454"/>
      <point x="307" y="520"/>
      <point x="331" y="567" type="curve"/>
    </contour>
    <contour>
      <point x="346" y="508"/>
      <point x="323" y="450"/>
      <point x="304" y="388" type="curve" smooth="yes"/>
      <point x="285" y="326"/>
      <point x="271" y="257"/>
      <point x="267" y="196" type="curve"/>
      <point x="311" y="271"/>
      <point x="347" y="346"/>
      <point x="375" y="433" type="curve"/>
      <point x="382" y="452"/>
      <point x="389" y="478"/>
      <point x="396" y="505" type="curve" smooth="yes"/>
      <point x="403" y="532"/>
      <point x="407" y="559"/>
      <point x="407" y="582" type="curve" smooth="yes"/>
      <point x="407" y="589"/>
      <point x="407" y="595"/>
      <point x="406" y="598" type="curve"/>
      <point x="403" y="597"/>
      <point x="401" y="598"/>
      <point x="398" y="601" type="curve"/>
      <point x="371" y="558" type="line"/>
      <point x="373" y="560"/>
      <point x="373" y="560"/>
      <point x="372" y="557" type="curve"/>
      <point x="370" y="554"/>
      <point x="368" y="551"/>
      <point x="367" y="549" type="curve" smooth="yes"/>
    </contour>
    <contour>
      <point x="413" y="658"/>
      <point x="415" y="657"/>
      <point x="417" y="652" type="curve"/>
      <point x="416" y="653"/>
      <point x="416" y="654"/>
      <point x="415" y="655" type="curve"/>
      <point x="414" y="655"/>
      <point x="413" y="656"/>
      <point x="412" y="657" type="curve"/>
    </contour>
  </outline>
</glyph>
<glyph name="one" format="1">
  <advance width="420"/>
  <unicode hex="0031"/>
  <outline>
    <contour>
      <point x="487" y="721" type="line"/>
      <point x="484" y="702"/>
      <point x="476" y="679"/>
      <point x="463" y="655" type="curve"/>
      <point x="463" y="653" type="line" smooth="yes"/>
      <point x="463" y="652"/>
      <point x="463" y="652"/>
      <point x="464" y="652" type="curve"/>
      <point x="463" y="653" type="line"/>
      <point x="474" y="633"/>
      <point x="487" y="611"/>
      <point x="478" y="580" type="curve"/>
      <point x="451" y="524" type="line" smooth="yes"/>
      <point x="424" y="472"/>
      <point x="399" y="422"/>
      <point x="376" y="367" type="curve"/>
      <point x="377" y="368" type="line"/>
      <point x="363" y="337" type="line" smooth="yes"/>
      <point x="356" y="320"/>
      <point x="348" y="302"/>
      <point x="341" y="283" type="curve"/>
      <point x="333" y="264"/>
      <point x="325" y="244"/>
      <point x="318" y="225" type="curve"/>
      <point x="302" y="186"/>
      <point x="288" y="149"/>
      <point x="277" y="118" type="curve"/>
      <point x="277" y="119" type="line"/>
      <point x="262" y="68" type="line" smooth="yes"/>
      <point x="247" y="19"/>
      <point x="234" y="-30"/>
      <point x="210" y="-75" type="curve"/>
      <point x="212" y="-66" type="line"/>
      <point x="212" y="-67"/>
      <point x="212" y="-68"/>
      <point x="212" y="-69" type="curve"/>
      <point x="211" y="-71"/>
      <point x="211" y="-72"/>
      <point x="211" y="-73" type="curve"/>
      <point x="196" y="-112"/>
      <point x="155" y="-131"/>
      <point x="114" y="-131" type="curve" smooth="yes"/>
      <point x="89" y="-131"/>
      <point x="64" y="-123"/>
      <point x="46" y="-109" type="curve" smooth="yes"/>
      <point x="28" y="-95"/>
      <point x="16" y="-76"/>
      <point x="19" y="-49" type="curve"/>
      <point x="20" y="-34"/>
      <point x="22" y="-22"/>
      <point x="24" y="-12" type="curve" smooth="yes"/>
      <point x="26" y="-3"/>
      <point x="28" y="7"/>
      <point x="30" y="17" type="curve"/>
      <point x="31" y="24"/>
      <point x="33" y="31"/>
      <point x="34" y="38" type="curve" smooth="yes"/>
      <point x="35" y="45"/>
      <point x="37" y="52"/>
      <point x="38" y="59" type="curve" smooth="yes"/>
      <point x="61" y="194"/>
      <point x="93" y="328"/>
      <point x="132" y="467" type="curve"/>
      <point x="117" y="471"/>
      <point x="107" y="476"/>
      <point x="92" y="487" type="curve"/>
      <point x="93" y="486" type="line"/>
      <point x="61" y="507"/>
      <point x="48" y="531"/>
      <point x="48" y="555" type="curve" smooth="yes"/>
      <point x="48" y="576"/>
      <point x="59" y="598"/>
      <point x="78" y="615" type="curve" smooth="yes"/>
      <point x="97" y="631"/>
      <point x="122" y="645"/>
      <point x="150" y="656" type="curve"/>
      <point x="149" y="656" type="line"/>
      <point x="161" y="663" type="line"/>
      <point x="162" y="663"/>
      <point x="163" y="663"/>
      <point x="164" y="664" type="curve"/>
      <point x="189" y="687"/>
      <point x="213" y="713"/>
      <point x="236" y="741" type="curve" smooth="yes"/>
      <point x="240" y="746" type="line"/>
      <point x="241" y="747"/>
      <point x="241" y="749"/>
      <point x="241" y="750" type="curve" smooth="yes"/>
      <point x="241" y="751"/>
      <point x="241" y="751"/>
      <point x="242" y="752" type="curve"/>
      <point x="269" y="795"/>
      <point x="321" y="816"/>
      <point x="369" y="816" type="curve" smooth="yes"/>
      <point x="425" y="816"/>
      <point x="476" y="786"/>
      <point x="487" y="726" type="curve"/>
    </contour>
    <contour>
      <point x="447" y="720" type="line"/>
      <point x="440" y="759"/>
      <point x="406" y="776"/>
      <point x="369" y="776" type="curve" smooth="yes"/>
      <point x="333" y="776"/>
      <point x="296" y="761"/>
      <point x="277" y="732" type="curve"/>
      <point x="273" y="723" type="line"/>
      <point x="271" y="719" type="line"/>
      <point x="246" y="688"/>
      <point x="218" y="658"/>
      <point x="187" y="631" type="curve"/>
      <point x="179" y="627" type="line"/>
      <point x="162" y="617" type="line"/>
      <point x="161" y="617"/>
      <point x="160" y="617"/>
      <point x="158" y="617" type="curve"/>
      <point x="155" y="616"/>
      <point x="153" y="616"/>
      <point x="151" y="616" type="curve"/>
      <point x="158" y="617" type="line"/>
      <point x="122" y="602"/>
      <point x="88" y="579"/>
      <point x="88" y="555" type="curve" smooth="yes"/>
      <point x="88" y="531"/>
      <point x="119" y="513"/>
      <point x="143" y="507" type="curve" smooth="yes"/>
      <point x="154" y="504"/>
      <point x="167" y="501"/>
      <point x="182" y="498" type="curve"/>
      <point x="163" y="427"/>
      <point x="143" y="349"/>
      <point x="125" y="273" type="curve" smooth="yes"/>
      <point x="107" y="196"/>
      <point x="90" y="120"/>
      <point x="78" y="53" type="curve"/>
      <point x="77" y="46"/>
      <point x="75" y="38"/>
      <point x="74" y="31" type="curve" smooth="yes"/>
      <point x="73" y="23"/>
      <point x="71" y="16"/>
      <point x="70" y="9" type="curve" smooth="yes"/>
      <point x="66" y="-14"/>
      <point x="62" y="-38"/>
      <point x="59" y="-53" type="curve"/>
      <point x="56" y="-78"/>
      <point x="85" y="-91"/>
      <point x="114" y="-91" type="curve" smooth="yes"/>
      <point x="141" y="-91"/>
      <point x="165" y="-81"/>
      <point x="172" y="-62" type="curve"/>
      <point x="172" y="-61" type="line"/>
      <point x="197" y="-12"/>
      <point x="209" y="33"/>
      <point x="224" y="80" type="curve" smooth="yes"/>
      <point x="239" y="131" type="line"/>
      <point x="250" y="162"/>
      <point x="264" y="200"/>
      <point x="280" y="240" type="curve" smooth="yes"/>
      <point x="296" y="279"/>
      <point x="312" y="320"/>
      <point x="327" y="353" type="curve"/>
      <point x="326" y="352" type="line"/>
      <point x="339" y="382" type="line" smooth="yes"/>
      <point x="362" y="437"/>
      <point x="388" y="490"/>
      <point x="415" y="542" type="curve" smooth="yes"/>
      <point x="442" y="598" type="line"/>
      <point x="442" y="609"/>
      <point x="435" y="622"/>
      <point x="428" y="633" type="curve"/>
      <point x="417" y="655" type="line"/>
      <point x="434" y="684"/>
      <point x="446" y="708"/>
      <point x="447" y="725" type="curve"/>
    </contour>
  </outline>
</glyph>
<glyph name="two" format="1">
  <advance width="545"/>
  <unicode hex="0032"/>
  <outline>
    <contour>
      <point x="339" y="537" type="line"/>
      <point x="331" y="510"/>
      <point x="308" y="489"/>
      <point x="279" y="474" type="curve" smooth="yes"/>
      <point x="250" y="459"/>
      <point x="212" y="451"/>
      <point x="179" y="451" type="curve" smooth="yes"/>
      <point x="147" y="451"/>
      <point x="117" y="458"/>
      <point x="95" y="472" type="curve" smooth="yes"/>
      <point x="73" y="486"/>
      <point x="59" y="507"/>
      <point x="59" y="536" type="curve" smooth="yes"/>
      <point x="59" y="563"/>
      <point x="77" y="597"/>
      <point x="101" y="634" type="curve" smooth="yes"/>
      <point x="125" y="671"/>
      <point x="152" y="707"/>
      <point x="181" y="736" type="curve" smooth="yes"/>
      <point x="196" y="751"/>
      <point x="210" y="763"/>
      <point x="225" y="772" type="curve"/>
      <point x="224" y="771" type="line"/>
      <point x="267" y="804"/>
      <point x="337" y="827"/>
      <point x="406" y="827" type="curve" smooth="yes"/>
      <point x="470" y="827"/>
      <point x="535" y="806"/>
      <point x="582" y="762" type="curve" smooth="yes"/>
      <point x="621" y="727"/>
      <point x="640" y="683"/>
      <point x="640" y="638" type="curve" smooth="yes"/>
      <point x="640" y="586"/>
      <point x="619" y="531"/>
      <point x="589" y="479" type="curve" smooth="yes"/>
      <point x="559" y="427"/>
      <point x="521" y="379"/>
      <point x="489" y="339" type="curve" smooth="yes"/>
      <point x="442" y="280"/>
      <point x="379" y="224"/>
      <point x="315" y="165" type="curve"/>
      <point x="321" y="165" type="line" smooth="yes"/>
      <point x="354" y="165"/>
      <point x="389" y="162"/>
      <point x="417" y="157" type="curve" smooth="yes"/>
      <point x="445" y="152"/>
      <point x="467" y="143"/>
      <point x="476" y="132" type="curve"/>
      <point x="491" y="120"/>
      <point x="499" y="97"/>
      <point x="499" y="73" type="curve" smooth="yes"/>
      <point x="499" y="50"/>
      <point x="493" y="23"/>
      <point x="482" y="-1" type="curve" smooth="yes"/>
      <point x="470" y="-26"/>
      <point x="454" y="-50"/>
      <point x="435" y="-65" type="curve"/>
      <point x="418" y="-81"/>
      <point x="378" y="-93"/>
      <point x="330" y="-102" type="curve" smooth="yes"/>
      <point x="281" y="-111"/>
      <point x="223" y="-116"/>
      <point x="168" y="-116" type="curve" smooth="yes"/>
      <point x="112" y="-116"/>
      <point x="61" y="-109"/>
      <point x="26" y="-96" type="curve" smooth="yes"/>
      <point x="-9" y="-83"/>
      <point x="-27" y="-62"/>
      <point x="-19" y="-33" type="curve" smooth="yes"/>
      <point x="-17" y="-26"/>
      <point x="-20" y="-18"/>
      <point x="-27" y="-10" type="curve"/>
      <point x="-36" y="3"/>
      <point x="-46" y="14"/>
      <point x="-46" y="37" type="curve" smooth="yes"/>
      <point x="-46" y="49"/>
      <point x="-42" y="66"/>
      <point x="-31" y="86" type="curve" smooth="yes"/>
      <point x="-18" y="109"/>
      <point x="-7" y="125"/>
      <point x="4" y="139" type="curve" smooth="yes"/>
      <point x="15" y="153"/>
      <point x="25" y="165"/>
      <point x="38" y="180" type="curve" smooth="yes"/>
      <point x="68" y="214" type="line" smooth="yes"/>
      <point x="103" y="253"/>
      <point x="139" y="293"/>
      <point x="172" y="328" type="curve" smooth="yes"/>
      <point x="228" y="387"/>
      <point x="279" y="441"/>
      <point x="326" y="505" type="curve"/>
      <point x="326" y="504" type="line"/>
      <point x="341" y="527"/>
      <point x="354" y="547"/>
      <point x="361" y="568" type="curve"/>
      <point x="352" y="558"/>
      <point x="344" y="547"/>
      <point x="339" y="535" type="curve"/>
    </contour>
    <contour>
      <point x="301" y="549" type="line"/>
      <point x="314" y="584"/>
      <point x="330" y="594"/>
      <point x="349" y="613" type="curve" smooth="yes"/>
      <point x="352" y="616"/>
      <point x="355" y="619"/>
      <point x="360" y="624" type="curve"/>
      <point x="368" y="633"/>
      <point x="379" y="644"/>
      <point x="389" y="649" type="curve"/>
      <point x="394" y="651"/>
      <point x="398" y="651"/>
      <point x="403" y="649" type="curve"/>
      <point x="414" y="648"/>
      <point x="420" y="642"/>
      <point x="420" y="629" type="curve" smooth="yes"/>
      <point x="420" y="604"/>
      <point x="406" y="565"/>
      <point x="386" y="528" type="curve" smooth="yes"/>
      <point x="376" y="509"/>
      <point x="367" y="494"/>
      <point x="358" y="481" type="curve" smooth="yes"/>
      <point x="309" y="413"/>
      <point x="253" y="352"/>
      <point x="202" y="300" type="curve" smooth="yes"/>
      <point x="186" y="283"/>
      <point x="169" y="265"/>
      <point x="151" y="246" type="curve" smooth="yes"/>
      <point x="132" y="227"/>
      <point x="115" y="207"/>
      <point x="98" y="188" type="curve" smooth="yes"/>
      <point x="68" y="154" type="line" smooth="yes"/>
      <point x="44" y="126"/>
      <point x="26" y="105"/>
      <point x="3" y="66" type="curve" smooth="yes"/>
      <point x="-4" y="55"/>
      <point x="-6" y="44"/>
      <point x="-6" y="37" type="curve" smooth="yes"/>
      <point x="-6" y="28"/>
      <point x="0" y="21"/>
      <point x="5" y="13" type="curve"/>
      <point x="5" y="14" type="line"/>
      <point x="17" y="-2"/>
      <point x="28" y="-17"/>
      <point x="19" y="-45" type="curve"/>
      <point x="17" y="-50"/>
      <point x="20" y="-55"/>
      <point x="27" y="-59" type="curve" smooth="yes"/>
      <point x="42" y="-67"/>
      <point x="71" y="-72"/>
      <point x="108" y="-74" type="curve" smooth="yes"/>
      <point x="127" y="-75"/>
      <point x="147" y="-76"/>
      <point x="168" y="-76" type="curve" smooth="yes"/>
      <point x="219" y="-76"/>
      <point x="273" y="-72"/>
      <point x="318" y="-64" type="curve" smooth="yes"/>
      <point x="363" y="-57"/>
      <point x="398" y="-46"/>
      <point x="411" y="-33" type="curve"/>
      <point x="440" y="-10"/>
      <point x="459" y="37"/>
      <point x="459" y="73" type="curve" smooth="yes"/>
      <point x="459" y="88"/>
      <point x="455" y="98"/>
      <point x="447" y="103" type="curve"/>
      <point x="442" y="111"/>
      <point x="425" y="116"/>
      <point x="402" y="120" type="curve"/>
      <point x="378" y="123"/>
      <point x="350" y="125"/>
      <point x="321" y="125" type="curve" smooth="yes"/>
      <point x="312" y="125"/>
      <point x="304" y="125"/>
      <point x="296" y="125" type="curve"/>
      <point x="287" y="124"/>
      <point x="279" y="124"/>
      <point x="271" y="124" type="curve"/>
      <point x="259" y="121"/>
      <point x="247" y="129"/>
      <point x="242" y="137" type="curve" smooth="yes"/>
      <point x="237" y="145"/>
      <point x="238" y="155"/>
      <point x="251" y="160" type="curve"/>
      <point x="274" y="182" type="line"/>
      <point x="275" y="182" type="line"/>
      <point x="336" y="239"/>
      <point x="402" y="300"/>
      <point x="457" y="365" type="curve"/>
      <point x="486" y="402"/>
      <point x="523" y="449"/>
      <point x="551" y="497" type="curve" smooth="yes"/>
      <point x="579" y="545"/>
      <point x="600" y="594"/>
      <point x="600" y="638" type="curve" smooth="yes"/>
      <point x="600" y="673"/>
      <point x="587" y="704"/>
      <point x="555" y="732" type="curve"/>
      <point x="516" y="771"/>
      <point x="462" y="787"/>
      <point x="406" y="787" type="curve" smooth="yes"/>
      <point x="345" y="787"/>
      <point x="284" y="768"/>
      <point x="245" y="737" type="curve"/>
      <point x="220" y="721"/>
      <point x="193" y="692"/>
      <point x="169" y="660" type="curve" smooth="yes"/>
      <point x="144" y="628"/>
      <point x="121" y="591"/>
      <point x="104" y="559" type="curve"/>
      <point x="104" y="560" type="line"/>
      <point x="101" y="553"/>
      <point x="99" y="545"/>
      <point x="99" y="536" type="curve" smooth="yes"/>
      <point x="99" y="505"/>
      <point x="136" y="491"/>
      <point x="179" y="491" type="curve" smooth="yes"/>
      <point x="206" y="491"/>
      <point x="233" y="497"/>
      <point x="256" y="506" type="curve" smooth="yes"/>
      <point x="279" y="515"/>
      <point x="296" y="530"/>
      <point x="301" y="547" type="curve"/>
    </contour>
  </outline>
</glyph>
<glyph name="three" format="1">
  <advance width="597"/>
  <unicode hex="0033"/>
  <outline>
    <contour>
      <point x="149" y="274"/>
      <point x="136" y="295"/>
      <point x="136" y="323" type="curve" smooth="yes"/>
      <point x="136" y="351"/>
      <point x="159" y="389"/>
      <point x="188" y="420" type="curve"/>
      <point x="208" y="443"/>
      <point x="229" y="461"/>
      <point x="250" y="480" type="curve"/>
      <point x="251" y="480" type="line"/>
      <point x="288" y="515"/>
      <point x="332" y="552"/>
      <point x="357" y="587" type="curve"/>
      <point x="319" y="574" type="line" smooth="yes"/>
      <point x="284" y="563"/>
      <point x="261" y="556"/>
      <point x="241" y="556" type="curve" smooth="yes"/>
      <point x="219" y="556"/>
      <point x="200" y="565"/>
      <point x="183" y="582" type="curve"/>
      <point x="184" y="582" type="line"/>
      <point x="172" y="594"/>
      <point x="161" y="623"/>
      <point x="161" y="650" type="curve" smooth="yes"/>
      <point x="161" y="682"/>
      <point x="174" y="714"/>
      <point x="214" y="722" type="curve"/>
      <point x="213" y="721" type="line"/>
      <point x="220" y="724"/>
      <point x="222" y="726"/>
      <point x="226" y="733" type="curve"/>
      <point x="237" y="748"/>
      <point x="247" y="765"/>
      <point x="275" y="772" type="curve"/>
      <point x="273" y="772" type="line"/>
      <point x="278" y="774"/>
      <point x="284" y="776"/>
      <point x="289" y="777" type="curve" smooth="yes"/>
      <point x="294" y="778"/>
      <point x="299" y="780"/>
      <point x="305" y="783" type="curve"/>
      <point x="356" y="802"/>
      <point x="415" y="825"/>
      <point x="471" y="825" type="curve" smooth="yes"/>
      <point x="494" y="825"/>
      <point x="518" y="819"/>
      <point x="538" y="811" type="curve"/>
      <point x="594" y="784"/>
      <point x="639" y="734"/>
      <point x="639" y="657" type="curve" smooth="yes"/>
      <point x="639" y="621"/>
      <point x="628" y="577"/>
      <point x="605" y="526" type="curve"/>
      <point x="574" y="478"/>
      <point x="544" y="452"/>
      <point x="496" y="416" type="curve"/>
      <point x="556" y="391"/>
      <point x="582" y="334"/>
      <point x="582" y="265" type="curve" smooth="yes"/>
      <point x="582" y="201"/>
      <point x="559" y="130"/>
      <point x="520" y="62" type="curve" smooth="yes"/>
      <point x="485" y="5"/>
      <point x="431" y="-33"/>
      <point x="368" y="-57" type="curve" smooth="yes"/>
      <point x="305" y="-81"/>
      <point x="236" y="-92"/>
      <point x="173" y="-99" type="curve"/>
      <point x="69" y="-106"/>
      <point x="-6" y="-71"/>
      <point x="-19" y="-12" type="curve"/>
      <point x="-19" y="-15" type="line"/>
      <point x="-32" y="24"/>
      <point x="-17" y="68"/>
      <point x="10" y="99" type="curve" smooth="yes"/>
      <point x="37" y="130"/>
      <point x="75" y="147"/>
      <point x="110" y="131" type="curve"/>
      <point x="115" y="130"/>
      <point x="119" y="129"/>
      <point x="123" y="129" type="curve"/>
      <point x="140" y="127"/>
      <point x="154" y="126"/>
      <point x="165" y="126" type="curve" smooth="yes"/>
      <point x="192" y="126"/>
      <point x="216" y="133"/>
      <point x="268" y="158" type="curve" smooth="yes"/>
      <point x="284" y="166"/>
      <point x="303" y="181"/>
      <point x="319" y="197" type="curve" smooth="yes"/>
      <point x="334" y="213"/>
      <point x="344" y="231"/>
      <point x="344" y="243" type="curve" smooth="yes"/>
      <point x="344" y="245"/>
      <point x="339" y="246"/>
      <point x="330" y="247" type="curve"/>
      <point x="314" y="247" type="line" smooth="yes"/>
      <point x="285" y="247"/>
      <point x="240" y="247"/>
      <point x="184" y="263" type="curve" smooth="yes"/>
    </contour>
    <contour>
      <point x="245" y="286"/>
      <point x="287" y="287"/>
      <point x="314" y="287" type="curve" smooth="yes"/>
      <point x="331" y="287" type="line" smooth="yes"/>
      <point x="370" y="286"/>
      <point x="384" y="270"/>
      <point x="384" y="243" type="curve" smooth="yes"/>
      <point x="384" y="224"/>
      <point x="370" y="200"/>
      <point x="351" y="177" type="curve" smooth="yes"/>
      <point x="331" y="154"/>
      <point x="307" y="133"/>
      <point x="286" y="122" type="curve" smooth="yes"/>
      <point x="235" y="97"/>
      <point x="196" y="86"/>
      <point x="165" y="86" type="curve" smooth="yes"/>
      <point x="150" y="86"/>
      <point x="135" y="87"/>
      <point x="119" y="89" type="curve"/>
      <point x="116" y="89"/>
      <point x="113" y="89"/>
      <point x="109" y="90" type="curve" smooth="yes"/>
      <point x="105" y="91"/>
      <point x="102" y="91"/>
      <point x="99" y="91" type="curve"/>
      <point x="78" y="103"/>
      <point x="52" y="93"/>
      <point x="36" y="74" type="curve" smooth="yes"/>
      <point x="19" y="55"/>
      <point x="9" y="28"/>
      <point x="17" y="4" type="curve"/>
      <point x="26" y="-39"/>
      <point x="87" y="-64"/>
      <point x="171" y="-59" type="curve"/>
      <point x="170" y="-59" type="line"/>
      <point x="226" y="-54"/>
      <point x="291" y="-40"/>
      <point x="348" y="-18" type="curve" smooth="yes"/>
      <point x="404" y="4"/>
      <point x="455" y="35"/>
      <point x="486" y="82" type="curve"/>
      <point x="521" y="142"/>
      <point x="542" y="209"/>
      <point x="542" y="265" type="curve" smooth="yes"/>
      <point x="542" y="329"/>
      <point x="498" y="381"/>
      <point x="393" y="393" type="curve"/>
      <point x="450" y="432" type="line"/>
      <point x="449" y="431" type="line"/>
      <point x="508" y="474"/>
      <point x="544" y="503"/>
      <point x="571" y="544" type="curve"/>
      <point x="590" y="585"/>
      <point x="599" y="628"/>
      <point x="599" y="657" type="curve" smooth="yes"/>
      <point x="599" y="718"/>
      <point x="566" y="756"/>
      <point x="522" y="775" type="curve" smooth="yes"/>
      <point x="507" y="782"/>
      <point x="490" y="785"/>
      <point x="471" y="785" type="curve" smooth="yes"/>
      <point x="423" y="785"/>
      <point x="367" y="765"/>
      <point x="320" y="746" type="curve"/>
      <point x="321" y="747" type="line"/>
      <point x="290" y="735" type="line"/>
      <point x="271" y="731"/>
      <point x="267" y="721"/>
      <point x="260" y="712" type="curve"/>
      <point x="260" y="713" type="line"/>
      <point x="251" y="698"/>
      <point x="241" y="687"/>
      <point x="222" y="682" type="curve" smooth="yes"/>
      <point x="206" y="678"/>
      <point x="201" y="665"/>
      <point x="201" y="650" type="curve" smooth="yes"/>
      <point x="201" y="633"/>
      <point x="205" y="617"/>
      <point x="212" y="610" type="curve" smooth="yes"/>
      <point x="221" y="601"/>
      <point x="230" y="596"/>
      <point x="241" y="596" type="curve" smooth="yes"/>
      <point x="256" y="596"/>
      <point x="279" y="603"/>
      <point x="307" y="612" type="curve" smooth="yes"/>
      <point x="319" y="616"/>
      <point x="340" y="622"/>
      <point x="362" y="628" type="curve" smooth="yes"/>
      <point x="373" y="631"/>
      <point x="383" y="634"/>
      <point x="394" y="637" type="curve" smooth="yes"/>
      <point x="405" y="640"/>
      <point x="414" y="642"/>
      <point x="422" y="644" type="curve"/>
      <point x="410" y="601"/>
      <point x="388" y="565"/>
      <point x="362" y="534" type="curve" smooth="yes"/>
      <point x="336" y="502"/>
      <point x="305" y="475"/>
      <point x="277" y="450" type="curve"/>
      <point x="278" y="450" type="line"/>
      <point x="251" y="426"/>
      <point x="225" y="401"/>
      <point x="218" y="394" type="curve"/>
      <point x="191" y="369"/>
      <point x="176" y="342"/>
      <point x="176" y="323" type="curve" smooth="yes"/>
      <point x="176" y="312"/>
      <point x="183" y="305"/>
      <point x="196" y="301" type="curve" smooth="yes"/>
    </contour>
  </outline>
</glyph>
<glyph name="four" format="1">
  <advance width="588"/>
  <unicode hex="0034"/>
  <outline>
    <contour>
      <point x="418" y="55"/>
      <point x="410" y="31"/>
      <point x="403" y="7" type="curve" smooth="yes"/>
      <point x="388" y="-42"/>
      <point x="367" y="-85"/>
      <point x="334" y="-111" type="curve" smooth="yes"/>
      <point x="317" y="-124"/>
      <point x="297" y="-131"/>
      <point x="272" y="-131" type="curve" smooth="yes"/>
      <point x="229" y="-131"/>
      <point x="188" y="-107"/>
      <point x="161" y="-59" type="curve"/>
      <point x="157" y="-44"/>
      <point x="160" y="-31"/>
      <point x="163" y="-16" type="curve"/>
      <point x="163" y="-12" type="line"/>
      <point x="163" y="-13" type="line"/>
      <point x="162" y="-13"/>
      <point x="161" y="-13"/>
      <point x="160" y="-12" type="curve"/>
      <point x="159" y="-12"/>
      <point x="157" y="-12"/>
      <point x="156" y="-12" type="curve"/>
      <point x="133" y="-7"/>
      <point x="111" y="-1"/>
      <point x="111" y="36" type="curve"/>
      <point x="122" y="80" type="line" smooth="yes"/>
      <point x="131" y="119"/>
      <point x="140" y="158"/>
      <point x="163" y="194" type="curve"/>
      <point x="140" y="191"/>
      <point x="118" y="191"/>
      <point x="102" y="191" type="curve" smooth="yes"/>
      <point x="58" y="191"/>
      <point x="34" y="199"/>
      <point x="3" y="234" type="curve"/>
      <point x="-24" y="267"/>
      <point x="-39" y="291"/>
      <point x="-39" y="322" type="curve" smooth="yes"/>
      <point x="-39" y="357"/>
      <point x="-19" y="394"/>
      <point x="26" y="453" type="curve" smooth="yes"/>
      <point x="82" y="525"/>
      <point x="130" y="584"/>
      <point x="183" y="638" type="curve" smooth="yes"/>
      <point x="235" y="692"/>
      <point x="292" y="742"/>
      <point x="365" y="799" type="curve"/>
      <point x="392" y="818"/>
      <point x="434" y="831"/>
      <point x="466" y="831" type="curve"/>
      <point x="494" y="830"/>
      <point x="521" y="827"/>
      <point x="543" y="816" type="curve"/>
      <point x="565" y="804"/>
      <point x="582" y="783"/>
      <point x="591" y="750" type="curve"/>
      <point x="599" y="742"/>
      <point x="605" y="732"/>
      <point x="609" y="720" type="curve"/>
      <point x="609" y="721" type="line"/>
      <point x="621" y="684"/>
      <point x="597" y="647"/>
      <point x="576" y="612" type="curve"/>
      <point x="565" y="596"/>
      <point x="556" y="582"/>
      <point x="553" y="571" type="curve" smooth="yes"/>
      <point x="532" y="491" type="line" smooth="yes"/>
      <point x="528" y="476"/>
      <point x="525" y="462"/>
      <point x="522" y="450" type="curve" smooth="yes"/>
      <point x="519" y="437"/>
      <point x="516" y="425"/>
      <point x="513" y="412" type="curve" smooth="yes"/>
      <point x="507" y="386" type="line"/>
      <point x="515" y="386" type="line"/>
      <point x="515" y="386"/>
      <point x="516" y="386"/>
      <point x="517" y="387" type="curve"/>
      <point x="518" y="387"/>
      <point x="518" y="387"/>
      <point x="519" y="388" type="curve"/>
      <point x="531" y="393"/>
      <point x="545" y="399"/>
      <point x="558" y="400" type="curve" smooth="yes"/>
      <point x="571" y="401"/>
      <point x="584" y="397"/>
      <point x="593" y="382" type="curve"/>
      <point x="604" y="367"/>
      <point x="607" y="350"/>
      <point x="607" y="334" type="curve" smooth="yes"/>
      <point x="607" y="285"/>
      <point x="572" y="254"/>
      <point x="476" y="241" type="curve"/>
      <point x="474" y="240"/>
      <point x="473" y="240"/>
      <point x="474" y="241" type="curve"/>
      <point x="474" y="241"/>
      <point x="473" y="241"/>
      <point x="471" y="241" type="curve"/>
      <point x="464" y="217"/>
      <point x="457" y="191"/>
      <point x="450" y="163" type="curve" smooth="yes"/>
      <point x="442" y="135"/>
      <point x="435" y="110"/>
      <point x="428" y="88" type="curve"/>
      <point x="429" y="91" type="line"/>
      <point x="428" y="88"/>
      <point x="428" y="86"/>
      <point x="427" y="85" type="curve" smooth="yes"/>
      <point x="426" y="84"/>
      <point x="426" y="81"/>
      <point x="425" y="78" type="curve" smooth="yes"/>
    </contour>
    <contour>
      <point x="315" y="-91"/>
      <point x="353" y="-47"/>
      <point x="364" y="17" type="curve"/>
      <point x="369" y="26"/>
      <point x="373" y="36"/>
      <point x="376" y="47" type="curve"/>
      <point x="378" y="57"/>
      <point x="381" y="68"/>
      <point x="384" y="79" type="curve"/>
      <point x="385" y="82"/>
      <point x="386" y="85"/>
      <point x="387" y="88" type="curve"/>
      <point x="388" y="90"/>
      <point x="388" y="93"/>
      <point x="389" y="96" type="curve"/>
      <point x="392" y="108"/>
      <point x="396" y="122"/>
      <point x="401" y="138" type="curve" smooth="yes"/>
      <point x="410" y="170"/>
      <point x="420" y="204"/>
      <point x="429" y="237" type="curve" smooth="yes"/>
      <point x="433" y="253"/>
      <point x="437" y="267"/>
      <point x="440" y="279" type="curve"/>
      <point x="445" y="279"/>
      <point x="450" y="279"/>
      <point x="455" y="279" type="curve" smooth="yes"/>
      <point x="459" y="279"/>
      <point x="463" y="280"/>
      <point x="467" y="281" type="curve"/>
      <point x="539" y="303" type="line"/>
      <point x="554" y="303"/>
      <point x="567" y="318"/>
      <point x="567" y="334" type="curve" smooth="yes"/>
      <point x="567" y="343"/>
      <point x="564" y="352"/>
      <point x="559" y="360" type="curve"/>
      <point x="556" y="364"/>
      <point x="555" y="366"/>
      <point x="554" y="366" type="curve" smooth="yes"/>
      <point x="553" y="366"/>
      <point x="551" y="365"/>
      <point x="550" y="364" type="curve"/>
      <point x="547" y="360"/>
      <point x="544" y="355"/>
      <point x="535" y="351" type="curve"/>
      <point x="522" y="346" type="line"/>
      <point x="515" y="347"/>
      <point x="510" y="347"/>
      <point x="507" y="347" type="curve"/>
      <point x="504" y="346"/>
      <point x="501" y="346"/>
      <point x="500" y="346" type="curve" smooth="yes"/>
      <point x="500" y="346"/>
      <point x="498" y="346"/>
      <point x="495" y="346" type="curve" smooth="yes"/>
      <point x="492" y="346"/>
      <point x="488" y="346"/>
      <point x="483" y="346" type="curve"/>
      <point x="478" y="345"/>
      <point x="474" y="345"/>
      <point x="469" y="345" type="curve" smooth="yes"/>
      <point x="464" y="345"/>
      <point x="460" y="345"/>
      <point x="456" y="345" type="curve"/>
      <point x="475" y="422" type="line" smooth="yes"/>
      <point x="478" y="435"/>
      <point x="481" y="447"/>
      <point x="484" y="460" type="curve" smooth="yes"/>
      <point x="487" y="472"/>
      <point x="490" y="486"/>
      <point x="494" y="501" type="curve" smooth="yes"/>
      <point x="515" y="581" type="line"/>
      <point x="522" y="598"/>
      <point x="531" y="615"/>
      <point x="542" y="634" type="curve"/>
      <point x="559" y="661"/>
      <point x="578" y="690"/>
      <point x="571" y="709" type="curve"/>
      <point x="569" y="716"/>
      <point x="562" y="723"/>
      <point x="551" y="731" type="curve"/>
      <point x="551" y="747" type="line"/>
      <point x="546" y="766"/>
      <point x="534" y="777"/>
      <point x="519" y="783" type="curve" smooth="yes"/>
      <point x="503" y="789"/>
      <point x="485" y="790"/>
      <point x="465" y="791" type="curve"/>
      <point x="440" y="791"/>
      <point x="408" y="782"/>
      <point x="389" y="767" type="curve" smooth="yes"/>
      <point x="314" y="710"/>
      <point x="260" y="660"/>
      <point x="209" y="608" type="curve" smooth="yes"/>
      <point x="158" y="556"/>
      <point x="113" y="500"/>
      <point x="58" y="429" type="curve" smooth="yes"/>
      <point x="26" y="385"/>
      <point x="1" y="345"/>
      <point x="1" y="322" type="curve" smooth="yes"/>
      <point x="1" y="303"/>
      <point x="13" y="284"/>
      <point x="33" y="260" type="curve"/>
      <point x="52" y="239"/>
      <point x="71" y="231"/>
      <point x="102" y="231" type="curve" smooth="yes"/>
      <point x="117" y="231"/>
      <point x="136" y="232"/>
      <point x="160" y="234" type="curve"/>
      <point x="221" y="236" type="line"/>
      <point x="198" y="174" type="line"/>
      <point x="177" y="142"/>
      <point x="169" y="107"/>
      <point x="161" y="71" type="curve"/>
      <point x="162" y="72" type="line"/>
      <point x="161" y="65"/>
      <point x="159" y="58"/>
      <point x="157" y="52" type="curve"/>
      <point x="154" y="46"/>
      <point x="152" y="39"/>
      <point x="151" y="32" type="curve"/>
      <point x="152" y="31"/>
      <point x="153" y="31"/>
      <point x="156" y="31" type="curve"/>
      <point x="158" y="30"/>
      <point x="161" y="29"/>
      <point x="164" y="28" type="curve"/>
      <point x="175" y="25"/>
      <point x="187" y="23"/>
      <point x="206" y="7" type="curve"/>
      <point x="206" y="6"/>
      <point x="204" y="-13"/>
      <point x="203" y="-21" type="curve"/>
      <point x="202" y="-26"/>
      <point x="201" y="-31"/>
      <point x="200" y="-36" type="curve" smooth="yes"/>
      <point x="199" y="-41"/>
      <point x="199" y="-44"/>
      <point x="198" y="-44" type="curve"/>
      <point x="217" y="-75"/>
      <point x="245" y="-91"/>
      <point x="272" y="-91" type="curve" smooth="yes"/>
    </contour>
    <contour>
      <point x="305" y="488" type="line"/>
      <point x="304" y="482"/>
      <point x="300" y="471"/>
      <point x="293" y="455" type="curve" smooth="yes"/>
      <point x="279" y="422"/>
      <point x="265" y="389"/>
      <point x="255" y="362" type="curve" smooth="yes"/>
      <point x="250" y="349"/>
      <point x="246" y="337"/>
      <point x="243" y="328" type="curve"/>
      <point x="189" y="313" type="line" smooth="yes"/>
      <point x="177" y="310"/>
      <point x="167" y="307"/>
      <point x="158" y="304" type="curve" smooth="yes"/>
      <point x="149" y="301"/>
      <point x="141" y="300"/>
      <point x="135" y="300" type="curve" smooth="yes"/>
      <point x="103" y="300"/>
      <point x="93" y="310"/>
      <point x="113" y="342" type="curve" smooth="yes"/>
      <point x="123" y="357"/>
      <point x="141" y="378"/>
      <point x="167" y="405" type="curve" smooth="yes"/>
      <point x="192" y="432"/>
      <point x="227" y="466"/>
      <point x="271" y="507" type="curve"/>
    </contour>
    <contour>
      <point x="210" y="359" type="line"/>
      <point x="212" y="366"/>
      <point x="215" y="375"/>
      <point x="220" y="385" type="curve"/>
      <point x="224" y="394"/>
      <point x="228" y="404"/>
      <point x="233" y="415" type="curve"/>
      <point x="216" y="399"/>
      <point x="202" y="385"/>
      <point x="191" y="374" type="curve" smooth="yes"/>
      <point x="180" y="363"/>
      <point x="170" y="353"/>
      <point x="163" y="346" type="curve"/>
      <point x="178" y="351" type="line"/>
    </contour>
  </outline>
</glyph>
<glyph name="five" format="1">
  <advance width="603"/>
  <unicode hex="0035"/>
  <outline>
    <contour>
      <point x="304" y="777"/>
      <point x="338" y="781"/>
      <point x="378" y="785" type="curve" smooth="yes"/>
      <point x="430" y="792"/>
      <point x="490" y="796"/>
      <point x="535" y="796" type="curve" smooth="yes"/>
      <point x="590" y="796"/>
      <point x="626" y="789"/>
      <point x="629" y="758" type="curve"/>
      <point x="634" y="743"/>
      <point x="636" y="728"/>
      <point x="636" y="713" type="curve" smooth="yes"/>
      <point x="636" y="650"/>
      <point x="593" y="611"/>
      <point x="540" y="599" type="curve" smooth="yes"/>
      <point x="504" y="591"/>
      <point x="473" y="584"/>
      <point x="434" y="584" type="curve" smooth="yes"/>
      <point x="423" y="584"/>
      <point x="414" y="585"/>
      <point x="403" y="586" type="curve"/>
      <point x="395" y="586"/>
      <point x="387" y="587"/>
      <point x="380" y="588" type="curve"/>
      <point x="369" y="569"/>
      <point x="350" y="540"/>
      <point x="331" y="512" type="curve" smooth="yes"/>
      <point x="305" y="473" type="line"/>
      <point x="332" y="480"/>
      <point x="361" y="484"/>
      <point x="392" y="484" type="curve" smooth="yes"/>
      <point x="427" y="484"/>
      <point x="459" y="480"/>
      <point x="483" y="469" type="curve" smooth="yes"/>
      <point x="571" y="429"/>
      <point x="598" y="366"/>
      <point x="598" y="301" type="curve" smooth="yes"/>
      <point x="598" y="250"/>
      <point x="583" y="201"/>
      <point x="568" y="160" type="curve" smooth="yes"/>
      <point x="549" y="107"/>
      <point x="516" y="61"/>
      <point x="477" y="23" type="curve" smooth="yes"/>
      <point x="437" y="-15"/>
      <point x="391" y="-45"/>
      <point x="350" y="-62" type="curve" smooth="yes"/>
      <point x="305" y="-81"/>
      <point x="254" y="-90"/>
      <point x="198" y="-90" type="curve" smooth="yes"/>
      <point x="153" y="-90"/>
      <point x="101" y="-81"/>
      <point x="54" y="-68" type="curve"/>
      <point x="-6" y="-49"/>
      <point x="-40" y="3"/>
      <point x="-40" y="50" type="curve" smooth="yes"/>
      <point x="-40" y="75"/>
      <point x="-31" y="100"/>
      <point x="-13" y="118" type="curve" smooth="yes"/>
      <point x="5" y="136"/>
      <point x="33" y="147"/>
      <point x="70" y="147" type="curve" smooth="yes"/>
      <point x="83" y="147"/>
      <point x="98" y="145"/>
      <point x="116" y="141" type="curve" smooth="yes"/>
      <point x="139" y="136"/>
      <point x="161" y="133"/>
      <point x="180" y="133" type="curve" smooth="yes"/>
      <point x="221" y="133"/>
      <point x="252" y="152"/>
      <point x="284" y="209" type="curve"/>
      <point x="289" y="217"/>
      <point x="297" y="237"/>
      <point x="297" y="253" type="curve" smooth="yes"/>
      <point x="297" y="258"/>
      <point x="297" y="260"/>
      <point x="296" y="261" type="curve"/>
      <point x="287" y="264"/>
      <point x="254" y="260"/>
      <point x="221" y="253" type="curve" smooth="yes"/>
      <point x="186" y="246"/>
      <point x="147" y="240"/>
      <point x="112" y="240" type="curve" smooth="yes"/>
      <point x="64" y="240"/>
      <point x="27" y="254"/>
      <point x="27" y="299" type="curve"/>
      <point x="24" y="322"/>
      <point x="23" y="337"/>
      <point x="20" y="350" type="curve"/>
      <point x="16" y="362"/>
      <point x="13" y="373"/>
      <point x="9" y="386" type="curve"/>
      <point x="29" y="442"/>
      <point x="54" y="488"/>
      <point x="78" y="533" type="curve" smooth="yes"/>
      <point x="98" y="569" type="line"/>
      <point x="107" y="596"/>
      <point x="115" y="614"/>
      <point x="122" y="628" type="curve" smooth="yes"/>
      <point x="129" y="642"/>
      <point x="134" y="652"/>
      <point x="141" y="663" type="curve"/>
      <point x="146" y="673" type="line"/>
      <point x="139" y="710"/>
      <point x="158" y="737"/>
      <point x="186" y="753" type="curve" smooth="yes"/>
      <point x="213" y="769"/>
      <point x="249" y="776"/>
      <point x="277" y="776" type="curve"/>
    </contour>
    <contour>
      <point x="277" y="736" type="line" smooth="yes"/>
      <point x="257" y="736"/>
      <point x="232" y="732"/>
      <point x="213" y="721" type="curve" smooth="yes"/>
      <point x="193" y="710"/>
      <point x="181" y="694"/>
      <point x="189" y="667" type="curve"/>
      <point x="186" y="660"/>
      <point x="185" y="658"/>
      <point x="187" y="661" type="curve"/>
      <point x="188" y="663"/>
      <point x="190" y="665"/>
      <point x="193" y="666" type="curve"/>
      <point x="146" y="575" type="line" smooth="yes"/>
      <point x="144" y="571"/>
      <point x="142" y="567"/>
      <point x="140" y="563" type="curve"/>
      <point x="137" y="559"/>
      <point x="135" y="555"/>
      <point x="133" y="550" type="curve"/>
      <point x="117" y="521" type="line"/>
      <point x="118" y="521" type="line"/>
      <point x="91" y="474"/>
      <point x="66" y="426"/>
      <point x="49" y="379" type="curve"/>
      <point x="69" y="355"/>
      <point x="69" y="331"/>
      <point x="72" y="312" type="curve" smooth="yes"/>
      <point x="75" y="293"/>
      <point x="80" y="280"/>
      <point x="112" y="280" type="curve" smooth="yes"/>
      <point x="141" y="280"/>
      <point x="180" y="286"/>
      <point x="215" y="293" type="curve" smooth="yes"/>
      <point x="255" y="300"/>
      <point x="291" y="305"/>
      <point x="310" y="298" type="curve"/>
      <point x="331" y="287"/>
      <point x="337" y="272"/>
      <point x="337" y="253" type="curve" smooth="yes"/>
      <point x="337" y="229"/>
      <point x="325" y="201"/>
      <point x="318" y="189" type="curve" smooth="yes"/>
      <point x="277" y="120"/>
      <point x="235" y="93"/>
      <point x="180" y="93" type="curve" smooth="yes"/>
      <point x="158" y="93"/>
      <point x="134" y="96"/>
      <point x="107" y="103" type="curve"/>
      <point x="108" y="102" type="line"/>
      <point x="91" y="105"/>
      <point x="79" y="107"/>
      <point x="70" y="107" type="curve" smooth="yes"/>
      <point x="23" y="107"/>
      <point x="0" y="81"/>
      <point x="0" y="50" type="curve" smooth="yes"/>
      <point x="0" y="18"/>
      <point x="23" y="-18"/>
      <point x="66" y="-30" type="curve" smooth="yes"/>
      <point x="110" y="-43"/>
      <point x="154" y="-50"/>
      <point x="198" y="-50" type="curve" smooth="yes"/>
      <point x="245" y="-50"/>
      <point x="290" y="-41"/>
      <point x="334" y="-24" type="curve"/>
      <point x="334" y="-25" type="line"/>
      <point x="370" y="-9"/>
      <point x="410" y="17"/>
      <point x="446" y="52" type="curve" smooth="yes"/>
      <point x="481" y="87"/>
      <point x="511" y="129"/>
      <point x="530" y="174" type="curve"/>
      <point x="542" y="210"/>
      <point x="558" y="264"/>
      <point x="558" y="301" type="curve" smooth="yes"/>
      <point x="558" y="352"/>
      <point x="535" y="402"/>
      <point x="467" y="433" type="curve" smooth="yes"/>
      <point x="448" y="441"/>
      <point x="423" y="444"/>
      <point x="392" y="444" type="curve" smooth="yes"/>
      <point x="341" y="444"/>
      <point x="288" y="433"/>
      <point x="275" y="414" type="curve"/>
      <point x="241" y="433" type="line"/>
      <point x="243" y="439" type="line"/>
      <point x="243" y="440"/>
      <point x="243" y="440"/>
      <point x="244" y="440" type="curve"/>
      <point x="244" y="440"/>
      <point x="244" y="440"/>
      <point x="244" y="441" type="curve"/>
      <point x="262" y="482" type="line"/>
      <point x="299" y="536" type="line"/>
      <point x="298" y="535" type="line"/>
      <point x="308" y="550"/>
      <point x="318" y="565"/>
      <point x="327" y="578" type="curve" smooth="yes"/>
      <point x="336" y="591"/>
      <point x="343" y="602"/>
      <point x="348" y="611" type="curve"/>
      <point x="347" y="610" type="line"/>
      <point x="356" y="628" type="line"/>
      <point x="383" y="628"/>
      <point x="395" y="627"/>
      <point x="407" y="626" type="curve" smooth="yes"/>
      <point x="418" y="625"/>
      <point x="427" y="624"/>
      <point x="434" y="624" type="curve" smooth="yes"/>
      <point x="465" y="624"/>
      <point x="497" y="631"/>
      <point x="532" y="639" type="curve" smooth="yes"/>
      <point x="567" y="648"/>
      <point x="596" y="674"/>
      <point x="596" y="713" type="curve" smooth="yes"/>
      <point x="596" y="724"/>
      <point x="594" y="737"/>
      <point x="589" y="751" type="curve"/>
      <point x="589" y="753"/>
      <point x="584" y="754"/>
      <point x="574" y="755" type="curve" smooth="yes"/>
      <point x="563" y="756"/>
      <point x="550" y="756"/>
      <point x="535" y="756" type="curve" smooth="yes"/>
      <point x="492" y="756"/>
      <point x="435" y="752"/>
      <point x="382" y="745" type="curve" smooth="yes"/>
      <point x="342" y="741"/>
      <point x="305" y="737"/>
      <point x="278" y="736" type="curve"/>
    </contour>
  </outline>
</glyph>
<glyph name="six" format="1">
  <advance width="582"/>
  <unicode hex="0036"/>
  <outline>
    <contour>
      <point x="435" y="807" type="line"/>
      <point x="447" y="811"/>
      <point x="460" y="813"/>
      <point x="473" y="813" type="curve" smooth="yes"/>
      <point x="500" y="813"/>
      <point x="525" y="804"/>
      <point x="542" y="791" type="curve" smooth="yes"/>
      <point x="559" y="778"/>
      <point x="568" y="759"/>
      <point x="563" y="740" type="curve"/>
      <point x="563" y="737"/>
      <point x="568" y="732"/>
      <point x="575" y="728" type="curve"/>
      <point x="590" y="717"/>
      <point x="603" y="706"/>
      <point x="603" y="689" type="curve" smooth="yes"/>
      <point x="603" y="680"/>
      <point x="599" y="671"/>
      <point x="591" y="662" type="curve" smooth="yes"/>
      <point x="583" y="653"/>
      <point x="569" y="642"/>
      <point x="548" y="630" type="curve"/>
      <point x="531" y="623"/>
      <point x="507" y="613"/>
      <point x="488" y="602" type="curve"/>
      <point x="466" y="591" type="line"/>
      <point x="467" y="591" type="line"/>
      <point x="400" y="559"/>
      <point x="347" y="496"/>
      <point x="303" y="428" type="curve"/>
      <point x="330" y="437"/>
      <point x="356" y="442"/>
      <point x="380" y="441" type="curve" smooth="yes"/>
      <point x="425" y="440"/>
      <point x="473" y="412"/>
      <point x="506" y="371" type="curve" smooth="yes"/>
      <point x="538" y="330"/>
      <point x="557" y="274"/>
      <point x="548" y="215" type="curve" smooth="yes"/>
      <point x="529" y="103"/>
      <point x="490" y="26"/>
      <point x="433" y="-23" type="curve" smooth="yes"/>
      <point x="376" y="-72"/>
      <point x="301" y="-93"/>
      <point x="214" y="-93" type="curve"/>
      <point x="130" y="-89"/>
      <point x="72" y="-63"/>
      <point x="33" y="-21" type="curve" smooth="yes"/>
      <point x="-6" y="21"/>
      <point x="-23" y="80"/>
      <point x="-23" y="151" type="curve" smooth="yes"/>
      <point x="-23" y="186"/>
      <point x="-19" y="224"/>
      <point x="-11" y="264" type="curve" smooth="yes"/>
      <point x="18" y="391"/>
      <point x="65" y="502"/>
      <point x="137" y="594" type="curve" smooth="yes"/>
      <point x="208" y="686"/>
      <point x="305" y="758"/>
      <point x="434" y="807" type="curve"/>
    </contour>
    <contour>
      <point x="448" y="769" type="line"/>
      <point x="325" y="722"/>
      <point x="235" y="654"/>
      <point x="168" y="567" type="curve" smooth="yes"/>
      <point x="100" y="480"/>
      <point x="56" y="375"/>
      <point x="28" y="255" type="curve"/>
      <point x="29" y="256" type="line"/>
      <point x="21" y="217"/>
      <point x="17" y="182"/>
      <point x="17" y="151" type="curve" smooth="yes"/>
      <point x="17" y="35"/>
      <point x="83" y="-42"/>
      <point x="216" y="-53" type="curve"/>
      <point x="291" y="-52"/>
      <point x="355" y="-33"/>
      <point x="406" y="11" type="curve" smooth="yes"/>
      <point x="457" y="54"/>
      <point x="492" y="122"/>
      <point x="508" y="221" type="curve" smooth="yes"/>
      <point x="516" y="268"/>
      <point x="501" y="312"/>
      <point x="476" y="345" type="curve" smooth="yes"/>
      <point x="451" y="378"/>
      <point x="414" y="400"/>
      <point x="378" y="401" type="curve" smooth="yes"/>
      <point x="358" y="402"/>
      <point x="329" y="387"/>
      <point x="305" y="372" type="curve"/>
      <point x="292" y="365"/>
      <point x="281" y="359"/>
      <point x="272" y="354" type="curve" smooth="yes"/>
      <point x="263" y="349"/>
      <point x="257" y="349"/>
      <point x="255" y="352" type="curve"/>
      <point x="229" y="366" type="line"/>
      <point x="226" y="370"/>
      <point x="227" y="378"/>
      <point x="232" y="391" type="curve" smooth="yes"/>
      <point x="242" y="415"/>
      <point x="264" y="449"/>
      <point x="296" y="488" type="curve" smooth="yes"/>
      <point x="327" y="527"/>
      <point x="362" y="564"/>
      <point x="398" y="593" type="curve" smooth="yes"/>
      <point x="416" y="608"/>
      <point x="433" y="619"/>
      <point x="449" y="627" type="curve"/>
      <point x="452" y="628"/>
      <point x="456" y="630"/>
      <point x="459" y="632" type="curve" smooth="yes"/>
      <point x="462" y="634"/>
      <point x="466" y="636"/>
      <point x="470" y="638" type="curve"/>
      <point x="469" y="638" type="line"/>
      <point x="488" y="649"/>
      <point x="513" y="660"/>
      <point x="534" y="668" type="curve"/>
      <point x="545" y="675"/>
      <point x="552" y="680"/>
      <point x="557" y="683" type="curve"/>
      <point x="561" y="686"/>
      <point x="563" y="688"/>
      <point x="563" y="689" type="curve" smooth="yes"/>
      <point x="563" y="694"/>
      <point x="563" y="695"/>
      <point x="562" y="694" type="curve"/>
      <point x="561" y="692"/>
      <point x="558" y="693"/>
      <point x="553" y="696" type="curve"/>
      <point x="533" y="709"/>
      <point x="515" y="725"/>
      <point x="527" y="756" type="curve"/>
      <point x="528" y="758"/>
      <point x="527" y="760"/>
      <point x="524" y="763" type="curve"/>
      <point x="519" y="767"/>
      <point x="508" y="770"/>
      <point x="494" y="772" type="curve" smooth="yes"/>
      <point x="487" y="773"/>
      <point x="480" y="773"/>
      <point x="473" y="773" type="curve" smooth="yes"/>
      <point x="462" y="773"/>
      <point x="455" y="772"/>
      <point x="447" y="769" type="curve"/>
    </contour>
    <contour>
      <point x="318" y="246" type="line"/>
      <point x="309" y="247"/>
      <point x="292" y="239"/>
      <point x="276" y="225" type="curve" smooth="yes"/>
      <point x="259" y="211"/>
      <point x="242" y="192"/>
      <point x="235" y="175" type="curve"/>
      <point x="227" y="158"/>
      <point x="227" y="142"/>
      <point x="244" y="135" type="curve"/>
      <point x="295" y="151"/>
      <point x="317" y="174"/>
      <point x="326" y="195" type="curve" smooth="yes"/>
      <point x="335" y="215"/>
      <point x="330" y="236"/>
      <point x="329" y="248" type="curve"/>
    </contour>
    <contour>
      <point x="348" y="295"/>
      <point x="367" y="272"/>
      <point x="369" y="239" type="curve" smooth="yes"/>
      <point x="371" y="206"/>
      <point x="356" y="163"/>
      <point x="326" y="132" type="curve" smooth="yes"/>
      <point x="296" y="100"/>
      <point x="251" y="83"/>
      <point x="192" y="100" type="curve"/>
      <point x="193" y="98" type="line"/>
      <point x="176" y="126"/>
      <point x="181" y="159"/>
      <point x="196" y="188" type="curve" smooth="yes"/>
      <point x="211" y="217"/>
      <point x="234" y="246"/>
      <point x="258" y="264" type="curve"/>
      <point x="269" y="273"/>
      <point x="280" y="279"/>
      <point x="290" y="283" type="curve"/>
      <point x="299" y="287"/>
      <point x="306" y="287"/>
      <point x="311" y="284" type="curve"/>
    </contour>
  </outline>
</glyph>
<glyph name="seven" format="1">
  <advance width="548"/>
  <unicode hex="0037"/>
  <outline>
    <contour>
      <point x="200" y="388"/>
      <point x="247" y="488"/>
      <point x="303" y="561" type="curve"/>
      <point x="210" y="563" type="line" smooth="yes"/>
      <point x="206" y="563"/>
      <point x="200" y="563"/>
      <point x="193" y="563" type="curve" smooth="yes"/>
      <point x="185" y="563"/>
      <point x="177" y="563"/>
      <point x="169" y="563" type="curve" smooth="yes"/>
      <point x="160" y="563"/>
      <point x="152" y="563"/>
      <point x="145" y="564" type="curve"/>
      <point x="137" y="564"/>
      <point x="131" y="564"/>
      <point x="127" y="564" type="curve"/>
      <point x="120" y="565"/>
      <point x="116" y="566"/>
      <point x="105" y="569" type="curve"/>
      <point x="107" y="568" type="line"/>
      <point x="104" y="569"/>
      <point x="102" y="570"/>
      <point x="101" y="570" type="curve"/>
      <point x="66" y="578"/>
      <point x="51" y="604"/>
      <point x="51" y="636" type="curve" smooth="yes"/>
      <point x="51" y="661"/>
      <point x="62" y="692"/>
      <point x="83" y="716" type="curve" smooth="yes"/>
      <point x="103" y="740"/>
      <point x="133" y="759"/>
      <point x="172" y="762" type="curve" smooth="yes"/>
      <point x="269" y="769"/>
      <point x="340" y="781"/>
      <point x="400" y="792" type="curve" smooth="yes"/>
      <point x="420" y="796"/>
      <point x="443" y="799"/>
      <point x="462" y="802" type="curve" smooth="yes"/>
      <point x="478" y="804" type="line" smooth="yes"/>
      <point x="487" y="805"/>
      <point x="496" y="807"/>
      <point x="505" y="809" type="curve"/>
      <point x="514" y="810"/>
      <point x="524" y="811"/>
      <point x="534" y="811" type="curve" smooth="yes"/>
      <point x="573" y="811"/>
      <point x="605" y="799"/>
      <point x="618" y="748" type="curve"/>
      <point x="616" y="731" type="line"/>
      <point x="651" y="714"/>
      <point x="677" y="684"/>
      <point x="677" y="647" type="curve" smooth="yes"/>
      <point x="677" y="624"/>
      <point x="667" y="601"/>
      <point x="647" y="576" type="curve"/>
      <point x="607" y="533"/>
      <point x="568" y="479"/>
      <point x="529" y="421" type="curve" smooth="yes"/>
      <point x="489" y="363"/>
      <point x="452" y="301"/>
      <point x="416" y="242" type="curve" smooth="yes"/>
      <point x="367" y="161"/>
      <point x="309" y="66"/>
      <point x="257" y="-6" type="curve" smooth="yes"/>
      <point x="245" y="-22"/>
      <point x="231" y="-41"/>
      <point x="212" y="-62" type="curve"/>
      <point x="211" y="-65"/>
      <point x="210" y="-65"/>
      <point x="207" y="-68" type="curve"/>
      <point x="204" y="-72" type="line"/>
      <point x="195" y="-79"/>
      <point x="189" y="-84"/>
      <point x="184" y="-89" type="curve"/>
      <point x="175" y="-99"/>
      <point x="165" y="-107"/>
      <point x="146" y="-111" type="curve" smooth="yes"/>
      <point x="137" y="-113"/>
      <point x="123" y="-114"/>
      <point x="105" y="-114" type="curve" smooth="yes"/>
      <point x="90" y="-114"/>
      <point x="78" y="-113"/>
      <point x="69" y="-112" type="curve"/>
      <point x="44" y="-105"/>
      <point x="18" y="-93"/>
      <point x="3" y="-76" type="curve" smooth="yes"/>
      <point x="-12" y="-59"/>
      <point x="-17" y="-42"/>
      <point x="-17" y="-27" type="curve" smooth="yes"/>
      <point x="-17" y="0"/>
      <point x="-1" y="18"/>
      <point x="15" y="38" type="curve"/>
      <point x="22" y="49"/>
      <point x="32" y="61"/>
      <point x="35" y="64" type="curve"/>
      <point x="66" y="112"/>
      <point x="93" y="162"/>
      <point x="118" y="215" type="curve" smooth="yes"/>
      <point x="131" y="241"/>
      <point x="144" y="268"/>
      <point x="157" y="296" type="curve" smooth="yes"/>
    </contour>
    <contour>
      <point x="338" y="541" type="line" smooth="yes"/>
      <point x="279" y="468"/>
      <point x="236" y="373"/>
      <point x="193" y="280" type="curve" smooth="yes"/>
      <point x="180" y="252"/>
      <point x="167" y="224"/>
      <point x="154" y="197" type="curve" smooth="yes"/>
      <point x="141" y="170"/>
      <point x="127" y="144"/>
      <point x="114" y="120" type="curve"/>
      <point x="115" y="121" type="line"/>
      <point x="101" y="95"/>
      <point x="86" y="69"/>
      <point x="69" y="43" type="curve"/>
      <point x="69" y="44" type="line"/>
      <point x="64" y="37"/>
      <point x="60" y="31"/>
      <point x="57" y="27" type="curve"/>
      <point x="49" y="19"/>
      <point x="39" y="5"/>
      <point x="30" y="-8" type="curve" smooth="yes"/>
      <point x="25" y="-15"/>
      <point x="23" y="-21"/>
      <point x="23" y="-27" type="curve" smooth="yes"/>
      <point x="23" y="-40"/>
      <point x="37" y="-56"/>
      <point x="50" y="-64" type="curve" smooth="yes"/>
      <point x="57" y="-68"/>
      <point x="64" y="-71"/>
      <point x="71" y="-72" type="curve"/>
      <point x="69" y="-71" type="line"/>
      <point x="97" y="-75"/>
      <point x="122" y="-75"/>
      <point x="143" y="-67" type="curve" smooth="yes"/>
      <point x="163" y="-59"/>
      <point x="180" y="-45"/>
      <point x="197" y="-22" type="curve" smooth="yes"/>
      <point x="205" y="-11"/>
      <point x="214" y="3"/>
      <point x="225" y="18" type="curve" smooth="yes"/>
      <point x="281" y="97"/>
      <point x="334" y="182"/>
      <point x="382" y="262" type="curve" smooth="yes"/>
      <point x="459" y="389"/>
      <point x="533" y="510"/>
      <point x="617" y="602" type="curve"/>
      <point x="616" y="602" type="line"/>
      <point x="630" y="620"/>
      <point x="637" y="635"/>
      <point x="637" y="647" type="curve" smooth="yes"/>
      <point x="637" y="671"/>
      <point x="607" y="693"/>
      <point x="568" y="706" type="curve"/>
      <point x="578" y="742" type="line"/>
      <point x="570" y="763"/>
      <point x="553" y="771"/>
      <point x="534" y="771" type="curve" smooth="yes"/>
      <point x="528" y="771"/>
      <point x="520" y="770"/>
      <point x="511" y="769" type="curve"/>
      <point x="501" y="767"/>
      <point x="491" y="765"/>
      <point x="482" y="764" type="curve" smooth="yes"/>
      <point x="465" y="762" type="line"/>
      <point x="468" y="762" type="line"/>
      <point x="408" y="752" type="line" smooth="yes"/>
      <point x="351" y="741"/>
      <point x="276" y="729"/>
      <point x="175" y="722" type="curve"/>
      <point x="148" y="719"/>
      <point x="128" y="707"/>
      <point x="113" y="691" type="curve" smooth="yes"/>
      <point x="98" y="674"/>
      <point x="91" y="653"/>
      <point x="91" y="636" type="curve" smooth="yes"/>
      <point x="91" y="623"/>
      <point x="92" y="614"/>
      <point x="103" y="610" type="curve"/>
      <point x="104" y="610"/>
      <point x="106" y="610"/>
      <point x="109" y="609" type="curve"/>
      <point x="111" y="608"/>
      <point x="113" y="608"/>
      <point x="114" y="608" type="curve"/>
      <point x="118" y="607"/>
      <point x="124" y="605"/>
      <point x="132" y="604" type="curve" smooth="yes"/>
      <point x="143" y="603"/>
      <point x="156" y="603"/>
      <point x="171" y="603" type="curve" smooth="yes"/>
      <point x="186" y="603"/>
      <point x="199" y="603"/>
      <point x="210" y="603" type="curve" smooth="yes"/>
      <point x="221" y="603"/>
      <point x="234" y="603"/>
      <point x="249" y="602" type="curve" smooth="yes"/>
      <point x="264" y="601"/>
      <point x="280" y="601"/>
      <point x="296" y="600" type="curve" smooth="yes"/>
      <point x="327" y="599"/>
      <point x="358" y="597"/>
      <point x="381" y="596" type="curve"/>
    </contour>
  </outline>
</glyph>
<glyph name="eight" format="1">
  <advance width="658"/>
  <unicode hex="0038"/>
  <outline>
    <contour>
      <point x="147" y="676"/>
      <point x="192" y="732"/>
      <point x="249" y="771" type="curve" smooth="yes"/>
      <point x="305" y="810"/>
      <point x="373" y="832"/>
      <point x="440" y="829" type="curve"/>
      <point x="450" y="829" type="line" smooth="yes"/>
      <point x="469" y="829"/>
      <point x="492" y="830"/>
      <point x="515" y="823" type="curve"/>
      <point x="538" y="815"/>
      <point x="559" y="800"/>
      <point x="575" y="768" type="curve"/>
      <point x="612" y="771"/>
      <point x="641" y="754"/>
      <point x="661" y="727" type="curve" smooth="yes"/>
      <point x="681" y="699"/>
      <point x="691" y="661"/>
      <point x="691" y="621" type="curve" smooth="yes"/>
      <point x="691" y="602"/>
      <point x="689" y="584"/>
      <point x="684" y="566" type="curve" smooth="yes"/>
      <point x="657" y="478"/>
      <point x="594" y="398"/>
      <point x="522" y="346" type="curve"/>
      <point x="543" y="323"/>
      <point x="560" y="292"/>
      <point x="570" y="260" type="curve" smooth="yes"/>
      <point x="580" y="227"/>
      <point x="583" y="192"/>
      <point x="582" y="163" type="curve"/>
      <point x="574" y="79"/>
      <point x="528" y="14"/>
      <point x="476" y="-30" type="curve" smooth="yes"/>
      <point x="423" y="-74"/>
      <point x="361" y="-99"/>
      <point x="320" y="-104" type="curve" smooth="yes"/>
      <point x="285" y="-108"/>
      <point x="250" y="-112"/>
      <point x="211" y="-112" type="curve" smooth="yes"/>
      <point x="159" y="-112"/>
      <point x="110" y="-104"/>
      <point x="70" y="-78" type="curve" smooth="yes"/>
      <point x="30" y="-52"/>
      <point x="-1" y="-9"/>
      <point x="-13" y="63" type="curve" smooth="yes"/>
      <point x="-14" y="70"/>
      <point x="-15" y="77"/>
      <point x="-15" y="84" type="curve" smooth="yes"/>
      <point x="-15" y="91"/>
      <point x="-15" y="98"/>
      <point x="-15" y="105" type="curve" smooth="yes"/>
      <point x="-15" y="169"/>
      <point x="3" y="219"/>
      <point x="31" y="260" type="curve" smooth="yes"/>
      <point x="59" y="301"/>
      <point x="97" y="332"/>
      <point x="137" y="357" type="curve" smooth="yes"/>
      <point x="182" y="383" type="line"/>
      <point x="143" y="434"/>
      <point x="114" y="483"/>
      <point x="114" y="547" type="curve" smooth="yes"/>
      <point x="114" y="568"/>
      <point x="118" y="591"/>
      <point x="126" y="615" type="curve" smooth="yes"/>
    </contour>
    <contour>
      <point x="438" y="789" type="line" smooth="yes"/>
      <point x="382" y="790"/>
      <point x="323" y="770"/>
      <point x="274" y="736" type="curve" smooth="yes"/>
      <point x="225" y="702"/>
      <point x="184" y="654"/>
      <point x="164" y="603" type="curve" smooth="yes"/>
      <point x="157" y="584"/>
      <point x="154" y="566"/>
      <point x="154" y="547" type="curve" smooth="yes"/>
      <point x="154" y="488"/>
      <point x="193" y="432"/>
      <point x="242" y="372" type="curve"/>
      <point x="158" y="323" type="line"/>
      <point x="159" y="323" type="line"/>
      <point x="124" y="300"/>
      <point x="90" y="274"/>
      <point x="66" y="238" type="curve" smooth="yes"/>
      <point x="41" y="202"/>
      <point x="25" y="158"/>
      <point x="25" y="105" type="curve" smooth="yes"/>
      <point x="25" y="100"/>
      <point x="25" y="94"/>
      <point x="25" y="88" type="curve" smooth="yes"/>
      <point x="25" y="82"/>
      <point x="26" y="76"/>
      <point x="27" y="69" type="curve"/>
      <point x="38" y="14"/>
      <point x="63" y="-20"/>
      <point x="96" y="-42" type="curve" smooth="yes"/>
      <point x="129" y="-64"/>
      <point x="170" y="-72"/>
      <point x="211" y="-72" type="curve" smooth="yes"/>
      <point x="244" y="-72"/>
      <point x="281" y="-68"/>
      <point x="316" y="-64" type="curve"/>
      <point x="353" y="-57"/>
      <point x="408" y="-34"/>
      <point x="453" y="4" type="curve" smooth="yes"/>
      <point x="498" y="42"/>
      <point x="537" y="96"/>
      <point x="542" y="167" type="curve" smooth="yes"/>
      <point x="545" y="196"/>
      <point x="538" y="230"/>
      <point x="523" y="263" type="curve" smooth="yes"/>
      <point x="508" y="295"/>
      <point x="485" y="326"/>
      <point x="454" y="349" type="curve"/>
      <point x="499" y="380"/>
      <point x="543" y="414"/>
      <point x="577" y="451" type="curve" smooth="yes"/>
      <point x="611" y="488"/>
      <point x="635" y="529"/>
      <point x="646" y="576" type="curve" smooth="yes"/>
      <point x="649" y="591"/>
      <point x="651" y="606"/>
      <point x="651" y="621" type="curve" smooth="yes"/>
      <point x="651" y="652"/>
      <point x="641" y="680"/>
      <point x="625" y="700" type="curve"/>
      <point x="608" y="719"/>
      <point x="583" y="730"/>
      <point x="552" y="723" type="curve"/>
      <point x="537" y="755"/>
      <point x="520" y="772"/>
      <point x="502" y="781" type="curve"/>
      <point x="484" y="789"/>
      <point x="465" y="789"/>
      <point x="450" y="789" type="curve" smooth="yes"/>
    </contour>
    <contour>
      <point x="469" y="618" type="line"/>
      <point x="472" y="607"/>
      <point x="474" y="602"/>
      <point x="477" y="597" type="curve"/>
      <point x="477" y="598" type="line"/>
      <point x="485" y="582"/>
      <point x="495" y="567"/>
      <point x="484" y="547" type="curve"/>
      <point x="451" y="496"/>
      <point x="426" y="475"/>
      <point x="402" y="456" type="curve" smooth="yes"/>
      <point x="398" y="453"/>
      <point x="394" y="449"/>
      <point x="389" y="445" type="curve" smooth="yes"/>
      <point x="384" y="441"/>
      <point x="376" y="434"/>
      <point x="367" y="425" type="curve"/>
      <point x="347" y="447" type="line"/>
      <point x="334" y="468"/>
      <point x="329" y="487"/>
      <point x="329" y="510" type="curve" smooth="yes"/>
      <point x="329" y="558"/>
      <point x="355" y="599"/>
      <point x="384" y="623" type="curve" smooth="yes"/>
      <point x="413" y="646"/>
      <point x="447" y="650"/>
      <point x="460" y="623" type="curve"/>
    </contour>
    <contour>
      <point x="368" y="109"/>
      <point x="343" y="95"/>
      <point x="312" y="95" type="curve" smooth="yes"/>
      <point x="289" y="95"/>
      <point x="264" y="105"/>
      <point x="244" y="119" type="curve" smooth="yes"/>
      <point x="224" y="133"/>
      <point x="210" y="152"/>
      <point x="210" y="173" type="curve" smooth="yes"/>
      <point x="210" y="194"/>
      <point x="221" y="212"/>
      <point x="244" y="227" type="curve"/>
      <point x="244" y="226" type="line"/>
      <point x="247" y="228"/>
      <point x="248" y="229"/>
      <point x="249" y="229" type="curve" smooth="yes"/>
      <point x="250" y="229"/>
      <point x="250" y="228"/>
      <point x="251" y="227" type="curve"/>
      <point x="251" y="231"/>
      <point x="252" y="235"/>
      <point x="257" y="240" type="curve"/>
      <point x="261" y="245"/>
      <point x="270" y="251"/>
      <point x="287" y="260" type="curve"/>
      <point x="325" y="274" type="line"/>
      <point x="342" y="250"/>
      <point x="357" y="229"/>
      <point x="366" y="208" type="curve" smooth="yes"/>
      <point x="375" y="187"/>
      <point x="379" y="166"/>
      <point x="375" y="142" type="curve"/>
    </contour>
    <contour>
      <point x="340" y="181"/>
      <point x="330" y="199"/>
      <point x="311" y="226" type="curve"/>
      <point x="303" y="223" type="line"/>
      <point x="296" y="220"/>
      <point x="292" y="221"/>
      <point x="291" y="224" type="curve"/>
      <point x="291" y="221"/>
      <point x="290" y="217"/>
      <point x="287" y="212" type="curve" smooth="yes"/>
      <point x="284" y="207"/>
      <point x="277" y="200"/>
      <point x="266" y="193" type="curve"/>
      <point x="255" y="185"/>
      <point x="250" y="178"/>
      <point x="250" y="173" type="curve" smooth="yes"/>
      <point x="250" y="162"/>
      <point x="259" y="154"/>
      <point x="271" y="147" type="curve"/>
      <point x="283" y="139"/>
      <point x="299" y="135"/>
      <point x="312" y="135" type="curve" smooth="yes"/>
      <point x="323" y="135"/>
      <point x="332" y="139"/>
      <point x="335" y="150" type="curve"/>
    </contour>
    <contour>
      <point x="438" y="582"/>
      <point x="436" y="587"/>
      <point x="434" y="593" type="curve"/>
      <point x="426" y="602" type="line"/>
      <point x="423" y="609"/>
      <point x="419" y="610"/>
      <point x="413" y="606" type="curve"/>
      <point x="400" y="598"/>
      <point x="387" y="577"/>
      <point x="377" y="550" type="curve" smooth="yes"/>
      <point x="372" y="536"/>
      <point x="369" y="523"/>
      <point x="369" y="510" type="curve" smooth="yes"/>
      <point x="369" y="501"/>
      <point x="370" y="492"/>
      <point x="373" y="484" type="curve"/>
      <point x="378" y="488" type="line" smooth="yes"/>
      <point x="398" y="503"/>
      <point x="420" y="522"/>
      <point x="449" y="567" type="curve"/>
      <point x="447" y="567"/>
      <point x="444" y="571"/>
      <point x="441" y="578" type="curve"/>
    </contour>
  </outline>
</glyph>
<glyph name="nine" format="1">
  <advance width="603"/>
  <unicode hex="0039"/>
  <outline>
    <contour>
      <point x="324" y="-83"/>
      <point x="266" y="-105"/>
      <point x="218" y="-105" type="curve" smooth="yes"/>
      <point x="191" y="-105"/>
      <point x="166" y="-98"/>
      <point x="147" y="-85" type="curve" smooth="yes"/>
      <point x="128" y="-72"/>
      <point x="117" y="-51"/>
      <point x="117" y="-22" type="curve" smooth="yes"/>
      <point x="117" y="-7"/>
      <point x="120" y="8"/>
      <point x="126" y="24" type="curve"/>
      <point x="136" y="41"/>
      <point x="145" y="58"/>
      <point x="154" y="73" type="curve"/>
      <point x="171" y="104"/>
      <point x="188" y="132"/>
      <point x="207" y="162" type="curve" smooth="yes"/>
      <point x="216" y="177"/>
      <point x="227" y="192"/>
      <point x="238" y="209" type="curve"/>
      <point x="218" y="206"/>
      <point x="198" y="207"/>
      <point x="183" y="210" type="curve"/>
      <point x="132" y="218"/>
      <point x="90" y="243"/>
      <point x="59" y="280" type="curve" smooth="yes"/>
      <point x="28" y="317"/>
      <point x="10" y="365"/>
      <point x="10" y="418" type="curve" smooth="yes"/>
      <point x="10" y="450"/>
      <point x="16" y="484"/>
      <point x="29" y="516" type="curve" smooth="yes"/>
      <point x="61" y="593"/>
      <point x="115" y="669"/>
      <point x="182" y="723" type="curve" smooth="yes"/>
      <point x="249" y="777"/>
      <point x="327" y="808"/>
      <point x="407" y="803" type="curve"/>
      <point x="410" y="803"/>
      <point x="413" y="803"/>
      <point x="416" y="803" type="curve"/>
      <point x="419" y="802"/>
      <point x="421" y="802"/>
      <point x="424" y="802" type="curve"/>
      <point x="464" y="798"/>
      <point x="519" y="794"/>
      <point x="559" y="777" type="curve" smooth="yes"/>
      <point x="599" y="760"/>
      <point x="626" y="731"/>
      <point x="610" y="678" type="curve" smooth="yes"/>
      <point x="607" y="667"/>
      <point x="610" y="663"/>
      <point x="617" y="659" type="curve"/>
      <point x="625" y="652"/>
      <point x="634" y="644"/>
      <point x="641" y="632" type="curve" smooth="yes"/>
      <point x="648" y="619"/>
      <point x="651" y="601"/>
      <point x="647" y="573" type="curve" smooth="yes"/>
      <point x="632" y="462"/>
      <point x="598" y="349"/>
      <point x="548" y="243" type="curve" smooth="yes"/>
      <point x="498" y="137"/>
      <point x="430" y="37"/>
      <point x="353" y="-44" type="curve"/>
    </contour>
    <contour>
      <point x="325" y="-16" type="line"/>
      <point x="398" y="61"/>
      <point x="461" y="156"/>
      <point x="510" y="260" type="curve" smooth="yes"/>
      <point x="558" y="363"/>
      <point x="591" y="472"/>
      <point x="607" y="579" type="curve"/>
      <point x="610" y="608"/>
      <point x="600" y="621"/>
      <point x="591" y="629" type="curve" smooth="yes"/>
      <point x="574" y="644"/>
      <point x="563" y="657"/>
      <point x="572" y="690" type="curve"/>
      <point x="577" y="717"/>
      <point x="555" y="733"/>
      <point x="523" y="744" type="curve" smooth="yes"/>
      <point x="491" y="755"/>
      <point x="451" y="759"/>
      <point x="420" y="762" type="curve"/>
      <point x="417" y="762"/>
      <point x="414" y="762"/>
      <point x="411" y="763" type="curve"/>
      <point x="408" y="763"/>
      <point x="405" y="763"/>
      <point x="403" y="763" type="curve"/>
      <point x="328" y="770"/>
      <point x="259" y="742"/>
      <point x="200" y="694" type="curve" smooth="yes"/>
      <point x="141" y="646"/>
      <point x="95" y="578"/>
      <point x="67" y="502" type="curve" smooth="yes"/>
      <point x="56" y="472"/>
      <point x="50" y="444"/>
      <point x="50" y="418" type="curve" smooth="yes"/>
      <point x="50" y="374"/>
      <point x="64" y="336"/>
      <point x="89" y="306" type="curve" smooth="yes"/>
      <point x="113" y="276"/>
      <point x="148" y="255"/>
      <point x="189" y="250" type="curve"/>
      <point x="213" y="246"/>
      <point x="264" y="254"/>
      <point x="331" y="271" type="curve"/>
      <point x="283" y="204"/>
      <point x="252" y="160"/>
      <point x="228" y="121" type="curve" smooth="yes"/>
      <point x="203" y="82"/>
      <point x="186" y="50"/>
      <point x="163" y="9" type="curve"/>
      <point x="165" y="12" type="line"/>
      <point x="160" y="-3"/>
      <point x="157" y="-14"/>
      <point x="157" y="-22" type="curve" smooth="yes"/>
      <point x="157" y="-53"/>
      <point x="186" y="-65"/>
      <point x="218" y="-65" type="curve" smooth="yes"/>
      <point x="258" y="-65"/>
      <point x="303" y="-48"/>
      <point x="323" y="-19" type="curve" smooth="yes"/>
    </contour>
    <contour>
      <point x="401" y="626" type="line"/>
      <point x="425" y="622"/>
      <point x="434" y="614"/>
      <point x="437" y="603" type="curve" smooth="yes"/>
      <point x="440" y="592"/>
      <point x="435" y="578"/>
      <point x="430" y="562" type="curve" smooth="yes"/>
      <point x="424" y="544" type="line"/>
      <point x="424" y="545" type="line"/>
      <point x="412" y="496"/>
      <point x="389" y="463"/>
      <point x="364" y="444" type="curve" smooth="yes"/>
      <point x="339" y="425"/>
      <point x="311" y="420"/>
      <point x="288" y="427" type="curve" smooth="yes"/>
      <point x="264" y="434"/>
      <point x="253" y="454"/>
      <point x="253" y="479" type="curve" smooth="yes"/>
      <point x="253" y="508"/>
      <point x="270" y="548"/>
      <point x="298" y="579" type="curve" smooth="yes"/>
      <point x="325" y="610"/>
      <point x="361" y="633"/>
      <point x="401" y="628" type="curve"/>
    </contour>
    <contour>
      <point x="392" y="574" type="line"/>
      <point x="395" y="581"/>
      <point x="397" y="585"/>
      <point x="382" y="588" type="curve"/>
      <point x="358" y="585"/>
      <point x="336" y="568"/>
      <point x="320" y="546" type="curve" smooth="yes"/>
      <point x="303" y="524"/>
      <point x="293" y="498"/>
      <point x="293" y="479" type="curve" smooth="yes"/>
      <point x="293" y="471"/>
      <point x="295" y="466"/>
      <point x="298" y="465" type="curve"/>
      <point x="326" y="457"/>
      <point x="367" y="483"/>
      <point x="386" y="555" type="curve"/>
    </contour>
  </outline>
</glyph>
